<?xml version="1.0" standalone="no"?>
<!DOCTYPE svg PUBLIC "-//W3C//DTD SVG 1.1//EN" "http://www.w3.org/Graphics/SVG/1.1/DTD/svg11.dtd" >
<svg>
<metadata>
Created by FontForge 20090622 at Sun Jun 10 14:50:16 2018
 By deploy user
Copyright (c) 2013 by Gumpita Rahayu. All rights reserved.
</metadata>
<defs>
<font id="Track" horiz-adv-x="255" >
  <font-face 
    font-family="Track"
    font-weight="400"
    font-stretch="normal"
    units-per-em="1000"
    panose-1="2 0 0 0 0 0 0 0 0 0"
    ascent="750"
    descent="-250"
    x-height="799"
    cap-height="800"
    bbox="-66 -294 1237 1019"
    underline-thickness="50"
    underline-position="-48"
    unicode-range="U+0020-U+2122"
  />
<missing-glyph horiz-adv-x="252" 
 />
    <glyph glyph-name=".notdef" horiz-adv-x="252" 
 />
    <glyph glyph-name=".null" horiz-adv-x="0" 
 />
    <glyph glyph-name="nonmarkingreturn" horiz-adv-x="282" 
 />
    <glyph glyph-name="space" unicode=" " horiz-adv-x="282" 
 />
    <glyph glyph-name="space" unicode="&#xa0;" horiz-adv-x="282" 
 />
    <glyph glyph-name="numbersign" unicode="#" horiz-adv-x="712" 
d="M640 235q0 -12 -9.5 -22t-23.5 -10h-113l-43 -171q-3 -12 -15.5 -22t-26.5 -10h-68q-14 0 -20 10t-3 22l43 171h-155l-43 -171q-3 -12 -15 -22t-26 -10h-66q-14 0 -20.5 10t-3.5 22l41 171h-40q-14 0 -23 10t-9 22v63q0 12 8 22t22 10h74l28 113h-62q-14 0 -23 10t-9 22
v63q0 12 9 22t23 10h94l51 198q3 12 14.5 22t25.5 10h68q14 0 21 -10t4 -22l-51 -198h155l51 198q3 12 14.5 22t25.5 10h68q14 0 21 -10t4 -22l-51 -198h61q14 0 23.5 -10t9.5 -22v-63q0 -12 -9.5 -22t-23.5 -10h-93l-28 -113h81q14 0 23.5 -10t9.5 -22v-63zM238 330h155
l28 113h-155z" />
    <glyph glyph-name="dollar" unicode="$" horiz-adv-x="668" 
d="M399 808q35 -5 68 -19.5t61 -36.5q34 -27 53 -75.5t17 -106.5q-1 -15 -5 -27t-27 -12h-66q-14 0 -22.5 10t-9.5 22q-2 52 -19.5 78.5t-49.5 34.5v-226l49 -13.5t35 -10.5q20 -7 37.5 -15.5t32.5 -18.5q31 -21 50.5 -57t19.5 -87q0 -29 -5.5 -58t-15.5 -55.5t-24 -49
t-31 -37.5q-29 -26 -66 -39t-82 -17v-48q0 -12 -9.5 -22t-23.5 -10h-68q-14 0 -23 10t-9 22v49q-58 5 -106.5 34t-77.5 77q-22 32 -28 65q-6 30 -6.5 46t-0.5 33q0 15 4.5 27t27.5 12h68q24 0 30 -24q3 -10 3 -15v-17q0 -4 0.5 -10.5t1.5 -16.5q7 -31 29.5 -53.5t54.5 -29.5
v224q-42 11 -81.5 25.5t-70 36.5t-49 53.5t-18.5 75.5v14q0 16 0.5 32.5t5.5 36.5l-1 -1q7 39 27 72t48.5 58t64 40.5t74.5 19.5v53q0 12 9 22t23 10h68q14 0 23.5 -10t9.5 -22v-53zM474 283q-12 10 -31 17t-44 14v-192q34 8 58 29.5t30 53.5q1 5 1.5 10t0.5 10t0.5 12.5
t-1 15.5t-5 16t-9.5 14zM197 521q20 -20 43 -26l26 -7v189q-31 -8 -54.5 -30.5t-30.5 -54.5v1q-2 -13 -2.5 -33t18.5 -39z" />
    <glyph glyph-name="percent" unicode="%" horiz-adv-x="883" 
d="M753 337q0 25 -17.5 43t-43.5 18h-16q-22 0 -38 -15.5t-16 -38.5v-195q0 -23 16 -38.5t38 -15.5h16q26 0 43.5 17.5t17.5 43.5v181zM676 0q-30 0 -56.5 11.5t-47 31.5t-32 47t-11.5 59v195q0 31 11.5 58.5t32 47.5t47 31.5t56.5 11.5h16q31 0 59.5 -12.5t49.5 -33.5
t33.5 -49.5t12.5 -60.5v-181q0 -32 -12.5 -60.5t-33.5 -49.5t-49.5 -33.5t-59.5 -12.5h-16zM257 736q0 26 -18 43.5t-44 17.5h-16q-22 0 -38 -15.5t-16 -38.5v-195q0 -23 16 -38.5t38 -15.5h16q26 0 44 18t18 43v181zM350 555q0 -32 -12.5 -60.5t-33.5 -49.5t-49.5 -33.5
t-59.5 -12.5h-16q-30 0 -56.5 11.5t-47 31.5t-32 47t-11.5 59v195q0 31 11.5 58.5t32 47.5t47 31.5t56.5 11.5h16q31 0 59.5 -12.5t49.5 -33.5t33.5 -49.5t12.5 -60.5v-181zM246 20q-8 -12 -13.5 -16t-19.5 -4h-78q-14 0 -17 9t5 21l523 840q8 12 13 17t19 5h78
q14 0 17.5 -10t-4.5 -22z" />
    <glyph glyph-name="ampersand" unicode="&#x26;" horiz-adv-x="732" 
d="M201 396q-27 -19 -39 -50t-12 -63q0 -30 8 -58t24 -49t41 -33.5t58 -12.5h77q43 0 75 27zM587 0q-6 0 -16 7.5t-19.5 17.5t-18.5 20.5l-13 15.5q-34 -29 -75.5 -45t-86.5 -16h-77q-58 0 -105 21.5t-80.5 58.5t-52 87t-18.5 106q-1 70 18 123.5t78 96.5q-9 21 -11 41
t-2 43q0 41 13 81.5t38 72t60.5 51t80.5 19.5h53q41 0 74.5 -17.5t57 -46.5t36.5 -66t13 -75v-61q0 -25 -23 -25h-79q-12 0 -17 10t-6 25t-1 33.5t-3 35.5t-10.5 30.5t-24.5 18.5q-11 4 -21 4.5t-21 0.5q-30 0 -48.5 -7t-29 -20.5t-14 -34t-3.5 -48.5v-6q5 -11 21.5 -30.5
t39.5 -43.5l49.5 -51l52 -51.5l46.5 -45l33 -32.5v8q0 13 4.5 22.5t19.5 9.5h80q12 0 17.5 -10t7 -24t0.5 -28.5t-1 -23.5q0 -21 -3 -41.5t-11 -39.5q7 -8 28 -30l42.5 -46t38.5 -45t17 -28q0 -10 -7.5 -16t-17.5 -6h-103z" />
    <glyph glyph-name="quoteright" unicode="&#x2019;" horiz-adv-x="226" 
d="M83 519q-12 0 -22 9.5t-10 23.5v220q0 14 10 23t22 9h61q12 0 22 -9t10 -23v-220q0 -14 -10 -23.5t-22 -9.5h-61z" />
    <glyph glyph-name="parenleft" unicode="(" horiz-adv-x="369" 
d="M161 76q0 -33 20 -61t51 -41q16 -7 30 -8t31 -1h11q14 0 24 -9.5t10 -23.5v-68q0 -14 -10 -22.5t-24 -8.5h-11q-17 0 -32.5 0.5t-32.5 3.5q-43 7 -79 29t-62.5 54.5t-41.5 72.5t-15 83l-2 518v78q0 44 15 84.5t42 73t63.5 54.5t79.5 29q17 3 32.5 3.5t32.5 0.5h11
q14 0 24 -8.5t10 -22.5v-68q0 -14 -10 -23.5t-24 -9.5h-11q-17 0 -31 -1t-30 -8q-31 -13 -51 -42t-20 -62v-596z" />
    <glyph glyph-name="parenright" unicode=")" horiz-adv-x="369" 
d="M338 76q0 -43 -15 -83t-42 -72.5t-63.5 -54.5t-79.5 -29q-17 -3 -31.5 -3.5t-31.5 -0.5h-11q-14 0 -24 8.5t-10 22.5v68q0 14 10 23.5t24 9.5h10q17 0 30 1t30 8q30 13 50.5 41t20.5 61v596q0 33 -20.5 62t-50.5 42q-17 7 -30.5 8t-30.5 1h-11q-14 0 -24 9.5t-10 23.5v68
q0 14 10 22.5t24 8.5h11q17 0 32 -0.5t33 -3.5q43 -7 79.5 -29t63.5 -54.5t42 -73t15 -84.5v-596z" />
    <glyph glyph-name="asterisk" unicode="*" horiz-adv-x="417" 
d="M367 687q5 -10 4 -20t-13 -18l-58 -37q14 -8 27.5 -14.5t28.5 -14.5t16.5 -18.5t-6.5 -21.5l-36 -51q-15 -21 -36 -8l-44 25q0 -12 -0.5 -24t-0.5 -25q0 -28 -26 -28h-50q-27 0 -27 28v50l-49 -27q-22 -13 -37 10l-31 51q-5 9 -7.5 19.5t13.5 18.5l60 31l-58 36
q-10 6 -12 16.5t3 21.5l35 47q15 19 37 6l45 -28q0 14 0.5 29t0.5 29q0 28 27 28h50q11 0 18.5 -7.5t7.5 -18.5l1 -60l45 28q21 13 36 -6z" />
    <glyph glyph-name="plus" unicode="+" horiz-adv-x="492" 
d="M276 575q12 0 22 -9.5t10 -23.5v-98h97q14 0 23.5 -10t9.5 -22v-63q0 -12 -9.5 -22t-23.5 -10h-97v-98q0 -14 -10 -23t-22 -9h-63q-12 0 -22 9t-10 23v98h-99q-14 0 -23 10t-9 22v63q0 12 9 22t23 10h99v98q0 14 10 23.5t22 9.5h63z" />
    <glyph glyph-name="comma" unicode="," 
d="M192 32q3 -4 -3 -13l-36 -85q-4 -10 -9.5 -12.5t-14.5 -2.5h-42q-14 0 -14.5 6.5t0.5 11.5l16 63h-8q-14 0 -23 10t-9 22v74q0 12 9 22t23 10h78q14 0 23.5 -10t9.5 -22v-74z" />
    <glyph glyph-name="hyphen" unicode="-" horiz-adv-x="492" 
d="M432 349q0 -12 -9.5 -22t-23.5 -10h-323q-14 0 -23 10t-9 22v63q0 12 9 22t23 10h323q14 0 23.5 -10t9.5 -22v-63z" />
    <glyph glyph-name="period" unicode="." 
d="M192 32q0 -12 -9.5 -22t-23.5 -10h-68q-14 0 -23 10t-9 22v74q0 12 9 22t23 10h68q14 0 23.5 -10t9.5 -22v-74z" />
    <glyph glyph-name="slash" unicode="/" horiz-adv-x="545" 
d="M157 22q-10 -22 -37 -22h-66q-14 0 -18.5 10t0.5 22l339 840q7 22 35 22h78q14 0 19.5 -10t0.5 -22z" />
    <glyph glyph-name="zero" unicode="0" horiz-adv-x="652" 
d="M591 244q0 -53 -20.5 -98.5t-56 -80t-82.5 -54t-99 -19.5h-29q-50 0 -94 18t-77 50.5t-52.5 76t-19.5 94.5v339q0 51 19.5 95t52.5 76.5t77 51t94 18.5h29q52 0 99 -20t82.5 -54.5t56 -81t20.5 -98.5v-313zM192 231q0 -23 9 -43t24.5 -35t35.5 -23.5t43 -8.5h29
q26 0 49 9.5t40 26.5t27 39t10 48v313q0 25 -10 47.5t-27 39.5t-40 26.5t-49 9.5h-29q-23 0 -43 -8.5t-35.5 -23.5t-24.5 -35t-9 -43v-339z" />
    <glyph glyph-name="one" unicode="1" horiz-adv-x="494" 
d="M65 0q-20 0 -26 10.5t-6 29.5v49q0 20 7.5 29.5t29.5 9.5h108v542h-105q-20 0 -26 10.5t-6 29.5v51q0 20 8 29.5t31 9.5h199q23 0 27.5 -12t4.5 -27v-633h114q23 0 31 -9.5t8 -29.5v-49q0 -19 -6 -29.5t-26 -10.5h-367z" />
    <glyph glyph-name="two" unicode="2" horiz-adv-x="616" 
d="M572 34q0 -12 -10 -23t-24 -11h-467q-14 0 -22.5 11t-8.5 23l-1 184q0 20 1.5 34.5t7.5 27t18.5 24t34.5 25.5l279 216l20 16.5t12 10.5q32 35 25 71q-8 36 -57 36h-107q-48 0 -69 -12t-29 -49q-1 -10 -1.5 -16.5t-0.5 -10.5v-4q0 -19 -6.5 -27t-26.5 -8h-67
q-21 0 -26.5 8t-5.5 27v18q0 17 4.5 50t18.5 62q16 30 57 61q40 31 152 31h110q57 0 96 -18.5t62 -48.5t29.5 -68t-1.5 -77t-30.5 -75.5t-57.5 -63.5l-310 -235v-86h367q14 0 24 -11t10 -24v-68z" />
    <glyph glyph-name="three" unicode="3" horiz-adv-x="632" 
d="M272 381q-33 26 -29.5 49.5t21.5 49.5l125 185h-286q-26 0 -33 7t-7 33v56q0 15 4 27t30 12h433q14 0 23 -10t9 -22v-63q0 -5 -1.5 -11t-6.5 -11l-160 -229l92 -80q42 -29 66.5 -68t32 -80.5t-2 -82t-35 -72.5t-67.5 -51.5t-99 -19.5h-110q-112 0 -152 30q-42 32 -56 61
q-14 30 -18.5 63t-4.5 50v18q0 19 5 27t26 8h67q20 0 26.5 -8t6.5 -27v-4q0 -4 0.5 -10.5t1.5 -16.5q8 -37 29 -49t69 -12h107q49 0 66 41q17 42 -25 90q-4 5 -11.5 12.5t-20.5 17.5z" />
    <glyph glyph-name="four" unicode="4" horiz-adv-x="653" 
d="M528 317h62q26 0 32.5 -7t6.5 -33v-49q0 -15 -5 -27.5t-28 -12.5h-68v-149q0 -23 -9.5 -31t-29.5 -8h-54q-19 0 -29.5 6t-10.5 26v156h-344q-22 0 -26.5 12.5t-4.5 27.5v43q0 8 2 14t5 11l368 494l2 2q11 8 30 8h69q23 0 27.5 -12t4.5 -27v-444zM395 317v274l-201 -274
h201z" />
    <glyph glyph-name="five" unicode="5" horiz-adv-x="631" 
d="M287 1q-112 0 -152 30q-44 33 -57 61q-14 30 -18.5 63t-4.5 50v18q0 19 5.5 27t26.5 8h67q20 0 26.5 -8t6.5 -27v-4q0 -4 0.5 -10.5t1.5 -16.5q8 -37 29 -49t69 -12h95q49 0 57 36q1 2 1 9v89q0 36 -6.5 56t-18 29.5t-28 12t-36.5 3.5q-33 1 -96 1t-159 -2q-14 0 -24 11
t-8 24l-2 365q0 12 9 23t23 11h419q14 0 24 -11t10 -23v-68q0 -13 -10 -24t-24 -11h-318v-165h177q17 0 50 -5t62 -19t61 -56q31 -40 31 -152v-92q0 -34 -11.5 -65t-35 -55t-59.5 -38t-85 -14h-98z" />
    <glyph glyph-name="six" unicode="6" horiz-adv-x="644" 
d="M186 538l252 -145q14 -8 33 -20.5l45 -29.5q33 -22 53 -56t26.5 -72t-1 -76.5t-30 -69t-60.5 -50t-92 -19.5h-178q-49 0 -83.5 13.5t-56 38.5t-31.5 59t-10 75v421q0 37 12 71.5t35 61.5t56.5 43t77.5 16h112q111 0 157 -32q46 -31 61 -63q14 -29 19 -62t5 -50v-18
q0 -19 -5.5 -27t-26.5 -8h-67q-20 0 -26.5 8t-6.5 27v4q0 4 -0.5 10.5t-1.5 16.5q-8 37 -34 50.5t-74 13.5h-109q-32 -3 -41.5 -20.5t-9.5 -45.5v-65zM186 186q0 -17 9 -36q11 -17 46 -17h164q31 0 45 32q13 34 -17 65q-4 6 -16 15q-6 5 -22.5 15.5l-42.5 27.5l-90 56.5
l-76 47.5v-206z" />
    <glyph glyph-name="seven" unicode="7" horiz-adv-x="615" 
d="M419 595q7 12 10 24.5t0.5 22.5t-11 16.5t-23.5 6.5h-181q-36 0 -46 -18q-9 -18 -9 -35v-28q0 -12 -9.5 -22t-23.5 -10h-68q-14 0 -23 10t-9 22v28q0 41 10 75t31.5 59t56 38.5t83.5 13.5h184q75 0 118 -24t59.5 -62.5t8 -86.5t-36.5 -95l-291 -496q-10 -17 -21.5 -25.5
t-30.5 -8.5h-86q-20 0 -26.5 14.5t8.5 39.5z" />
    <glyph glyph-name="eight" unicode="8" horiz-adv-x="632" 
d="M126 782q29 17 60 22t53 5h144q57 0 96.5 -19t62 -49.5t29.5 -68.5t-1 -77t-30.5 -75t-58.5 -62l-65 -47l84 -60q36 -26 58.5 -62t30.5 -75t1.5 -77t-29.5 -68.5t-62.5 -49.5t-96.5 -19h-185q-55 0 -93.5 19t-61 49t-29 68.5t1 77.5t29 75t55.5 62l82 62l-60 45
q-44 33 -68 78t-27 91t16.5 87.5t63.5 67.5zM188 237q-33 -34 -25 -73q7 -37 57 -37h179q50 0 57 37q8 39 -25 73l-32 34l-91 72l-88 -72l-20 -20.5t-12 -13.5zM185 648q-4 -21 1.5 -40.5t23.5 -35.5l32 -29l70 -54l68 54l32 29q18 16 23.5 34.5t1.5 38.5q-8 39 -57 39h-126
q-34 0 -48.5 -8t-20.5 -28z" />
    <glyph glyph-name="nine" unicode="9" horiz-adv-x="647" 
d="M452 262l-252 145q-14 8 -33 20.5l-45 29.5q-32 22 -52 56t-26.5 72t1 76.5t29.5 69t60 50t92 19.5h178q49 0 83 -13.5t56 -38.5t32 -59t10 -75v-421q0 -37 -12 -71.5t-35 -61.5t-57 -43t-77 -16h-112q-111 0 -157 32q-23 17 -39 32.5t-23 29.5q-14 30 -18.5 63t-4.5 50
v18q0 19 5.5 27t26.5 8h67q20 0 26.5 -8t6.5 -27v-4q0 -4 0.5 -10.5t1.5 -16.5q8 -37 34 -50.5t74 -13.5h109q32 3 41.5 20.5t9.5 45.5v65zM452 614q0 19 -10 35q-8 18 -45 18h-164q-33 0 -46 -33q-14 -32 18 -64q4 -6 16 -16q6 -5 22 -15l42 -27l167 -104v206z" />
    <glyph glyph-name="colon" unicode=":" 
d="M192 32q0 -12 -9.5 -22t-23.5 -10h-68q-14 0 -23 10t-9 22v74q0 12 9 22t23 10h68q14 0 23.5 -10t9.5 -22v-74zM192 390q0 -12 -9.5 -22t-23.5 -10h-68q-14 0 -23 10t-9 22v74q0 12 9 22t23 10h68q14 0 23.5 -10t9.5 -22v-74z" />
    <glyph glyph-name="semicolon" unicode=";" 
d="M192 390q0 -12 -9.5 -22t-23.5 -10h-68q-14 0 -23 10t-9 22v74q0 12 9 22t23 10h68q14 0 23.5 -10t9.5 -22v-74zM196 32q0 -6 -3 -13l-36 -85q-4 -10 -9.5 -12.5t-14.5 -2.5h-42q-14 0 -14.5 6.5t0.5 11.5l16 63h-8q-14 0 -23 10t-9 22v74q0 12 9 22t23 10h78
q14 0 23.5 -10t9.5 -22v-74z" />
    <glyph glyph-name="less" unicode="&#x3c;" horiz-adv-x="492" 
d="M312 608q8 8 20 8t20 -8l52 -51q8 -11 8 -20q0 -12 -8 -20l-159 -159l150 -150q8 -8 8 -20t-8 -20l-51 -51q-8 -8 -20 -8t-20 8l-130.5 128.5l-68 66.5t-26 29.5t-4.5 16.5q0 5 1 9.5t8 12.5t21.5 22.5l40.5 40.5l66.5 66z" />
    <glyph glyph-name="equal" unicode="=" horiz-adv-x="492" 
d="M438 449q0 -12 -9.5 -22t-23.5 -10h-323q-14 0 -23 10t-9 22v63q0 12 9 22t23 10h323q14 0 23.5 -10t9.5 -22v-63zM438 238q0 -12 -9.5 -22t-23.5 -10h-323q-14 0 -23 10t-9 22v63q0 12 9 22t23 10h323q14 0 23.5 -10t9.5 -22v-63z" />
    <glyph glyph-name="greater" unicode="&#x3e;" horiz-adv-x="492" 
d="M175 608l98.5 -99l66.5 -66l40.5 -40.5t21.5 -22.5t8.5 -12.5t1.5 -9.5q0 -9 -4.5 -16.5t-26 -29.5l-68 -66.5l-130.5 -128.5q-8 -8 -20 -8t-20 8l-51 51q-8 8 -8 20t8 20l150 150l-159 159q-8 8 -8 20q0 9 8 20l52 51q8 8 20 8t20 -8z" />
    <glyph glyph-name="question" unicode="?" horiz-adv-x="661" 
d="M270 679q-48 0 -74 -13.5t-34 -50.5q-1 -10 -1.5 -16.5t-0.5 -10.5v-4q0 -19 -6.5 -27t-26.5 -8h-67q-21 0 -26.5 8t-5.5 27v18q0 17 4.5 50t18.5 62q15 28 62 63q46 32 157 32h163q54 0 92 -19t60.5 -49.5t30 -69t1 -76t-26.5 -71.5t-53 -56l-45 -29.5t-33 -20.5
l-73 -40v-146q0 -15 -7.5 -23.5t-29.5 -8.5h-67q-14 0 -21.5 10t-7.5 22v137q0 20 1.5 35t7.5 27.5t18.5 24t35.5 24.5l114 65l20 16.5t12 10.5q25 28 12 66q-12 38 -44 41h-160zM386 32q0 -12 -9.5 -22t-23.5 -10h-68q-14 0 -23 10t-9 22v74q0 12 9 22t23 10h68
q14 0 23.5 -10t9.5 -22v-74z" />
    <glyph glyph-name="A" unicode="A" horiz-adv-x="689" 
d="M675 32q0 -32 -32 -32h-72q-16 0 -21.5 7.5t-10.5 18.5l-91 263l-246 -109l-55 -154q-5 -12 -10 -19t-23 -7h-69q-12 0 -22.5 9t-10.5 23q0 1 10 30.5l26.5 78l37.5 111l43.5 129l45 132l41.5 119.5l32.5 92t18.5 50q5 11 11 18.5t21 7.5h88q15 0 20.5 -8t10.5 -18
l256 -730q1 -5 1 -7v-5zM400 422l-15 39.5t-8 23.5t-5 15.5t-5 15.5l-10.5 32l-13.5 40l-81 -227z" />
    <glyph glyph-name="B" unicode="B" horiz-adv-x="704" 
d="M644 217q0 -45 -17 -84.5t-46.5 -69t-69 -46.5t-84.5 -17h-336q-14 0 -22.5 10t-8.5 22l-2 736q0 14 9.5 23t23.5 9h328q35 0 66 -13.5t53.5 -36.5t35.5 -54t13 -66q0 -52 -18 -83q-18 -32 -80 -65q82 -15 118.5 -58t36.5 -124v-83zM191 447l70 37l80 45t69 43.5t37 31.5
q6 9 6 26q0 15 -9.5 26t-24.5 11h-228v-220zM191 303v-170h236q35 0 60 25l10 12q12 14 13.5 29t1.5 18q0 8 0.5 15t0.5 15q0 7 0.5 14t0.5 14q0 54 -22 74.5t-50 20.5h-128z" />
    <glyph glyph-name="C" unicode="C" horiz-adv-x="755" 
d="M381 813q61 0 114.5 -20t95.5 -56t71 -85.5t41 -107.5q0 -1 -0.5 -5t-0.5 -5q-3 -10 -10 -19.5t-21 -9.5h-67q-13 0 -19.5 6t-11.5 16l-15 42t-20 36q-27 37 -68 57.5t-89 20.5q-40 0 -75.5 -15.5t-62 -42t-42 -62.5t-15.5 -76v-174q0 -41 15.5 -76.5t42 -62t62 -42
t75.5 -15.5q48 0 89 21t70 59q15 20 22.5 40.5t13.5 45.5l-1 -2q4 27 31 27h67q14 0 23 -10t9 -22q0 -15 -4 -31.5t-9 -30.5q-17 -48 -48.5 -89t-73 -71.5t-90 -47.5t-99.5 -17q-67 0 -126 25.5t-103.5 69.5t-70 103t-25.5 126v174q0 67 25.5 126.5t70 103.5t103.5 70
t126 26z" />
    <glyph glyph-name="D" unicode="D" horiz-adv-x="746" 
d="M191 667v-534h183q38 0 71.5 14.5t59 40t40 58.5t14.5 71v166q0 37 -14.5 70.5t-40 59t-59 40t-71.5 14.5h-183zM374 800q66 0 123.5 -25t101 -68t68.5 -101t25 -123v-166q0 -65 -25 -123t-68.5 -101t-101 -68t-123.5 -25h-283q-14 0 -23 9t-9 23l-2 736q0 12 10 22
t24 10h283z" />
    <glyph glyph-name="E" unicode="E" horiz-adv-x="664" 
d="M92 0q-14 0 -23 9t-9 23l-2 736q0 14 10 23t24 9h483q25 0 29 -12t4 -27v-55q0 -27 -7 -33t-33 -6h-375v-177h333q14 0 23 -9.5t9 -23.5v-68q0 -14 -9 -23.5t-23 -9.5h-333v-223h388q26 0 33 -6t7 -33v-54q0 -15 -4 -27.5t-29 -12.5h-496z" />
    <glyph glyph-name="F" unicode="F" horiz-adv-x="620" 
d="M91 0q-12 0 -21.5 9t-9.5 23l-2 736q0 14 10 23t22 9h464q23 0 28 -12t5 -27v-55q0 -27 -6.5 -33t-33.5 -6h-355v-188h334q32 0 32 -32v-69q0 -32 -32 -32h-334v-306q0 -15 -4 -27.5t-29 -12.5h-68z" />
    <glyph glyph-name="G" unicode="G" horiz-adv-x="764" 
d="M383 814q52 0 98.5 -16t85.5 -44.5t70 -68.5t52 -89q7 -16 -2 -28t-29 -12h-72q-19 0 -29 19l1 -1q-28 51 -71.5 80.5t-103.5 29.5q-41 0 -76.5 -15.5t-62.5 -42t-42.5 -62.5t-15.5 -76v-162q0 -52 15.5 -87.5t42.5 -62.5q27 -26 62 -41.5t77 -15.5q58 0 108 26.5
t76 80.5q10 22 15 58q2 19 3.5 28.5t1.5 10.5h-172q-13 0 -22.5 10t-9.5 22v62q0 32 32 32h266q31 0 31 -32q0 -11 0.5 -19t0.5 -18q1 -11 1 -21v-20q0 -5 -1 -18t-3 -34t-4.5 -38.5t-6.5 -31.5q-8 -28 -22 -55t-36 -55q-48 -61 -113.5 -90t-144.5 -26q-68 2 -127.5 26.5
t-104 68t-70 104.5t-25.5 136v162q0 67 26 126.5t70 103.5t103.5 70t127.5 26z" />
    <glyph glyph-name="H" unicode="H" horiz-adv-x="701" 
d="M192 418l312 134v209q0 15 5 27t28 12h67q14 0 24 -10t10 -22v-736q0 -12 -10 -22t-24 -10h-67q-23 0 -28 12t-5 27v366l-312 -132v-234q0 -15 -4 -27t-29 -12h-68q-14 0 -22 10t-8 22l-2 736q0 12 9 22t23 10h68q25 0 29 -12t4 -27v-343z" />
    <glyph glyph-name="I" unicode="I" 
d="M192 32q0 -12 -9.5 -22t-23.5 -10h-68q-14 0 -22 10t-8 22l-2 736q0 12 9 22t23 10h68q14 0 23.5 -10t9.5 -22v-736z" />
    <glyph glyph-name="J" unicode="J" horiz-adv-x="681" 
d="M619 263q0 -54 -20.5 -102t-56 -83.5t-83 -56.5t-101.5 -21h-78q-44 0 -84.5 15t-72.5 42t-54 63.5t-29 79.5q-3 17 -4 32.5t-1 32.5v11q0 14 8.5 24t22.5 10h68q14 0 23.5 -10t9.5 -24v-11q0 -17 1 -31t8 -30q13 -31 42 -51t62 -20h78q27 0 50 10.5t40.5 28t27.5 41
t10 50.5v477q-1 9 -1 19.5t3 19.5t10 15t21 6h68q14 0 23 -10t9 -22v-505z" />
    <glyph glyph-name="K" unicode="K" horiz-adv-x="699" 
d="M191 489l338 313l2 -3q1 1 11 1h93q14 0 24 -9t10 -23t-12 -24l-11 -13l-278 -261l296 -408l8 -11q11 -14 7.5 -25.5t-14.5 -19.5q-9 -6 -19 -6h-84q-9 0 -16 3.5t-14 14.5l1 -2l-264 364l-38.5 -36.5l-39.5 -36.5v-275q0 -32 -33 -32h-67q-31 0 -31 32l-2 736
q0 32 33 32h67q33 0 33 -32v-279z" />
    <glyph glyph-name="L" unicode="L" horiz-adv-x="603" 
d="M91 0q-30 0 -30 32l-2 736q0 32 32 32h69q23 0 27.5 -12t4.5 -27v-628h332q27 0 33 -6t6 -33v-54q0 -15 -4.5 -27.5t-27.5 -12.5h-440z" />
    <glyph glyph-name="M" unicode="M" horiz-adv-x="902" 
d="M784 800q7 0 16.5 -0.5t18 -4t14.5 -12.5t6 -25v-729q0 -22 -10.5 -25.5t-24.5 -3.5h-59q-26 0 -33 7t-7 33v525l-102.5 -130l-104.5 -128l1 2q-7 -11 -13 -13t-17 -2h-39q-14 0 -19 3t-13 13l-205 255v-525q0 -26 -7 -33t-33 -7h-59q-14 -1 -23.5 3t-9.5 24l-2 732
q0 15 6.5 23.5t16 12.5t19.5 4.5t16 0.5h36q14 0 23.5 -3t18.5 -15l255 -320l256 323q12 15 39 15h39z" />
    <glyph glyph-name="N" unicode="N" horiz-adv-x="732" 
d="M669 32q0 -12 -9.5 -22t-23.5 -10h-68q-19 0 -28 15l-87.5 130.5l-85 126l-85.5 126.5l-89 132v-498q0 -12 -9.5 -22t-23.5 -10h-69q-14 0 -22 10t-8 22l-2 736q0 12 9 22t23 10h74q18 0 27 -16v1l343 -516v499q0 12 9.5 22t23.5 10h68q14 0 23.5 -10t9.5 -22v-736z" />
    <glyph glyph-name="O" unicode="O" horiz-adv-x="795" 
d="M745 323q0 -69 -27.5 -129.5t-75 -105.5t-111 -71t-135.5 -26t-135.5 26t-111.5 71t-75.5 105.5t-27.5 129.5v157q0 69 28 129.5t75.5 105t111.5 70.5t136 26t135.5 -26t111 -70.5t74.5 -105t27 -129.5v-157zM610 480q0 42 -17 79t-46 65t-68 44t-83 16t-83.5 -16.5
t-68.5 -44t-46 -64.5t-17 -79v-157q0 -42 17 -79t46 -65t68.5 -44t83.5 -16t83 16t68 44t46 65t17 79v157z" />
    <glyph glyph-name="P" unicode="P" horiz-adv-x="647" 
d="M531 457l-45 -29.5t-33 -20.5l-262 -145v-223q0 -15 -4.5 -27t-27.5 -12h-68q-14 0 -22.5 10t-8.5 22l-2 736q0 12 9.5 22t23.5 10h336q54 0 92 -19.5t60.5 -50t30 -69t1 -76.5t-26.5 -72t-53 -56zM191 667v-255l81 43.5t81 46.5q9 5 23.5 14t29 19t26.5 19.5t16 15.5
q20 32 12 64q-8 33 -40 33h-229z" />
    <glyph glyph-name="Q" unicode="Q" horiz-adv-x="807" 
d="M395 819q71 0 134.5 -27t111 -73t75.5 -107.5t28 -130.5v-158q0 -46 -14 -90.5t-37 -82.5l3 -3q2 0 31 -19q29 -20 29 -37q-1 -12 -11 -27l-19 -29q-15 -25 -33 -28t-52 18l-41 25q-45 -32 -96.5 -46.5t-108.5 -14.5q-72 0 -135.5 26t-111 71.5t-75 106.5t-27.5 130v158
q0 69 27.5 130.5t75 107.5t111 73t135.5 27zM609 481q0 42 -17 79.5t-46.5 65.5t-68.5 44.5t-82 16.5q-44 0 -82.5 -16.5t-68 -44.5t-46.5 -65.5t-17 -79.5v-158q0 -40 16 -77.5t44 -66t65.5 -46t80.5 -17.5q20 0 43 3t41 14q-3 1 -7 4q-3 2 -8 5t-11 8q-25 18 -19 42
q1 1 1 2q7 9 14.5 20t14.5 23q6 6 8 11q12 15 28 15q8 0 40 -19l47 -27q30 48 30 106v158z" />
    <glyph glyph-name="R" unicode="R" horiz-adv-x="699" 
d="M194 667v-218l46.5 23l56 28.5l58.5 31t53 30t41.5 27t22.5 20.5v-1q6 9 6 21q0 16 -11 27t-28 11h-245zM447 800q34 0 64.5 -14t53.5 -37t37 -54t14 -65q0 -57 -27.5 -93.5t-70.5 -65.5l31 -82l30 -82l49 -132.5l51 -133.5q8 -20 -1.5 -30.5t-29.5 -10.5h-76
q-16 0 -22 7.5t-10 17.5l-144 381l-100 -53l-102 -54v-260q0 -15 -4.5 -27t-27.5 -12h-71q-14 0 -22.5 10t-8.5 22l-2 736q0 12 9.5 22t23.5 10h356z" />
    <glyph glyph-name="S" unicode="S" horiz-adv-x="668" 
d="M623 248q0 -29 -5.5 -58t-15.5 -55.5t-24 -49t-31 -37.5q-34 -30 -80.5 -43.5t-100.5 -13.5h-76q-66 0 -121 30.5t-87 82.5q-22 32 -28 65q-6 31 -6.5 47.5t-0.5 33.5v-2q0 15 4.5 27t27.5 12h68q24 0 30 -24q3 -10 3 -15v-17q0 -4 0.5 -10.5t1.5 -16.5q8 -37 38.5 -61
t69.5 -24h76q45 0 79.5 23t41.5 63q1 5 1.5 10t0.5 10t0.5 12.5t-1 15.5t-5 16t-9.5 14q-21 18 -64 28l-97 23q-48 11 -95.5 25t-85.5 36.5t-61.5 56.5t-23.5 84v14q0 16 0.5 32.5t5.5 36.5l-1 -1q8 42 30 77t54 60.5t71.5 40t82.5 14.5h76q45 0 86.5 -15.5t75.5 -42.5
t53 -75.5t17 -106.5q-1 -15 -5 -27t-27 -12h-66q-14 0 -22.5 10t-9.5 22q-2 64 -28 90.5t-74 26.5h-76q-19 0 -37 -6.5t-32.5 -18.5t-25 -28t-14.5 -35v1q-2 -13 -2.5 -33t18.5 -39q20 -20 43 -26l115 -32l77 -21.5t51 -15.5q20 -7 37.5 -15.5t32.5 -18.5q31 -21 50.5 -57
t19.5 -87z" />
    <glyph glyph-name="T" unicode="T" horiz-adv-x="640" 
d="M387 671v-632q0 -15 -4.5 -27t-27.5 -12h-69q-23 0 -27.5 12t-4.5 27v632h-194q-26 0 -33 7.5t-7 31.5v51q0 15 4.5 27t27.5 12h533q23 0 28 -12t5 -27v-51q0 -24 -6.5 -31.5t-32.5 -7.5h-192z" />
    <glyph glyph-name="U" unicode="U" horiz-adv-x="700" 
d="M637 254q0 -53 -20.5 -99t-56 -80.5t-82.5 -54.5t-99 -20h-77q-50 0 -94 18.5t-77 51t-52.5 76.5t-19.5 95v527q0 32 32 32h67q23 0 27.5 -12t4.5 -27v-520q0 -23 9 -43t24.5 -35t35.5 -23.5t43 -8.5h77q26 0 49 9.5t40 26.5t27 39t10 48v507q0 15 5 27t28 12h66
q33 0 33 -32v-514z" />
    <glyph glyph-name="V" unicode="V" horiz-adv-x="712" 
d="M693 768q0 -2 -9.5 -33t-26.5 -80l-107 -297l-103 -285l-17 -47q-5 -12 -11 -19t-21 -7h-88q-17 0 -23 7.5t-9 17.5l-69 199l-91.5 263.5t-99.5 263.5q-3 5 -3.5 10t-0.5 7q0 32 33 32h78q15 0 21 -8t11 -18l197 -583l195 583l-1 -6q0 2 1 2.5t1 1.5q9 28 32 28h79
q12 0 22 -10t10 -22z" />
    <glyph glyph-name="W" unicode="W" horiz-adv-x="965" 
d="M116 799q11 0 21.5 -3t15.5 -22l130 -533l69 265.5l68 266.5l-1 -3q5 29 33 29h48q26 0 32 -26l137 -532l131 533q5 19 14.5 22t21.5 3h56q6 0 14 -1t14.5 -5t10.5 -10.5t2 -17.5l-3 -16q-17 -90 -39 -181.5l-46 -183.5l-48.5 -183.5t-45.5 -179.5q-4 -9 -7.5 -15
t-23.5 -6h-98q-17 0 -23 6.5t-8 15.5q-18 66 -34.5 133.5l-33.5 133.5l-48 188l-114 -454q-4 -10 -8.5 -16.5t-21.5 -6.5h-99q-19 0 -23 6t-9 18l-179 725q-1 3 -1.5 7t-0.5 10q0 25 13 29t28 4h56z" />
    <glyph glyph-name="X" unicode="X" horiz-adv-x="670" 
d="M655 36q0 -15 -7.5 -25.5t-23.5 -10.5h-84q-12 0 -18.5 6t-10.5 13v-1l-177 283l-179 -283l1 3q-8 -21 -30 -21h-75q-14 0 -23.5 10t-9.5 22q0 4 11 24l28 49q8 15 29.5 48.5l56.5 87.5l87 132l27 39l-220 338q-1 2 -3 8t-2 10q0 12 9.5 22t23.5 10h78q12 0 18.5 -6
t11.5 -13v1l165 -265l106 178.5l55 90.5q9 14 28 14h81q12 0 22 -10t10 -22q0 -6 -12 -25q-5 -11 -12.5 -23l-16.5 -26l-183 -282l237 -364z" />
    <glyph glyph-name="Y" unicode="Y" horiz-adv-x="696" 
d="M535 787q10 13 27 13h90q32 0 32 -32q0 -8 -4 -15t-8 -12q0 -1 -0.5 -1t-0.5 -1l-1 -1l-257 -367v-332q0 -15 -4 -27t-29 -12h-68q-23 0 -27.5 12t-4.5 27v334l-264 377q-3 5 -3.5 9t-0.5 10q0 31 31 31h89q18 0 29 -15l187 -277l125 190.5t64 90.5z" />
    <glyph glyph-name="Z" unicode="Z" horiz-adv-x="654" 
d="M53 0q-23 0 -28 12.5t-5 27.5v43q0 8 2.5 14t6.5 11l409 557h-357q-26 0 -33 7t-7 33v56q0 15 4 27t30 12h509q14 0 23 -10t9 -22v-63q0 -5 -1.5 -11t-6.5 -11l-397 -548h379q26 0 32.5 -7t6.5 -33v-55q0 -15 -5 -27.5t-28 -12.5h-543z" />
    <glyph glyph-name="bracketleft" unicode="[" horiz-adv-x="327" 
d="M53 911h3h68h3h122q11 0 19 -8t8 -19v-79q0 -11 -8 -19t-19 -8h-92v-812h92q11 0 19 -8t8 -19v-79q0 -11 -8 -19t-19 -8h-122h-3h-66h-3h-2q-11 0 -19 8t-8 19v2v3l-2 1014v3v2q0 11 8 19t19 8h2z" />
    <glyph glyph-name="backslash" unicode="\" horiz-adv-x="545" 
d="M34 862q-5 12 0 22t19 10h78q26 0 36 -22l340 -840q5 -12 0.5 -22t-18.5 -10h-68q-27 0 -37 22z" />
    <glyph glyph-name="bracketright" unicode="]" horiz-adv-x="327" 
d="M270 911q22 0 27 -24q1 -1 1 -8v-936v-4v-79q0 -11 -8 -19t-19 -8h-73h-3h-120q-11 0 -19 8t-8 19v79q0 11 7.5 19t18.5 8h91v812h-93q-11 0 -19 8t-8 19v79q0 11 8 19t19 8h123h3h68h3h1z" />
    <glyph glyph-name="asciicircum" unicode="^" horiz-adv-x="537" 
d="M251 790l2 2l5 3l1 1q2 0 3 1h2q2 1 10 1q10 -2 16 -8l52 -51l3 -5l167 -165q8 -8 8 -20t-8 -20l-51 -51q-8 -8 -19.5 -8t-19.5 8l-150 150l-160 -159q-8 -8 -20 -8t-20 8l-50 52q-8 8 -8 20t7 20l175 174l4 5z" />
    <glyph glyph-name="underscore" unicode="_" horiz-adv-x="579" 
d="M549 32q0 -12 -9.5 -22t-23.5 -10h-458q-14 0 -23 10t-9 22v63q0 12 9 22t23 10h458q14 0 23.5 -10t9.5 -22v-63z" />
    <glyph glyph-name="quoteleft" unicode="&#x2018;" horiz-adv-x="226" 
d="M83 519q-12 0 -22 9.5t-10 23.5v220q0 14 10 23t22 9h61q12 0 22 -9t10 -23v-220q0 -14 -10 -23.5t-22 -9.5h-61z" />
    <glyph glyph-name="a" unicode="a" horiz-adv-x="689" 
d="M675 32q0 -32 -32 -32h-72q-16 0 -21.5 7.5t-10.5 18.5l-91 263l-246 -109l-55 -154q-5 -12 -10 -19t-23 -7h-69q-12 0 -22.5 9t-10.5 23q0 1 10 30.5l26.5 78l37.5 111l43.5 129l45 132l41.5 119.5l32.5 92t18.5 50q5 11 11 18.5t21 7.5h88q15 0 20.5 -8t10.5 -18
l256 -730q1 -5 1 -7v-5zM400 422l-15 39.5t-8 23.5t-5 15.5t-5 15.5l-10.5 32l-13.5 40l-81 -227z" />
    <glyph glyph-name="b" unicode="b" horiz-adv-x="704" 
d="M644 217q0 -45 -17 -84.5t-46.5 -69t-69 -46.5t-84.5 -17h-336q-14 0 -22.5 10t-8.5 22l-2 736q0 14 9.5 23t23.5 9h328q35 0 66 -13.5t53.5 -36.5t35.5 -54t13 -66q0 -52 -18 -83q-18 -32 -80 -65q82 -15 118.5 -58t36.5 -124v-83zM191 447l70 37l80 45t69 43.5t37 31.5
q6 9 6 26q0 15 -9.5 26t-24.5 11h-228v-220zM191 303v-170h236q35 0 60 25l10 12q12 14 15 22.5t3 24.5q0 26 -0.5 40t-0.5 18q0 54 -22 74.5t-50 20.5h-128z" />
    <glyph glyph-name="c" unicode="c" horiz-adv-x="755" 
d="M381 813q61 0 114.5 -20t95.5 -56t71 -85.5t41 -107.5q0 -1 -0.5 -5t-0.5 -5q-3 -10 -10 -19.5t-21 -9.5h-67q-13 0 -19.5 6t-11.5 16l-15 42t-20 36q-27 37 -68 57.5t-89 20.5q-40 0 -75.5 -15.5t-62 -42t-42 -62.5t-15.5 -76v-174q0 -41 15.5 -76.5t42 -62t62 -42
t75.5 -15.5q48 0 89 21t70 59q15 20 22.5 40.5t13.5 45.5l-1 -2q4 27 31 27h67q14 0 23 -10t9 -22q0 -15 -4 -31.5t-9 -30.5q-17 -48 -48.5 -89t-73 -71.5t-90 -47.5t-99.5 -17q-67 0 -126 25.5t-103.5 69.5t-70 103t-25.5 126v174q0 67 25.5 126.5t70 103.5t103.5 70
t126 26z" />
    <glyph glyph-name="d" unicode="d" horiz-adv-x="746" 
d="M191 667v-534h183q38 0 71.5 14.5t59 40t40 58.5t14.5 71v166q0 37 -14.5 70.5t-40 59t-59 40t-71.5 14.5h-183zM374 800q66 0 123.5 -25t101 -68t68.5 -101t25 -123v-166q0 -65 -25 -123t-68.5 -101t-101 -68t-123.5 -25h-283q-14 0 -23 9t-9 23l-2 736q0 12 10 22
t24 10h283z" />
    <glyph glyph-name="e" unicode="e" horiz-adv-x="664" 
d="M92 0q-14 0 -23 9t-9 23l-2 736q0 14 10 23t24 9h483q25 0 29 -12t4 -27v-55q0 -27 -7 -33t-33 -6h-375v-177h333q14 0 23 -9.5t9 -23.5v-68q0 -14 -9 -23.5t-23 -9.5h-333v-223h388q26 0 33 -6t7 -33v-54q0 -15 -4 -27.5t-29 -12.5h-496z" />
    <glyph glyph-name="f" unicode="f" horiz-adv-x="620" 
d="M91 0q-12 0 -21.5 9t-9.5 23l-2 736q0 14 10 23t22 9h464q23 0 28 -12t5 -27v-55q0 -27 -6.5 -33t-33.5 -6h-355v-188h334q32 0 32 -32v-69q0 -32 -32 -32h-334v-306q0 -15 -4 -27.5t-29 -12.5h-68z" />
    <glyph glyph-name="g" unicode="g" horiz-adv-x="764" 
d="M383 814q52 0 98.5 -16t85.5 -44.5t70 -68.5t52 -89q7 -16 -2 -28t-29 -12h-72q-19 0 -29 19l1 -1q-28 51 -71.5 80.5t-103.5 29.5q-41 0 -76.5 -15.5t-62.5 -42t-42.5 -62.5t-15.5 -76v-162q0 -52 15.5 -87.5t42.5 -62.5q27 -26 62 -41.5t77 -15.5q58 0 108 26.5
t76 80.5q10 22 15 58q2 19 3.5 28.5t1.5 10.5h-172q-13 0 -22.5 10t-9.5 22v62q0 32 32 32h266q31 0 31 -32q0 -11 0.5 -19t0.5 -18q1 -11 1 -21v-20q0 -5 -1 -18t-3 -34t-4.5 -38.5t-6.5 -31.5q-8 -28 -22 -55t-36 -55q-48 -61 -113.5 -90t-144.5 -26q-68 2 -127.5 26.5
t-104 68t-70 104.5t-25.5 136v162q0 67 26 126.5t70 103.5t103.5 70t127.5 26z" />
    <glyph glyph-name="h" unicode="h" horiz-adv-x="701" 
d="M192 418l312 134v209q0 15 5 27t28 12h67q14 0 24 -10t10 -22v-736q0 -12 -10 -22t-24 -10h-67q-23 0 -28 12t-5 27v366l-312 -132v-234q0 -15 -4 -27t-29 -12h-68q-14 0 -22 10t-8 22l-2 736q0 12 9 22t23 10h68q25 0 29 -12t4 -27v-343z" />
    <glyph glyph-name="i" unicode="i" 
d="M192 32q0 -12 -9.5 -22t-23.5 -10h-68q-14 0 -22 10t-8 22l-2 736q0 12 9 22t23 10h68q14 0 23.5 -10t9.5 -22v-736z" />
    <glyph glyph-name="j" unicode="j" horiz-adv-x="681" 
d="M619 263q0 -54 -20.5 -102t-56 -83.5t-83 -56.5t-101.5 -21h-78q-44 0 -84.5 15t-72.5 42t-54 63.5t-29 79.5q-3 17 -4 32.5t-1 32.5v11q0 14 8.5 24t22.5 10h68q14 0 23.5 -10t9.5 -24v-11q0 -17 1 -31t8 -30q13 -31 42 -51t62 -20h78q27 0 50 10.5t40.5 28t27.5 41
t10 50.5v477q-1 9 -1 19.5t3 19.5t10 15t21 6h68q14 0 23 -10t9 -22v-505z" />
    <glyph glyph-name="k" unicode="k" horiz-adv-x="699" 
d="M191 489l338 313l2 -3q1 1 11 1h93q14 0 24 -9t10 -23t-12 -24l-11 -13l-278 -261l296 -408l8 -11q11 -14 7.5 -25.5t-14.5 -19.5q-9 -6 -19 -6h-84q-9 0 -16 3.5t-14 14.5l1 -2l-264 364l-38.5 -36.5l-39.5 -36.5v-275q0 -32 -33 -32h-67q-31 0 -31 32l-2 736
q0 32 33 32h67q33 0 33 -32v-279z" />
    <glyph glyph-name="l" unicode="l" horiz-adv-x="603" 
d="M91 0q-30 0 -30 32l-2 736q0 32 32 32h69q23 0 27.5 -12t4.5 -27v-628h332q27 0 33 -6t6 -33v-54q0 -15 -4.5 -27.5t-27.5 -12.5h-440z" />
    <glyph glyph-name="m" unicode="m" horiz-adv-x="902" 
d="M784 800q7 0 16.5 -0.5t18 -4t14.5 -12.5t6 -25v-729q0 -22 -10.5 -25.5t-24.5 -3.5h-59q-26 0 -33 7t-7 33v525l-102.5 -130l-104.5 -128l1 2q-7 -11 -13 -13t-17 -2h-39q-14 0 -19 3t-13 13l-205 255v-525q0 -26 -7 -33t-33 -7h-59q-14 -1 -23.5 3t-9.5 24l-2 732
q0 15 6.5 23.5t16 12.5t19.5 4.5t16 0.5h36q14 0 23.5 -3t18.5 -15l255 -320l256 323q12 15 39 15h39z" />
    <glyph glyph-name="n" unicode="n" horiz-adv-x="732" 
d="M669 32q0 -12 -9.5 -22t-23.5 -10h-68q-19 0 -28 15l-87.5 130.5l-85 126l-85.5 126.5l-89 132v-498q0 -12 -9.5 -22t-23.5 -10h-69q-14 0 -22 10t-8 22l-2 736q0 12 9 22t23 10h74q18 0 27 -16v1l343 -516v499q0 12 9.5 22t23.5 10h68q14 0 23.5 -10t9.5 -22v-736z" />
    <glyph glyph-name="o" unicode="o" horiz-adv-x="795" 
d="M745 323q0 -69 -27.5 -129.5t-75 -105.5t-111 -71t-135.5 -26t-135.5 26t-111.5 71t-75.5 105.5t-27.5 129.5v157q0 69 28 129.5t75.5 105t111.5 70.5t136 26t135.5 -26t111 -70.5t74.5 -105t27 -129.5v-157zM610 480q0 42 -17 79t-46 65t-68 44t-83 16t-83.5 -16.5
t-68.5 -44t-46 -64.5t-17 -79v-157q0 -42 17 -79t46 -65t68.5 -44t83.5 -16t83 16t68 44t46 65t17 79v157z" />
    <glyph glyph-name="p" unicode="p" horiz-adv-x="647" 
d="M531 457l-45 -29.5t-33 -20.5l-262 -145v-223q0 -15 -4.5 -27t-27.5 -12h-68q-14 0 -22.5 10t-8.5 22l-2 736q0 12 9.5 22t23.5 10h336q54 0 92 -19.5t60.5 -50t30 -69t1 -76.5t-26.5 -72t-53 -56zM191 667v-255l81 43.5t81 46.5q9 5 23.5 14t29 19t26.5 19.5t16 15.5
q20 32 12 64q-8 33 -40 33h-229z" />
    <glyph glyph-name="q" unicode="q" horiz-adv-x="807" 
d="M395 819q71 0 134.5 -27t111 -73t75.5 -107.5t28 -130.5v-158q0 -46 -14 -90.5t-37 -82.5l3 -3q2 0 31 -19q29 -20 29 -37q-1 -12 -11 -27l-19 -29q-15 -25 -33 -28t-52 18l-41 25q-45 -32 -96.5 -46.5t-108.5 -14.5q-72 0 -135.5 26t-111 71.5t-75 106.5t-27.5 130v158
q0 69 27.5 130.5t75 107.5t111 73t135.5 27zM609 481q0 42 -17 79.5t-46.5 65.5t-68.5 44.5t-82 16.5q-44 0 -82.5 -16.5t-68 -44.5t-46.5 -65.5t-17 -79.5v-158q0 -40 16 -77.5t44 -66t65.5 -46t80.5 -17.5q20 0 43 3t41 14q-3 1 -7 4q-3 2 -8 5t-11 8q-25 18 -19 42
q1 1 1 2q7 9 14.5 20t14.5 23q6 6 8 11q12 15 28 15q8 0 40 -19l47 -27q30 48 30 106v158z" />
    <glyph glyph-name="r" unicode="r" horiz-adv-x="699" 
d="M194 667v-218l46.5 23l56 28.5l58.5 31t53 30t41.5 27t22.5 20.5v-1q6 9 6 21q0 16 -11 27t-28 11h-245zM447 800q34 0 64.5 -14t53.5 -37t37 -54t14 -65q0 -57 -27.5 -93.5t-70.5 -65.5l31 -82l30 -82l49 -132.5l51 -133.5q8 -20 -1.5 -30.5t-29.5 -10.5h-76
q-16 0 -22 7.5t-10 17.5l-144 381l-100 -53l-102 -54v-260q0 -15 -4.5 -27t-27.5 -12h-71q-14 0 -22.5 10t-8.5 22l-2 736q0 12 9.5 22t23.5 10h356z" />
    <glyph glyph-name="s" unicode="s" horiz-adv-x="668" 
d="M623 248q0 -29 -5.5 -58t-15.5 -55.5t-24 -49t-31 -37.5q-34 -30 -80.5 -43.5t-100.5 -13.5h-76q-66 0 -121 30.5t-87 82.5q-22 32 -28 65q-6 31 -6.5 47.5t-0.5 33.5v-2q0 15 4.5 27t27.5 12h68q24 0 30 -24q3 -10 3 -15v-17q0 -4 0.5 -10.5t1.5 -16.5q8 -37 38.5 -61
t69.5 -24h76q45 0 79.5 23t41.5 63q1 5 1.5 10t0.5 10t0.5 12.5t-1 15.5t-5 16t-9.5 14q-21 18 -64 28l-97 23q-48 11 -95.5 25t-85.5 36.5t-61.5 56.5t-23.5 84v14q0 16 0.5 32.5t5.5 36.5l-1 -1q8 42 30 77t54 60.5t71.5 40t82.5 14.5h76q45 0 86.5 -15.5t75.5 -42.5
t53 -75.5t17 -106.5q-1 -15 -5 -27t-27 -12h-66q-14 0 -22.5 10t-9.5 22q-2 64 -28 90.5t-74 26.5h-76q-19 0 -37 -6.5t-32.5 -18.5t-25 -28t-14.5 -35v1q-2 -13 -2.5 -33t18.5 -39q20 -20 43 -26l115 -32l77 -21.5t51 -15.5q20 -7 37.5 -15.5t32.5 -18.5q31 -21 50.5 -57
t19.5 -87z" />
    <glyph glyph-name="t" unicode="t" horiz-adv-x="640" 
d="M387 671v-632q0 -15 -4.5 -27t-27.5 -12h-69q-23 0 -27.5 12t-4.5 27v632h-194q-26 0 -33 7.5t-7 31.5v51q0 15 4.5 27t27.5 12h533q23 0 28 -12t5 -27v-51q0 -24 -6.5 -31.5t-32.5 -7.5h-192z" />
    <glyph glyph-name="u" unicode="u" horiz-adv-x="700" 
d="M637 254q0 -53 -20.5 -99t-56 -80.5t-82.5 -54.5t-99 -20h-77q-50 0 -94 18.5t-77 51t-52.5 76.5t-19.5 95v527q0 32 32 32h67q23 0 27.5 -12t4.5 -27v-520q0 -23 9 -43t24.5 -35t35.5 -23.5t43 -8.5h77q26 0 49 9.5t40 26.5t27 39t10 48v507q0 15 5 27t28 12h66
q33 0 33 -32v-514z" />
    <glyph glyph-name="v" unicode="v" horiz-adv-x="712" 
d="M693 768q0 -2 -9.5 -33t-26.5 -80l-107 -297l-103 -285l-17 -47q-5 -12 -11 -19t-21 -7h-88q-17 0 -23 7.5t-9 17.5l-69 199l-91.5 263.5t-99.5 263.5q-3 5 -3.5 10t-0.5 7q0 32 33 32h78q15 0 21 -8t11 -18l197 -583l195 583l-1 -6q0 2 1 2.5t1 1.5q9 28 32 28h79
q12 0 22 -10t10 -22z" />
    <glyph glyph-name="w" unicode="w" horiz-adv-x="965" 
d="M116 799q11 0 21.5 -3t15.5 -22l130 -533l69 265.5l68 266.5l-1 -3q5 29 33 29h48q26 0 32 -26l137 -532l131 533q5 19 14.5 22t21.5 3h56q6 0 14 -1t14.5 -5t10.5 -10.5t2 -17.5l-3 -16q-17 -90 -39 -181.5l-46 -183.5l-48.5 -183.5t-45.5 -179.5q-4 -9 -7.5 -15
t-23.5 -6h-98q-17 0 -23 6.5t-8 15.5q-18 66 -34.5 133.5l-33.5 133.5l-48 188l-114 -454q-4 -10 -8.5 -16.5t-21.5 -6.5h-99q-19 0 -23 6t-9 18l-179 725q-1 3 -1.5 7t-0.5 10q0 25 13 29t28 4h56z" />
    <glyph glyph-name="x" unicode="x" horiz-adv-x="670" 
d="M655 36q0 -15 -7.5 -25.5t-23.5 -10.5h-84q-12 0 -18.5 6t-10.5 13v-1l-177 283l-179 -283l1 3q-8 -21 -30 -21h-75q-14 0 -23.5 10t-9.5 22q0 4 11 24l28 49q8 15 29.5 48.5l56.5 87.5l87 132l27 39l-220 338q-1 2 -3 8t-2 10q0 12 9.5 22t23.5 10h78q12 0 18.5 -6
t11.5 -13v1l165 -265l106 178.5l55 90.5q9 14 28 14h81q12 0 22 -10t10 -22q0 -6 -12 -25q-5 -11 -12.5 -23l-16.5 -26l-183 -282l237 -364z" />
    <glyph glyph-name="y" unicode="y" horiz-adv-x="696" 
d="M535 787q10 13 27 13h90q32 0 32 -32q0 -8 -4 -15t-8 -12q0 -1 -0.5 -1t-0.5 -1l-1 -1l-257 -367v-332q0 -15 -4 -27t-29 -12h-68q-23 0 -27.5 12t-4.5 27v334l-264 377q-3 5 -3.5 9t-0.5 10q0 31 31 31h89q18 0 29 -15l187 -277l125 190.5t64 90.5z" />
    <glyph glyph-name="z" unicode="z" horiz-adv-x="654" 
d="M53 0q-23 0 -28 12.5t-5 27.5v43q0 8 2.5 14t6.5 11l409 557h-357q-26 0 -33 7t-7 33v56q0 15 4 27t30 12h509q14 0 23 -10t9 -22v-63q0 -5 -1.5 -11t-6.5 -11l-397 -548h379q26 0 32.5 -7t6.5 -33v-55q0 -15 -5 -27.5t-28 -12.5h-543z" />
    <glyph glyph-name="braceleft" unicode="{" horiz-adv-x="366" 
d="M54 300q-26 0 -26 27v69q0 27 26 27h28q21 0 32 12q6 6 9.5 27t3.5 41v176q0 32 4 63.5t22 63.5q15 28 34 48l46 47l6 6q19 19 38 0l57 -56q8 -8 8 -18.5t-8 -18.5l-16 -15l-23 -24q-10 -11 -17 -27q-13 -25 -14 -76l-4 -180q-1 -42 -11.5 -76.5t-33.5 -54.5
q26 -21 35 -53t10 -67l4 -181q2 -51 13 -75q3 -3 4 -8l3 -6q6 -11 12 -18t16 -12l19 -9q22 -19 3 -38l-57 -56q-9 -11 -19.5 -9.5t-18.5 9.5l-11 11l-41 37q-22 17 -34 42q-18 32 -22 62.5t-4 62.5v177q0 20 -3 36.5t-8 20.5q-13 13 -34 13h-28z" />
    <glyph glyph-name="bar" unicode="|" 
d="M192 -136q0 -12 -9.5 -22t-23.5 -10h-66q-14 0 -23 10t-9 22l-2 1014q0 12 9 22t23 10h68q14 0 23.5 -10t9.5 -22v-1014z" />
    <glyph glyph-name="braceright" unicode="}" horiz-adv-x="366" 
d="M281 300q-21 0 -34 -13q-5 -4 -8 -20.5t-3 -36.5v-177q0 -32 -4 -62.5t-22 -62.5q-7 -11 -15.5 -21.5t-18.5 -20.5l-42 -37l-10 -11q-7 -8 -17.5 -9.5t-18.5 9.5l-57 56q-19 19 3 38l18 9q11 5 16.5 12t10.5 18q2 2 2 3t1 3q1 5 4 8q11 24 13 75l3 181q1 35 10 67t36 53
q-23 20 -34 54.5t-12 76.5l-3 180q-1 51 -14 76q-4 8 -8.5 14.5t-9.5 12.5l-23 24l-15 15q-8 8 -8 18.5t8 18.5l57 56q19 19 38 0l6 -6l45.5 -46.5t34.5 -48.5q17 -32 21.5 -63.5t4.5 -63.5v-176q0 -10 1 -20.5t2.5 -20.5t3.5 -17t5 -10q12 -12 33 -12h27q26 0 26 -27v-69
q0 -27 -26 -27h-27z" />
    <glyph glyph-name="asciitilde" unicode="~" horiz-adv-x="438" 
d="M37 330q-11 5 -15 14q-9 8 0 29l22 54q5 11 16.5 15.5t26.5 -1.5q39 -15 75.5 -10t73.5 12t75 7.5t82 -23.5q6 -3 10 -6.5t8 -7.5q9 -9 -1 -28l-25 -54q-7 -14 -20 -15t-23 4q-20 13 -43 16t-48 0t-51.5 -9t-54 -9t-55 -1.5t-53.5 13.5z" />
    <glyph glyph-name="exclamdown" unicode="&#xa1;" 
d="M58 264q0 12 9.5 22t23.5 10h68q14 0 23 -10t9 -22v-523q0 -12 -9 -22t-23 -10h-68q-14 0 -22.5 10t-8.5 22zM58 475q0 12 9.5 22t23.5 10h68q14 0 23 -10t9 -22v-74q0 -12 -9 -22t-23 -10h-68q-14 0 -23.5 10t-9.5 22v74z" />
    <glyph glyph-name="cent" unicode="&#xa2;" horiz-adv-x="755" 
d="M442 747q50 -9 93 -32t77 -57.5t57 -78.5t34 -95q0 -1 -0.5 -5t-0.5 -5q-3 -10 -10 -19.5t-21 -9.5h-67q-13 0 -19.5 6t-11.5 16l-15 42t-20 36q-27 37 -68 57.5t-89 20.5q-40 0 -75.5 -15.5t-62 -42t-42 -62.5t-15.5 -76v-84q0 -41 15.5 -76.5t42 -62t62 -42t75.5 -15.5
q48 0 89 21t70 59q15 20 22.5 40.5t13.5 45.5l-1 -2q4 27 31 27h67q14 0 23 -10t9 -22q0 -15 -4 -31.5t-9 -30.5q-14 -41 -39 -77t-58 -65t-72 -49.5t-81 -29.5v-38q0 -12 -9.5 -22t-23.5 -10h-68q-14 0 -23 10t-9 22v40q-54 12 -100.5 41.5t-80.5 71.5t-53 94.5t-19 110.5
v84q0 57 19 109.5t53 95t80.5 72t100.5 41.5v36q0 12 9 22t23 10h68q14 0 23.5 -10t9.5 -22v-34z" />
    <glyph glyph-name="sterling" unicode="&#xa3;" horiz-adv-x="785" 
d="M101 -56q-9 5 -14 17q-7 7 -1 36l22 63q0 1 0.5 2t0.5 2l2 213h-59q-14 0 -23 10t-9 22v63q0 12 9 22t23 10h61l1 83q1 67 26.5 126.5t69.5 103.5t102.5 70t126.5 26q61 0 114.5 -20t95.5 -56t71 -85.5t41 -107.5q0 -1 -0.5 -5t-0.5 -5q-3 -10 -10 -19.5t-21 -9.5h-67
q-13 0 -19.5 6t-11.5 16l-15 42t-20 36q-27 37 -68 57.5t-89 20.5q-40 0 -75.5 -15.5t-62 -42t-42 -62.5t-15.5 -76v-83h211q14 0 23.5 -10t9.5 -22v-63q0 -12 -9.5 -22t-23.5 -10h-211v-207q52 6 115.5 21t125.5 26t116 12t87 -21q13 -10 18 -16q5 -7 4.5 -14t-5.5 -20
l-25 -64q-7 -17 -20 -19t-22 6q-20 16 -60.5 15.5t-91.5 -9t-107.5 -22t-109.5 -23t-97.5 -11t-70.5 12.5z" />
    <glyph glyph-name="yen" unicode="&#xa5;" horiz-adv-x="696" 
d="M540 159q0 -12 -9.5 -22t-23.5 -10h-94v-88q0 -15 -4 -27t-29 -12h-68q-23 0 -27.5 12t-4.5 27v88h-96q-14 0 -23 10t-9 22v63q0 12 9 22t23 10h96v63h-96q-14 0 -23 10t-9 22v63q0 12 9 22t23 10h46l-214 306q-3 5 -3.5 9t-0.5 10q0 31 31 31h89q18 0 29 -15l187 -277
l125 190.5t64 90.5l-2 -2q10 13 27 13h90q32 0 32 -32q0 -8 -4 -15t-8 -12q0 -1 -0.5 -1t-0.5 -1l-1 -1l-206 -294h43q14 0 23.5 -10t9.5 -22v-63q0 -12 -9.5 -22t-23.5 -10h-94v-63h94q14 0 23.5 -10t9.5 -22v-63z" />
    <glyph glyph-name="quotesingle" unicode="'" horiz-adv-x="226" 
d="M83 519q-12 0 -22 9.5t-10 23.5v220q0 14 10 23t22 9h61q12 0 22 -9t10 -23v-220q0 -14 -10 -23.5t-22 -9.5h-61z" />
    <glyph glyph-name="quotedblleft" unicode="&#x201c;" horiz-adv-x="421" 
d="M83 519q-12 0 -22 9.5t-10 23.5v220q0 14 10 23t22 9h61q12 0 22 -9t10 -23v-220q0 -14 -10 -23.5t-22 -9.5h-61zM279 519q-12 0 -22 9.5t-10 23.5v220q0 14 10 23t22 9h61q12 0 22 -9t10 -23v-220q0 -14 -10 -23.5t-22 -9.5h-61z" />
    <glyph glyph-name="guillemotleft" unicode="&#xab;" horiz-adv-x="689" 
d="M268 608q8 8 20 8t20 -8l52 -51q8 -11 8 -20q0 -12 -8 -20l-159 -159l150 -150q8 -8 8 -20t-8 -20l-51 -51q-8 -8 -20 -8t-20 8l-130.5 128.5l-68 66.5t-26 29.5t-4.5 16.5q0 5 1 9.5t8 12.5t21.5 22.5l40.5 40.5l66.5 66zM552 608q8 8 20 8t20 -8l52 -51q8 -11 8 -20
q0 -12 -8 -20l-159 -159l150 -150q8 -8 8 -20t-8 -20l-51 -51q-8 -8 -20 -8t-20 8l-130.5 128.5l-68 66.5t-26 29.5t-4.5 16.5q0 5 1 9.5t8 12.5t21.5 22.5l40.5 40.5l66.5 66z" />
    <glyph glyph-name="guilsinglleft" unicode="&#x2039;" horiz-adv-x="492" 
d="M312 608q8 8 20 8t20 -8l52 -51q8 -11 8 -20q0 -12 -8 -20l-159 -159l150 -150q8 -8 8 -20t-8 -20l-51 -51q-8 -8 -20 -8t-20 8l-130.5 128.5l-68 66.5t-26 29.5t-4.5 16.5q0 5 1 9.5t8 12.5t21.5 22.5l40.5 40.5l66.5 66z" />
    <glyph glyph-name="guilsinglright" unicode="&#x203a;" horiz-adv-x="492" 
d="M175 608l98.5 -99l66.5 -66l40.5 -40.5t21.5 -22.5t8.5 -12.5t1.5 -9.5q0 -9 -4.5 -16.5t-26 -29.5l-68 -66.5l-130.5 -128.5q-8 -8 -20 -8t-20 8l-51 51q-8 8 -8 20t8 20l150 150l-159 159q-8 8 -8 20q0 9 8 20l52 51q8 8 20 8t20 -8z" />
    <glyph glyph-name="dagger" unicode="&#x2020;" 
d="M320 559q0 -12 -9.5 -22t-23.5 -10h-95v-543q0 -12 -9.5 -22t-23.5 -10h-67q-14 0 -22.5 10t-8.5 22l-2 543h-91q-14 0 -22.5 10t-8.5 22v63q0 12 8 22t22 10h92v114q0 12 9 22t23 10h68q14 0 23.5 -10t9.5 -22v-114h95q14 0 23.5 -10t9.5 -22v-63z" />
    <glyph glyph-name="daggerdbl" unicode="&#x2021;" 
d="M320 139q0 -12 -9.5 -22t-23.5 -10h-95v-123q0 -12 -9.5 -22t-23.5 -10h-67q-14 0 -22.5 10t-8.5 22l-1 123h-91q-14 0 -23 10t-9 22v63q0 12 9 22t23 10h90v293h-91q-14 0 -22.5 10t-8.5 22v63q0 12 8 22t22 10h92v114q0 12 9 22t23 10h68q14 0 23.5 -10t9.5 -22v-114
h95q14 0 23.5 -10t9.5 -22v-63q0 -12 -9.5 -22t-23.5 -10h-95v-293h95q14 0 23.5 -10t9.5 -22v-63z" />
    <glyph glyph-name="periodcentered" unicode="&#xb7;" 
d="M192 348q0 -12 -9.5 -22t-23.5 -10h-68q-14 0 -23 10t-9 22v74q0 12 9 22t23 10h68q14 0 23.5 -10t9.5 -22v-74z" />
    <glyph glyph-name="bullet" unicode="&#x2022;" horiz-adv-x="355" 
d="M176 278q-24 0 -45.5 9.5t-37 25.5t-24.5 37.5t-9 45.5t9 45.5t24.5 37.5t37 25.5t45.5 9.5q25 0 47 -9.5t38.5 -25.5t26 -37.5t9.5 -45.5t-9.5 -45.5t-26 -37.5t-38.5 -25.5t-47 -9.5z" />
    <glyph glyph-name="quotesinglbase" unicode="&#x201a;" horiz-adv-x="226" 
d="M83 -50q-12 0 -22 9.5t-10 23.5v218q0 14 10 23t22 9h61q12 0 22 -9t10 -23v-218q0 -14 -10 -23.5t-22 -9.5h-61z" />
    <glyph glyph-name="quotedblbase" unicode="&#x201e;" horiz-adv-x="421" 
d="M83 -49q-12 0 -22 9.5t-10 23.5v218q0 14 10 23t22 9h61q12 0 22 -9t10 -23v-218q0 -14 -10 -23.5t-22 -9.5h-61zM279 -49q-12 0 -22 9.5t-10 23.5v218q0 14 10 23t22 9h61q12 0 22 -9t10 -23v-218q0 -14 -10 -23.5t-22 -9.5h-61z" />
    <glyph glyph-name="quotedblright" unicode="&#x201d;" horiz-adv-x="421" 
d="M83 519q-12 0 -22 9.5t-10 23.5v220q0 14 10 23t22 9h61q12 0 22 -9t10 -23v-220q0 -14 -10 -23.5t-22 -9.5h-61zM279 519q-12 0 -22 9.5t-10 23.5v220q0 14 10 23t22 9h61q12 0 22 -9t10 -23v-220q0 -14 -10 -23.5t-22 -9.5h-61z" />
    <glyph glyph-name="guillemotright" unicode="&#xbb;" horiz-adv-x="689" 
d="M415 608l99.5 -99l66.5 -66l40.5 -40.5t21.5 -22.5t8 -12.5t1 -9.5q0 -9 -4.5 -16.5t-26 -29.5l-68 -66.5l-130.5 -128.5q-8 -8 -20 -8t-20 8l-51 51q-8 8 -8 20t8 20l150 150l-159 159q-8 8 -8 20q0 9 8 20l52 51q8 8 20 8t20 -8zM131 608l98.5 -99l66.5 -66l40.5 -40.5
t21.5 -22.5t8.5 -12.5t1.5 -9.5q0 -9 -4.5 -16.5t-26 -29.5l-68 -66.5l-130.5 -128.5q-8 -8 -20 -8t-20 8l-51 51q-8 8 -8 20t8 20l150 150l-159 159q-8 8 -8 20q0 9 8 20l52 51q8 8 20 8t20 -8z" />
    <glyph glyph-name="ellipsis" unicode="&#x2026;" horiz-adv-x="701" 
d="M195 32q0 -12 -9.5 -22t-23.5 -10h-68q-14 0 -23 10t-9 22v74q0 12 9 22t23 10h68q14 0 23.5 -10t9.5 -22v-74zM415 32q0 -12 -9.5 -22t-23.5 -10h-68q-14 0 -23 10t-9 22v74q0 12 9 22t23 10h68q14 0 23.5 -10t9.5 -22v-74zM635 32q0 -12 -9.5 -22t-23.5 -10h-68
q-14 0 -23 10t-9 22v74q0 12 9 22t23 10h68q14 0 23.5 -10t9.5 -22v-74z" />
    <glyph glyph-name="perthousand" unicode="&#x2030;" horiz-adv-x="1276" 
d="M1143 337q0 25 -17.5 43t-43.5 18h-16q-22 0 -38 -15.5t-16 -38.5v-195q0 -23 16 -38.5t38 -15.5h16q26 0 43.5 17.5t17.5 43.5v181zM1066 0q-30 0 -56.5 11.5t-47 31.5t-32 47t-11.5 59v195q0 31 11.5 58.5t32 47.5t47 31.5t56.5 11.5h16q31 0 59.5 -12.5t49.5 -33.5
t33.5 -49.5t12.5 -60.5v-181q0 -32 -12.5 -60.5t-33.5 -49.5t-49.5 -33.5t-59.5 -12.5h-16zM753 337q0 25 -17.5 43t-43.5 18h-16q-22 0 -38 -15.5t-16 -38.5v-195q0 -23 16 -38.5t38 -15.5h16q26 0 43.5 17.5t17.5 43.5v181zM676 0q-30 0 -56.5 11.5t-47 31.5t-32 47
t-11.5 59v195q0 31 11.5 58.5t32 47.5t47 31.5t56.5 11.5h16q31 0 59.5 -12.5t49.5 -33.5t33.5 -49.5t12.5 -60.5v-181q0 -32 -12.5 -60.5t-33.5 -49.5t-49.5 -33.5t-59.5 -12.5h-16zM257 736q0 26 -18 43.5t-44 17.5h-16q-22 0 -38 -15.5t-16 -38.5v-195q0 -23 16 -38.5
t38 -15.5h16q26 0 44 18t18 43v181zM350 555q0 -32 -12.5 -60.5t-33.5 -49.5t-49.5 -33.5t-59.5 -12.5h-16q-30 0 -56.5 11.5t-47 31.5t-32 47t-11.5 59v195q0 31 11.5 58.5t32 47.5t47 31.5t56.5 11.5h16q31 0 59.5 -12.5t49.5 -33.5t33.5 -49.5t12.5 -60.5v-181zM246 20
q-8 -12 -13.5 -16t-19.5 -4h-78q-14 0 -17 9t5 21l523 840q8 12 13 17t19 5h78q14 0 17.5 -10t-4.5 -22z" />
    <glyph glyph-name="questiondown" unicode="&#xbf;" horiz-adv-x="661" 
d="M380 -163q48 0 74 13.5t34 50.5q1 10 1.5 16.5t0.5 10.5v4q0 19 6.5 27t26.5 8h67q21 0 26.5 -8t5.5 -27v-18q0 -17 -5 -50t-19 -62q-15 -32 -61 -63q-46 -32 -157 -32h-163q-53 0 -90 19.5t-59.5 50t-30 68.5t-1.5 75.5t25.5 71t51.5 54.5l45 29.5t33 20.5l73 40v146
q0 15 7.5 23.5t29.5 8.5h67q14 0 21.5 -10t7.5 -22v-137q0 -20 -1.5 -35t-7.5 -27.5t-19 -24t-35 -24.5l-114 -63l-20 -16.5t-12 -10.5q-25 -28 -13 -66q14 -38 45 -41h160zM264 482q0 12 9.5 22t23.5 10h68q14 0 23 -10t9 -22v-74q0 -12 -9 -22t-23 -10h-68q-14 0 -23.5 10
t-9.5 22v74z" />
    <glyph glyph-name="grave" unicode="`" horiz-adv-x="282" 
d="M158 653q-13 0 -26 5.5t-28 21.5l-69 87q-9 14 -2 22.5t25 8.5h71q37 0 55 -25l48 -88q8 -14 3 -23t-27 -9h-50z" />
    <glyph glyph-name="acute" unicode="&#xb4;" horiz-adv-x="245" 
d="M45 653q-22 0 -27 9t3 23l48 88q18 25 55 25h68q18 0 25 -8.5t-2 -22.5l-69 -87q-15 -16 -28 -21.5t-26 -5.5h-47z" />
    <glyph glyph-name="circumflex" unicode="&#x2c6;" horiz-adv-x="417" 
d="M297 650q-18 0 -30 5.5t-29 20.5l-37 34l-38 -34q-17 -15 -29 -20.5t-30 -5.5h-65q-20 0 -25 11.5t10 25.5l94 87q13 15 27 21t29 6h52q22 0 34.5 -7.5t25.5 -19.5l93 -87q17 -15 11.5 -26t-26.5 -11h-67z" />
    <glyph glyph-name="tilde" unicode="&#x2dc;" horiz-adv-x="396" 
d="M44 680q-11 5 -15 14q-9 8 0 29l22 54q5 11 16.5 15.5t26.5 -1.5q26 -10 46.5 -11t38 2.5t34 9t35.5 7t41 -2.5t51 -19q12 -5 17 -14q10 -7 0 -28l-25 -54q-7 -14 -20 -15t-23 4q-30 21 -57 18t-56 -10.5t-61 -11.5t-71 14z" />
    <glyph glyph-name="macron" unicode="&#xaf;" horiz-adv-x="404" 
d="M394 705q0 -12 -9.5 -22t-23.5 -10h-323q-14 0 -22 10t-10 22v63q0 12 9 22t23 10h323q14 0 23.5 -10t9.5 -22v-63z" />
    <glyph glyph-name="breve" unicode="&#x2d8;" horiz-adv-x="404" 
d="M335 803q17 0 26 -10t9 -22v-5v-14.5t-2 -14.5q-4 -21 -16.5 -37.5t-30.5 -28t-40 -17t-46 -5.5h-31l-35 1q-48 1 -86 22.5t-46 64.5q-2 8 -2.5 14.5t-0.5 14.5v5q0 12 9 22t26 10h32q16 0 26 -9.5t10 -22.5v-5q0 -7 0.5 -10.5t2.5 -7.5q4 -8 12 -13t17 -5h66q9 0 17.5 5
t12.5 13q2 6 2 18v5q0 13 10 22.5t26 9.5h32z" />
    <glyph glyph-name="dotaccent" unicode="&#x2d9;" horiz-adv-x="404" 
d="M269 691q0 -12 -9.5 -22t-23.5 -10h-68q-14 0 -23 10t-9 22v74q0 12 9 22t23 10h68q14 0 23.5 -10t9.5 -22v-74z" />
    <glyph glyph-name="dieresis" unicode="&#xa8;" horiz-adv-x="455" 
d="M173 706q0 -12 -9 -21.5t-22 -9.5h-65q-14 0 -22.5 9.5t-8.5 21.5v70q0 12 8.5 21.5t22.5 9.5h65q13 0 22 -9.5t9 -21.5v-70zM401 706q0 -12 -9 -21.5t-23 -9.5h-65q-13 0 -21.5 9.5t-8.5 21.5v70q0 12 8.5 21.5t21.5 9.5h65q14 0 23 -9.5t9 -21.5v-70z" />
    <glyph glyph-name="ring" unicode="&#x2da;" horiz-adv-x="308" 
d="M128 572q-23 0 -42.5 9t-33.5 24.5t-22.5 36.5t-8.5 44t8.5 44t22.5 36.5t33.5 24.5t42.5 9h41q22 0 42 -9t35 -25t24 -36.5t9 -43.5q0 -24 -9 -45t-24 -36t-35 -24t-42 -9h-41zM156 650q14 0 24.5 11t12.5 25q-2 16 -12.5 26t-24.5 10h-16q-14 0 -24.5 -10t-8.5 -26
q-2 -14 8.5 -25t24.5 -11h16z" />
    <glyph glyph-name="cedilla" unicode="&#xb8;" horiz-adv-x="368" 
d="M229 33q17 0 20.5 -10t-1.5 -23l-18 -46l10 -2t10 -3q35 -11 56.5 -39t21.5 -70q0 -27 -10.5 -51.5t-28.5 -43t-41.5 -29t-50.5 -10.5h-48q-29 0 -53 11.5t-42 30.5q-11 14 -18 28q-6 12 -4.5 23t12.5 17l44 25q11 6 21.5 0.5t16.5 -16.5q5 -8 14.5 -14.5t21.5 -6.5h19
q19 0 30 9.5t11 26.5q0 16 -11 27.5t-30 11.5h-4h-43q-14 0 -18.5 9t0.5 24l35 93q12 17 22.5 22.5t20.5 5.5h35z" />
    <glyph glyph-name="hungarumlaut" unicode="&#x2dd;" horiz-adv-x="439" 
d="M45 653q-22 0 -27 9t3 23l48 88q18 25 55 25h68q18 0 25 -8.5t-2 -22.5l-69 -87q-15 -16 -28 -21.5t-26 -5.5h-47zM238 653q-22 0 -27 9t3 23l48 88q18 25 55 25h68q18 0 25 -8.5t-2 -22.5l-69 -87q-15 -16 -28 -21.5t-26 -5.5h-47z" />
    <glyph glyph-name="ogonek" unicode="&#x2db;" horiz-adv-x="368" 
d="M278 0h-118h118zM278 0l-102 -91q-14 -13 -23 -23t-9 -26q0 -17 11 -26.5t30 -9.5h19q12 0 21.5 1.5t14.5 9.5q6 11 16.5 16.5t21.5 -0.5l44 -25q11 -6 12.5 -17t-4.5 -23q-7 -14 -18 -28q-18 -19 -42 -25.5t-53 -6.5h-48q-27 0 -50.5 10.5t-41.5 29t-28.5 43t-10.5 51.5
q0 21 2.5 36.5t9 28t18 23t28.5 21.5q13 8 24 14q10 5 18.5 10t11.5 7h128z" />
    <glyph glyph-name="caron" unicode="&#x2c7;" horiz-adv-x="404" 
d="M107 800q18 0 30 -5.5t29 -20.5l37 -34l38 34q17 15 29 20.5t30 5.5h65q21 0 26 -11t-11 -26l-94 -87q-13 -15 -27 -21t-29 -6h-52q-22 0 -34.5 7.5t-25.5 19.5l-93 87q-17 15 -11.5 26t26.5 11h67z" />
    <glyph glyph-name="AE" unicode="&#xc6;" horiz-adv-x="974" 
d="M494 0q-14 0 -24 9t-10 23v224l-211 -69l-81 -156q-11 -20 -17.5 -25.5t-24.5 -5.5h-79q-18 0 -28 10t1 32l61 115.5l143 265.5l141 258.5t49 92.5q5 11 13.5 17.5t27.5 8.5h430q25 0 29 -12t4 -27v-55q0 -27 -7 -33t-33 -6h-286v-191h244q14 0 23 -9.5t9 -23.5v-64
q0 -14 -9 -23.5t-23 -9.5h-244v-213h299q26 0 33 -6t7 -33v-54q0 -15 -4 -27.5t-29 -12.5h-404zM460 391v211l-145 -261z" />
    <glyph glyph-name="ordfeminine" unicode="&#xaa;" horiz-adv-x="435" 
 />
    <glyph glyph-name="Lslash" unicode="&#x141;" horiz-adv-x="608" 
d="M96 0q-31 0 -31 32l-1 268l-31 -15q-16 -8 -26 -4t-10 32v41q0 16 3.5 25.5t14.5 17.5l49 24v347q0 32 32 32h69q23 0 27.5 -12t4.5 -27v-274l88 43q17 8 29.5 4t12.5 -32v-41q0 -16 -6 -25.5t-18 -17.5l-106 -52v-233h332q27 0 33 -6t6 -33v-54q0 -15 -4.5 -27.5
t-27.5 -12.5h-440z" />
    <glyph glyph-name="Oslash" unicode="&#xd8;" horiz-adv-x="795" 
d="M745 323q0 -69 -27.5 -129.5t-75 -105.5t-111 -71t-135.5 -26q-32 0 -62.5 5t-59.5 14l-35 -68q-8 -12 -17.5 -18t-25.5 -6h-51q-28 0 -32.5 12.5t4.5 29.5l55 107q-12 9 -23 20q-48 45 -75.5 106t-27.5 130v157q0 69 28 129.5t75.5 105t111.5 70.5t136 26q69 0 135 -26
l5 -2l30 58q8 12 17.5 18t25.5 6h51q28 0 32 -12.5t-4 -29.5l-52 -103l6 -6q48 -48 75 -106.5t27 -127.5v-157zM396 684q-44 0 -83.5 -16.5t-68.5 -44t-46 -64.5t-17 -79v-157q0 -39 17 -79q14 -31 36 -56l245 480q-36 16 -83 16zM610 480q0 39 -17 79q-8 18 -21 35
l-238 -467q34 -8 62 -8q44 0 83 16t68 44t46 65t17 79v157z" />
    <glyph glyph-name="OE" unicode="&#x152;" horiz-adv-x="986" 
d="M396 0q-128 0 -213 58q-87 60 -112 127q-25 66 -25 138v157q0 69 27.5 129.5t75.5 100.5q48 42 112 66t136 24h500q25 0 29 -12t4 -27v-52q0 -27 -7 -33t-33 -6h-296v-180h254q14 0 23 -9.5t9 -23.5v-68q0 -14 -9 -23.5t-23 -9.5h-254v-226h309q26 0 33 -6t7 -33v-51
q0 -15 -4 -27.5t-29 -12.5h-514zM466 128v551h-73q-42 0 -81 -16q-58 -23 -94.5 -69.5t-36.5 -113.5v-157q0 -67 37 -111t94 -65q20 -8 39.5 -13.5t40.5 -5.5h74z" />
    <glyph glyph-name="ae" unicode="&#xe6;" horiz-adv-x="974" 
d="M494 0q-14 0 -24 9t-10 23v224l-211 -69l-81 -156q-11 -20 -17.5 -25.5t-24.5 -5.5h-79q-18 0 -28 10t1 32l61 115.5l143 265.5l141 258.5t49 92.5q5 11 13.5 17.5t27.5 8.5h430q25 0 29 -12t4 -27v-55q0 -27 -7 -33t-33 -6h-286v-191h244q14 0 23 -9.5t9 -23.5v-64
q0 -14 -9 -23.5t-23 -9.5h-244v-213h299q26 0 33 -6t7 -33v-54q0 -15 -4 -27.5t-29 -12.5h-404zM460 391v211l-145 -261z" />
    <glyph glyph-name="dotlessi" unicode="&#x131;" 
d="M192 32q0 -12 -9.5 -22t-23.5 -10h-68q-14 0 -22 10t-8 22l-2 736q0 12 9 22t23 10h68q14 0 23.5 -10t9.5 -22v-736z" />
    <glyph glyph-name="lslash" unicode="&#x142;" horiz-adv-x="608" 
d="M96 0q-31 0 -31 32l-1 268l-31 -15q-16 -8 -26 -4t-10 32v41q0 16 3.5 25.5t14.5 17.5l49 24v347q0 32 32 32h69q23 0 27.5 -12t4.5 -27v-274l88 43q17 8 29.5 4t12.5 -32v-41q0 -16 -6 -25.5t-18 -17.5l-106 -52v-233h332q27 0 33 -6t6 -33v-54q0 -15 -4.5 -27.5
t-27.5 -12.5h-440z" />
    <glyph glyph-name="oslash" unicode="&#xf8;" horiz-adv-x="795" 
d="M745 323q0 -69 -27.5 -129.5t-75 -105.5t-111 -71t-135.5 -26q-32 0 -62.5 5t-59.5 14l-35 -68q-8 -12 -17.5 -18t-25.5 -6h-51q-28 0 -32.5 12.5t4.5 29.5l55 107q-12 9 -23 20q-48 45 -75.5 106t-27.5 130v157q0 69 28 129.5t75.5 105t111.5 70.5t136 26q69 0 135 -26
l5 -2l30 58q8 12 17.5 18t25.5 6h51q28 0 32 -12.5t-4 -29.5l-52 -103l6 -6q48 -48 75 -106.5t27 -127.5v-157zM396 684q-44 0 -83.5 -16.5t-68.5 -44t-46 -64.5t-17 -79v-157q0 -39 17 -79q14 -31 36 -56l245 480q-36 16 -83 16zM610 480q0 39 -17 79q-8 18 -21 35
l-238 -467q34 -8 62 -8q44 0 83 16t68 44t46 65t17 79v157z" />
    <glyph glyph-name="oe" unicode="&#x153;" horiz-adv-x="986" 
d="M396 0q-128 0 -213 58q-87 60 -112 127q-25 66 -25 138v157q0 69 27.5 129.5t75.5 100.5q48 42 112 66t136 24h500q25 0 29 -12t4 -27v-52q0 -27 -7 -33t-33 -6h-296v-180h254q14 0 23 -9.5t9 -23.5v-68q0 -14 -9 -23.5t-23 -9.5h-254v-226h309q26 0 33 -6t7 -33v-51
q0 -15 -4 -27.5t-29 -12.5h-514zM466 128v551h-73q-42 0 -81 -16q-58 -23 -94.5 -69.5t-36.5 -113.5v-157q0 -67 37 -111t94 -65q20 -8 39.5 -13.5t40.5 -5.5h74z" />
    <glyph glyph-name="germandbls" unicode="&#xdf;" horiz-adv-x="704" 
d="M192 800h227q35 0 66 -13.5t53.5 -36.5t35.5 -54t13 -66q0 -52 -18 -83q-18 -32 -80 -65q82 -15 118.5 -58t36.5 -124v-83q0 -45 -17 -84.5t-46.5 -69t-69 -46.5t-84.5 -17h-235v-96q0 -12 -9.5 -22t-23.5 -10h-76q-14 0 -23 10t-9 22l-2 954q0 12 9 22t23 10h78
q14 0 23.5 -10t9.5 -22v-58zM191 303v-170h236q35 0 60 25l10 12q12 14 13.5 29t1.5 18q0 8 0.5 15t0.5 15q0 7 0.5 14t0.5 14q0 54 -22 74.5t-50 20.5h-128zM191 447l70 37l80 45t69 43.5t37 31.5q6 9 6 26q0 15 -9.5 26t-24.5 11h-228v-220z" />
    <glyph glyph-name="trademark" unicode="&#x2122;" horiz-adv-x="786" 
d="M658 393q-19 0 -19 19v228l-81 -98q-3 -6 -7.5 -7.5t-9.5 -1.5h-31q-4 0 -8.5 1.5t-7.5 7.5l-81 98v-228q0 -19 -19 -19h-52q-19 0 -19 19v298h-73v-298q0 -19 -20 -19h-51q-18 0 -18 19v298h-103q-18 0 -18 18v50q0 19 18 19h281h3h50q1 0 6.5 -1.5t8.5 -6.5l119 -145
l119 145q3 5 8.5 6.5t6.5 1.5h50q19 0 19 -19v-366q0 -19 -19 -19h-52z" />
    <glyph glyph-name="Eth" unicode="&#xd0;" horiz-adv-x="746" 
d="M374 800q66 0 123.5 -25t101 -68t68.5 -101t25 -123v-166q0 -65 -25 -123t-68.5 -101t-101 -68t-123.5 -25h-283q-14 0 -23 9t-9 23l-2 316h-35q-13 0 -19.5 10t-6.5 22l-1 53q0 12 6.5 22t20.5 10h35v303q0 12 10 22t24 10h283zM361 380q0 -12 -9.5 -22t-23.5 -10h-137
v-215h183q38 0 71.5 14.5t59 40t40 58.5t14.5 71v166q0 37 -14.5 70.5t-40 59t-59 40t-71.5 14.5h-183v-202h137q14 0 23.5 -10t9.5 -22v-53z" />
    <glyph glyph-name="plusminus" unicode="&#xb1;" horiz-adv-x="492" 
d="M438 349q0 -12 -9.5 -22t-23.5 -10h-323q-14 0 -23 10t-9 22v63q0 12 9 22t23 10h323q14 0 23.5 -10t9.5 -22v-63zM276 575q12 0 22 -9.5t10 -23.5v-323q0 -14 -10 -23t-22 -9h-63q-12 0 -22 9t-10 23v323q0 14 10 23.5t22 9.5h63zM438 29q0 -12 -9.5 -21t-23.5 -9h-323
q-14 0 -22.5 9t-8.5 21l-1 63q0 12 9 22t23 10h323q14 0 23.5 -10t9.5 -22v-63z" />
    <glyph glyph-name="Thorn" unicode="&#xde;" horiz-adv-x="647" 
d="M58 768q0 12 9.5 22t23.5 10h68q23 0 27.5 -9t4.5 -20v-90h236q54 0 92 -19.5t60.5 -50t30 -69t1 -76.5t-26.5 -72t-53 -56l-45 -29.5t-33 -20.5l-262 -145v-104q0 -15 -4.5 -27t-27.5 -12h-68q-14 0 -22.5 10t-8.5 22zM191 548v-255l81 43.5l81 45.5q19 11 32 19.5
t20 13.5l27 20.5t16 15.5q20 32 12 64q-8 33 -40 33h-229z" />
    <glyph glyph-name="divide" unicode="&#xf7;" horiz-adv-x="492" 
d="M438 349q0 -12 -9.5 -22t-23.5 -10h-323q-14 0 -23 10t-9 22v63q0 12 9 22t23 10h323q14 0 23.5 -10t9.5 -22v-63zM311 172q0 -12 -9.5 -22t-23.5 -10h-68q-14 0 -23 10t-9 22v74q0 12 9 22t23 10h68q14 0 23.5 -10t9.5 -22v-74zM311 522q0 -12 -9.5 -22t-23.5 -10h-68
q-14 0 -23 10t-9 22v74q0 12 9 22t23 10h68q14 0 23.5 -10t9.5 -22v-74z" />
    <glyph glyph-name="brokenbar" unicode="&#xa6;" 
d="M192 452q0 -12 -9.5 -22t-23.5 -10h-68q-14 0 -23 10t-9 22v426q0 12 9 22t23 10h68q14 0 23.5 -10t9.5 -22v-426zM192 -136q0 -12 -9.5 -22t-23.5 -10h-66q-14 0 -23 10t-9 22l-2 424q0 12 9 22t23 10h68q14 0 23.5 -10t9.5 -22v-424z" />
    <glyph glyph-name="degree" unicode="&#xb0;" horiz-adv-x="258" 
d="M128 728q-26 0 -40 -16.5t-12 -39.5q-2 -25 12.5 -40.5t39.5 -15.5t39.5 15.5t16.5 40.5q-2 23 -16.5 39.5t-39.5 16.5zM128 554q-24 0 -45.5 9t-37.5 25t-25.5 37.5t-9.5 46.5q0 24 9 45.5t25 37.5t37.5 25.5t46.5 9.5q24 0 45.5 -9.5t38 -25.5t26.5 -37.5t10 -45.5
q0 -26 -10 -47.5t-26.5 -37t-38 -24.5t-45.5 -9z" />
    <glyph glyph-name="thorn" unicode="&#xfe;" horiz-adv-x="647" 
d="M58 768q0 12 9.5 22t23.5 10h68q23 0 27.5 -9t4.5 -20v-90h236q54 0 92 -19.5t60.5 -50t30 -69t1 -76.5t-26.5 -72t-53 -56l-45 -29.5t-33 -20.5l-262 -145v-104q0 -15 -4.5 -27t-27.5 -12h-68q-14 0 -22.5 10t-8.5 22zM191 548v-255l81 43.5l81 45.5q19 11 32 19.5
t20 13.5l27 20.5t16 15.5q20 32 12 64q-8 33 -40 33h-229z" />
    <glyph glyph-name="registered" unicode="&#xae;" horiz-adv-x="736" 
d="M405 590q17 0 32.5 -7t27 -18.5t18.5 -27t7 -32.5q0 -29 -14 -47t-35 -32q8 -21 15 -41.5t15 -40.5l24.5 -67l25.5 -66q7 -21 -15 -21h-38q-8 0 -11 4t-5 9l-72 190l-50 -26.5l-51 -26.5v-130q0 -8 -2.5 -14t-13.5 -6h-36q-7 0 -11.5 5t-4.5 11v368q0 6 4.5 11t11.5 5
h178zM279 524v-109l37 18l43.5 22.5t38 22.5t20.5 17v-1q3 4 3 11q0 19 -20 19h-122zM366 652q-54 0 -99.5 -19.5t-78.5 -54t-51.5 -83t-18.5 -105.5t18.5 -105.5t51.5 -83t78.5 -54t99.5 -19.5t100 19.5t79.5 54t53 83t19.5 105.5t-19.5 105.5t-53 83t-79.5 54t-100 19.5z
M366 32q-74 0 -137 27t-109.5 74.5t-73 113t-26.5 143.5t26 143.5t72.5 113t110 74.5t137.5 27t138 -27t111 -74.5t74 -113t27 -143.5t-27 -143.5t-74 -113t-111 -74.5t-138 -27z" />
    <glyph glyph-name="eth" unicode="&#xf0;" horiz-adv-x="746" 
d="M374 800q66 0 123.5 -25t101 -68t68.5 -101t25 -123v-166q0 -65 -25 -123t-68.5 -101t-101 -68t-123.5 -25h-283q-14 0 -23 9t-9 23l-2 316h-35q-13 0 -19.5 10t-6.5 22l-1 53q0 12 6.5 22t20.5 10h35v303q0 12 10 22t24 10h283zM361 380q0 -12 -9.5 -22t-23.5 -10h-137
v-215h183q38 0 71.5 14.5t59 40t40 58.5t14.5 71v166q0 37 -14.5 70.5t-40 59t-59 40t-71.5 14.5h-183v-202h137q14 0 23.5 -10t9.5 -22v-53z" />
    <glyph glyph-name="multiply" unicode="&#xd7;" horiz-adv-x="492" 
d="M129 533q8 8 21.5 9t24.5 -10l69 -69l69 69q11 11 24 9.5t22 -9.5l45 -44q8 -8 8.5 -22t-9.5 -24l-67 -69l67 -69q11 -11 10 -24t-10 -22l-44 -44q-9 -9 -22 -10t-24 10l-69 69l-69 -69q-11 -11 -24 -10t-22 10l-44 44q-9 9 -10 21.5t10 23.5l69 69l-69 70
q-10 11 -9.5 24.5t8.5 21.5z" />
    <glyph glyph-name="copyright" unicode="&#xa9;" horiz-adv-x="736" 
d="M366 652q-54 0 -99.5 -19.5t-78.5 -54t-51.5 -83t-18.5 -105.5t18.5 -105.5t51.5 -83t78.5 -54t99.5 -19.5t100 19.5t79.5 54t53 83t19.5 105.5t-19.5 105.5t-53 83t-79.5 54t-100 19.5zM366 32q-74 0 -137 27t-109.5 74.5t-73 113t-26.5 143.5t26 143.5t72.5 113
t110 74.5t137.5 27t138 -27t111 -74.5t74 -113t27 -143.5t-27 -143.5t-74 -113t-111 -74.5t-138 -27zM528 328q0 -8 -2 -15.5l-4 -15.5q-9 -24 -25 -44.5t-36.5 -36t-45 -24t-49.5 -8.5q-33 0 -62.5 13t-51.5 35t-35 51.5t-13 62.5v87q0 34 13 63.5t35 51.5t51.5 35t62.5 13
q63 0 106 -37t55 -97v-5q-2 -5 -5 -10t-11 -5h-33q-7 0 -10 3t-6 8q-4 12 -7.5 21.5t-9.5 17.5q-30 39 -79 39q-20 0 -37.5 -7.5t-31 -21t-21 -31.5t-7.5 -38v-87q0 -20 7.5 -37.5t21 -31t31 -21.5t37.5 -8q24 0 44.5 10.5t35.5 29.5q8 11 11.5 21t6.5 22l-1 -1q3 14 16 14
h33q8 0 12 -5t4 -11z" />
    <glyph glyph-name="Aacute" unicode="&#xc1;" horiz-adv-x="689" 
d="M675 32q0 -32 -32 -32h-72q-16 0 -21.5 7.5t-10.5 18.5l-91 263l-246 -109l-55 -154q-5 -12 -10 -19t-22 -7h-70q-12 0 -22.5 9t-10.5 23q0 1 10 30.5l26.5 78l37.5 111l43.5 129l45 132l41.5 119.5l32.5 92t18.5 50q5 11 11 18.5t21 7.5h88q15 0 20.5 -8t10.5 -18
l256 -730q1 -5 1 -7v-5zM400 422l-15 39.5t-8 23.5t-5 15.5t-5 15.5l-10.5 32l-13.5 40l-81 -227zM312 864q-22 0 -27 9t3 23l48 88q18 25 55 25h68q18 0 25 -8.5t-2 -22.5l-69 -87q-15 -16 -28 -21.5t-26 -5.5h-47z" />
    <glyph glyph-name="Acircumflex" unicode="&#xc2;" horiz-adv-x="689" 
d="M439 861q-18 0 -30 5.5t-29 20.5l-37 34l-38 -34q-17 -15 -29 -20.5t-30 -5.5h-65q-21 0 -26 11t11 26l94 87q13 15 27 21t29 6h52q22 0 34.5 -7.5t25.5 -19.5l93 -87q17 -15 11.5 -26t-26.5 -11h-67zM675 32q0 -32 -32 -32h-72q-16 0 -21.5 7.5t-10.5 18.5l-91 263
l-246 -109l-55 -154q-5 -12 -10 -19t-22 -7h-70q-12 0 -22.5 9t-10.5 23q0 1 10 30.5l26.5 78l37.5 111l43.5 129l45 132l41.5 119.5l32.5 92t18.5 50q5 11 11 18.5t21 7.5h88q15 0 20.5 -8t10.5 -18l256 -730q1 -5 1 -7v-5zM400 422l-15 39.5t-8 23.5l-4 15.5t-6 15.5
l-10.5 32l-13.5 40l-81 -227z" />
    <glyph glyph-name="Adieresis" unicode="&#xc4;" horiz-adv-x="689" 
d="M291 895q0 -12 -9 -21.5t-22 -9.5h-65q-14 0 -22.5 9.5t-8.5 21.5v70q0 12 8.5 21.5t22.5 9.5h65q13 0 22 -9.5t9 -21.5v-70zM519 895q0 -12 -9 -21.5t-23 -9.5h-65q-13 0 -21.5 9.5t-8.5 21.5v70q0 12 8.5 21.5t21.5 9.5h65q14 0 23 -9.5t9 -21.5v-70zM675 32
q0 -32 -32 -32h-72q-16 0 -21.5 7.5t-10.5 18.5l-91 263l-246 -109l-55 -154q-5 -12 -10 -19t-23 -7h-69q-12 0 -22.5 9t-10.5 23q0 1 10 30.5l26.5 78l37.5 111l43.5 129l45 132l41.5 119.5l32.5 92t18.5 50q5 11 11 18.5t21 7.5h88q15 0 20.5 -8t10.5 -18l256 -730
q1 -5 1 -7v-5zM400 422l-15 39.5t-8 23.5t-5 15.5t-5 15.5l-10.5 32l-13.5 40l-81 -227z" />
    <glyph glyph-name="Agrave" unicode="&#xc0;" horiz-adv-x="689" 
d="M675 32q0 -32 -32 -32h-72q-16 0 -21.5 7.5t-10.5 18.5l-91 263l-246 -109l-55 -154q-5 -12 -10 -19t-22 -7h-70q-12 0 -22.5 9t-10.5 23q0 1 10 30.5l26.5 78l37.5 111l43.5 129l45 132l41.5 119.5l32.5 92t18.5 50q5 11 11 18.5t21 7.5h88q15 0 20.5 -8t10.5 -18
l256 -730q1 -5 1 -7v-5zM400 422l-15 39.5t-8 23.5t-5 15.5t-5 15.5l-10.5 32l-13.5 40l-81 -227zM320 863q-13 0 -26 5.5t-28 21.5l-69 87q-9 14 -2 22.5t25 8.5h71q37 0 55 -25l48 -88q8 -14 3 -23t-27 -9h-50z" />
    <glyph glyph-name="Aring" unicode="&#xc5;" horiz-adv-x="689" 
d="M675 32q0 -32 -32 -32h-72q-16 0 -21.5 7.5t-10.5 18.5l-91 263l-246 -109l-55 -154q-5 -12 -10 -19t-23 -7h-69q-12 0 -22.5 9t-10.5 23q0 1 13.5 40.5l34.5 102.5l47.5 140l52.5 154l49.5 144.5l38.5 110.5l10 28l-13 12q-16 15 -24 36.5t-8 44.5t8.5 44t23.5 36.5
t34.5 24.5t42.5 9h41q22 0 41.5 -9t34.5 -25t23.5 -36.5t8.5 -43.5q0 -24 -8.5 -44.5t-23.5 -36.5q-6 -8 -13 -12l248 -708q1 -5 1 -7v-5zM400 422l-57 182l-81 -243zM350 804q14 0 24.5 11t10.5 25q0 16 -10.5 26t-24.5 10h-16q-14 0 -24.5 -10t-10.5 -26q0 -14 10.5 -25
t24.5 -11h16z" />
    <glyph glyph-name="Atilde" unicode="&#xc3;" horiz-adv-x="689" 
d="M675 32q0 -32 -32 -32h-72q-16 0 -21.5 7.5t-10.5 18.5l-91 263l-246 -109l-55 -154q-5 -12 -10 -19t-22 -7h-70q-12 0 -22.5 9t-10.5 23q0 1 10 30.5l26.5 78l37.5 111l43.5 129l45 132l41.5 119.5l32.5 92t18.5 50q5 11 11 18.5t21 7.5h88q15 0 20.5 -8t10.5 -18
l256 -730q1 -5 1 -7v-5zM400 422l-15 39.5t-8 23.5t-5 15.5t-5 15.5l-10.5 32l-13.5 40l-81 -227zM198 880q-11 5 -15 14q-9 8 0 29l22 54q5 11 16.5 15.5t26.5 -1.5q26 -10 46.5 -11t38 2.5t34 9t35.5 7t41 -2.5t51 -19q12 -5 17 -14q10 -7 0 -28l-25 -54q-7 -14 -20 -15
t-23 4q-20 13 -39 15.5t-37.5 0t-37 -8.5t-39 -9t-43.5 -1.5t-49 13.5z" />
    <glyph glyph-name="Ccedilla" unicode="&#xc7;" horiz-adv-x="755" 
d="M381 813q61 0 114.5 -20t95.5 -56t71 -85.5t41 -107.5q0 -1 -0.5 -5t-0.5 -5q-3 -10 -10 -19.5t-21 -9.5h-67q-13 0 -19.5 6t-11.5 16l-15 42t-20 36q-27 37 -68 57.5t-89 20.5q-40 0 -75.5 -15.5t-62 -42t-42 -62.5t-15.5 -76v-174q0 -41 15.5 -76.5t42 -62t62 -42
t75.5 -15.5q48 0 89 21t70 59q15 20 22.5 40.5t13.5 45.5l-1 -2q4 27 31 27h67q14 0 23 -10t9 -22q0 -15 -4 -31.5t-9 -30.5q-13 -36 -33.5 -70t-47.5 -61.5t-60 -48t-71 -30.5l-31 -7l-16 -43l10 -2t10 -3q35 -11 56.5 -39t21.5 -70q0 -27 -10.5 -51.5t-28.5 -43t-41.5 -29
t-50.5 -10.5h-48q-29 0 -53 11.5t-42 30.5q-11 14 -18 28q-6 12 -4.5 23t12.5 17l44 25q11 6 21.5 0.5t16.5 -16.5q5 -8 14.5 -14.5t21.5 -6.5h19q19 0 30 9.5t11 26.5q0 16 -11 27.5t-30 11.5h-47q-14 0 -19.5 9.5t1.5 23.5l29 79q-25 2 -48 7t-45 15q-44 19 -80.5 49
t-63 69t-41 85t-14.5 97v174q0 67 25.5 126.5t70 103.5t103.5 70t126 26z" />
    <glyph glyph-name="Eacute" unicode="&#xc9;" horiz-adv-x="664" 
d="M93 0q-14 0 -23.5 9t-9.5 23l-2 736q0 14 10 23t24 9h483q25 0 29 -12t4 -27v-55q0 -27 -7 -33t-33 -6h-375v-177h333q14 0 23 -9.5t9 -23.5v-68q0 -14 -9 -23.5t-23 -9.5h-333v-223h388q26 0 33 -6t7 -33v-54q0 -15 -4 -27.5t-29 -12.5h-495zM304 868q-22 0 -27 9t3 23
l48 88q18 25 55 25h68q18 0 25 -8.5t-2 -22.5l-69 -87q-15 -16 -28 -21.5t-26 -5.5h-47z" />
    <glyph glyph-name="Ecircumflex" unicode="&#xca;" horiz-adv-x="664" 
d="M93 0q-14 0 -23.5 9t-9.5 23l-2 736q0 14 10 23t24 9h483q25 0 29 -12t4 -27v-55q0 -27 -7 -33t-33 -6h-375v-177h333q14 0 23 -9.5t9 -23.5v-68q0 -14 -9 -23.5t-23 -9.5h-333v-223h388q26 0 33 -6t7 -33v-54q0 -15 -4 -27.5t-29 -12.5h-495zM434 865q-18 0 -30 5.5
t-29 20.5l-37 34l-38 -34q-17 -15 -29 -20.5t-30 -5.5h-65q-21 0 -26 11t11 26l94 87q13 15 27 21t29 6h52q22 0 34.5 -7.5t25.5 -19.5l93 -87q17 -15 11.5 -26t-26.5 -11h-67z" />
    <glyph glyph-name="Edieresis" unicode="&#xcb;" horiz-adv-x="664" 
d="M93 0q-14 0 -23.5 9t-9.5 23l-2 736q0 14 10 23t24 9h483q25 0 29 -12t4 -27v-55q0 -27 -7 -33t-33 -6h-375v-177h333q14 0 23 -9.5t9 -23.5v-68q0 -14 -9 -23.5t-23 -9.5h-333v-223h388q26 0 33 -6t7 -33v-54q0 -15 -4 -27.5t-29 -12.5h-495zM285 893q0 -10 -9 -18.5
t-22 -8.5h-65q-14 0 -22.5 8.5t-8.5 18.5v64q0 10 8.5 19t22.5 9h65q13 0 22 -9t9 -19v-64zM514 893q0 -10 -9 -18.5t-23 -8.5h-65q-13 0 -21.5 8.5t-8.5 18.5v64q0 10 8.5 19t21.5 9h65q14 0 23 -9t9 -19v-64z" />
    <glyph glyph-name="Egrave" unicode="&#xc8;" horiz-adv-x="664" 
d="M322 870q-13 0 -26 5.5t-28 21.5l-69 87q-9 14 -2 22.5t25 8.5h78q37 0 55 -25l48 -88q8 -14 3 -23t-27 -9h-57zM93 0q-14 0 -23.5 9t-9.5 23l-2 736q0 14 10 23t24 9h483q25 0 29 -12t4 -27v-55q0 -27 -7 -33t-33 -6h-375v-177h333q14 0 23 -9.5t9 -23.5v-68
q0 -14 -9 -23.5t-23 -9.5h-333v-223h388q26 0 33 -6t7 -33v-54q0 -15 -4 -27.5t-29 -12.5h-495z" />
    <glyph glyph-name="Iacute" unicode="&#xcd;" 
d="M192 32q0 -12 -9.5 -22t-23.5 -10h-67q-14 0 -22.5 10t-8.5 22l-2 736q0 12 9 22t23 10h68q14 0 23.5 -10t9.5 -22v-736zM98 863q-22 0 -27 9t3 23l48 88q18 25 55 25h68q18 0 25 -8.5t-2 -22.5l-69 -87q-15 -16 -28 -21.5t-26 -5.5h-47z" />
    <glyph glyph-name="Icircumflex" unicode="&#xce;" 
d="M192 32q0 -12 -9.5 -22t-23.5 -10h-67q-14 0 -22.5 10t-8.5 22l-2 736q0 12 9 22t23 10h68q14 0 23.5 -10t9.5 -22v-736zM220 860q-18 0 -30 5.5t-29 20.5l-37 34l-38 -34q-17 -15 -29 -20.5t-30 -5.5h-61q-20 0 -25 11t10 26l90 87q13 15 27 21t29 6h52q22 0 34.5 -7.5
t25.5 -19.5l93 -87q17 -15 11.5 -26t-26.5 -11h-67z" />
    <glyph glyph-name="Idieresis" unicode="&#xcf;" 
d="M192 32q0 -12 -9.5 -22t-23.5 -10h-67q-14 0 -22.5 10t-8.5 22l-2 736q0 12 9 22t23 10h68q14 0 23.5 -10t9.5 -22v-736zM74 897q0 -12 -9 -21.5t-22 -9.5h-61q-14 0 -22.5 9.5t-8.5 21.5v70q0 12 8.5 21.5t22.5 9.5h61q13 0 22 -9.5t9 -21.5v-70zM302 897
q0 -12 -9 -21.5t-23 -9.5h-65q-13 0 -21.5 9.5t-8.5 21.5v70q0 12 8.5 21.5t21.5 9.5h65q14 0 23 -9.5t9 -21.5v-70z" />
    <glyph glyph-name="Igrave" unicode="&#xcc;" 
d="M192 32q0 -12 -9.5 -22t-23.5 -10h-67q-14 0 -22.5 10t-8.5 22l-2 736q0 12 9 22t23 10h68q14 0 23.5 -10t9.5 -22v-736zM107 866q-13 0 -26 5.5t-28 21.5l-65 87q-11 14 -3.5 22.5t22.5 8.5h71q37 0 55 -25l48 -88q8 -14 3 -23t-27 -9h-50z" />
    <glyph glyph-name="Ntilde" unicode="&#xd1;" horiz-adv-x="732" 
d="M669 32q0 -12 -9.5 -22t-23.5 -10h-68q-19 0 -28 15l-87.5 130.5l-85 126l-85.5 126.5l-89 132v-498q0 -12 -9.5 -22t-23.5 -10h-68q-14 0 -22.5 10t-8.5 22l-2 736q0 12 9 22t23 10h74q18 0 27 -16v1l343 -516v499q0 12 9.5 22t23.5 10h68q14 0 23.5 -10t9.5 -22v-736z
M217 873q-11 5 -15 14q-9 8 0 29l22 54q5 11 16.5 15.5t26.5 -1.5q26 -10 46.5 -11t38 2.5t34 9t35.5 7t41 -2.5t51 -19q12 -5 17 -14q10 -7 0 -28l-25 -54q-7 -14 -20 -15t-23 4q-20 13 -39 15.5t-37.5 0t-37 -8.5t-39 -9t-43.5 -1.5t-49 13.5z" />
    <glyph glyph-name="Oacute" unicode="&#xd3;" horiz-adv-x="795" 
d="M745 323q0 -69 -27.5 -129.5t-75 -105.5t-111 -71t-135.5 -26t-135.5 26t-111.5 71t-75.5 105.5t-27.5 129.5v157q0 69 28 129.5t75.5 105t111.5 70.5t136 26t135.5 -26t111 -70.5t74.5 -105t27 -129.5v-157zM610 480q0 42 -17 79t-46 65t-68 44t-83 16t-83.5 -16.5
t-68.5 -44t-46 -64.5t-17 -79v-157q0 -42 17 -79t46 -65t68.5 -44t83.5 -16t83 16t68 44t46 65t17 79v157zM362 870q-22 0 -27 9t3 23l48 88q18 25 55 25h68q18 0 25 -8.5t-2 -22.5l-69 -87q-15 -16 -28 -21.5t-26 -5.5h-47z" />
    <glyph glyph-name="Ocircumflex" unicode="&#xd4;" horiz-adv-x="795" 
d="M745 323q0 -69 -27.5 -129.5t-75 -105.5t-111 -71t-135.5 -26t-135.5 26t-111.5 71t-75.5 105.5t-27.5 129.5v157q0 69 28 129.5t75.5 105t111.5 70.5t136 26t135.5 -26t111 -70.5t74.5 -105t27 -129.5v-157zM610 480q0 42 -17 79t-46 65t-68 44t-83 16t-83.5 -16.5
t-68.5 -44t-46 -64.5t-17 -79v-157q0 -42 17 -79t46 -65t68.5 -44t83.5 -16t83 16t68 44t46 65t17 79v157zM489 864q-18 0 -30 5.5t-29 20.5l-37 34l-38 -34q-17 -15 -29 -20.5t-30 -5.5h-65q-21 0 -26 11t11 26l94 87q13 15 27 21t29 6h52q22 0 34.5 -7.5t25.5 -19.5
l93 -87q17 -15 11.5 -26t-26.5 -11h-67z" />
    <glyph glyph-name="Odieresis" unicode="&#xd6;" horiz-adv-x="795" 
d="M745 323q0 -69 -27.5 -129.5t-75 -105.5t-111 -71t-135.5 -26t-135.5 26t-111.5 71t-75.5 105.5t-27.5 129.5v157q0 69 28 129.5t75.5 105t111.5 70.5t136 26t135.5 -26t111 -70.5t74.5 -105t27 -129.5v-157zM610 480q0 42 -17 79t-46 65t-68 44t-83 16t-83.5 -16.5
t-68.5 -44t-46 -64.5t-17 -79v-157q0 -42 17 -79t46 -65t68.5 -44t83.5 -16t83 16t68 44t46 65t17 79v157zM343 899q0 -12 -9 -21t-23 -9h-66q-14 0 -22.5 9t-8.5 21v67q0 11 8.5 20t22.5 9h66q14 0 23 -9t9 -20v-67zM575 899q0 -12 -9 -21t-24 -9h-66q-13 0 -21.5 9
t-8.5 21v67q0 11 8.5 20t21.5 9h66q15 0 24 -9t9 -20v-67z" />
    <glyph glyph-name="Ograve" unicode="&#xd2;" horiz-adv-x="795" 
d="M745 323q0 -69 -27.5 -129.5t-75 -105.5t-111 -71t-135.5 -26t-135.5 26t-111.5 71t-75.5 105.5t-27.5 129.5v157q0 69 28 129.5t75.5 105t111.5 70.5t136 26t135.5 -26t111 -70.5t74.5 -105t27 -129.5v-157zM610 480q0 42 -17 79t-46 65t-68 44t-83 16t-83.5 -16.5
t-68.5 -44t-46 -64.5t-17 -79v-157q0 -42 17 -79t46 -65t68.5 -44t83.5 -16t83 16t68 44t46 65t17 79v157zM381 870q-13 0 -26 5.5t-28 21.5l-69 87q-9 14 -2 22.5t25 8.5h71q37 0 55 -25l48 -88q8 -14 3 -23t-27 -9h-50z" />
    <glyph glyph-name="Otilde" unicode="&#xd5;" horiz-adv-x="795" 
d="M745 323q0 -69 -27.5 -129.5t-75 -105.5t-111 -71t-135.5 -26t-135.5 26t-111.5 71t-75.5 105.5t-27.5 129.5v157q0 69 28 129.5t75.5 105t111.5 70.5t136 26t135.5 -26t111 -70.5t74.5 -105t27 -129.5v-157zM610 480q0 42 -17 79t-46 65t-68 44t-83 16t-83.5 -16.5
t-68.5 -44t-46 -64.5t-17 -79v-157q0 -42 17 -79t46 -65t68.5 -44t83.5 -16t83 16t68 44t46 65t17 79v157zM250 888q-11 5 -15 14q-9 8 0 29l22 54q5 11 16.5 15.5t26.5 -1.5q26 -10 46.5 -11t38 2.5t34 9t35.5 7t41 -2.5t51 -19q12 -5 17 -14q10 -7 0 -28l-25 -54
q-7 -14 -20 -15t-23 4q-30 21 -57 18t-56 -10.5t-61 -11.5t-71 14z" />
    <glyph glyph-name="Scaron" unicode="&#x160;" horiz-adv-x="668" 
d="M623 248q0 -29 -5.5 -58t-15.5 -55.5t-24 -49t-31 -37.5q-34 -30 -80.5 -43.5t-100.5 -13.5h-76q-66 0 -120.5 30.5t-86.5 82.5q-21 35 -27 65q-6 31 -7 47.5t-1 33.5v-2q0 15 4 27t27 12h68q24 0 30 -24q3 -10 3 -15v-17q0 -4 0.5 -10.5t1.5 -16.5q8 -37 38.5 -61
t69.5 -24h76q45 0 79.5 23t41.5 63q1 5 1.5 10t0.5 10t0.5 12.5t-1 15.5t-5 16t-9.5 14q-21 18 -64 28l-97 23q-48 11 -95.5 25t-85.5 36.5t-61.5 56.5t-23.5 84v14q0 16 0.5 32.5t5.5 36.5l-1 -1q8 42 30 77t54 60.5t71.5 40t82.5 14.5h76q45 0 86.5 -15.5t75.5 -42.5
t53 -75.5t17 -106.5q-1 -15 -5 -27t-27 -12h-66q-14 0 -22.5 10t-9.5 22q-2 64 -28 90.5t-74 26.5h-76q-19 0 -37 -6.5t-32.5 -18.5t-25 -28t-14.5 -35v1q-2 -13 -2.5 -33t18.5 -39q20 -20 43 -26l115 -32l77 -21.5t51 -15.5q20 -7 37.5 -15.5t32.5 -18.5q31 -21 50.5 -57
t19.5 -87zM240 1018q18 0 30 -5.5t29 -20.5l37 -34l38 34q17 15 29 20.5t30 5.5h65q21 0 26 -11t-11 -26l-94 -87q-13 -15 -27 -21t-29 -6h-52q-22 0 -34.5 7.5t-25.5 19.5l-93 87q-17 15 -11.5 26t26.5 11h67z" />
    <glyph glyph-name="Uacute" unicode="&#xda;" horiz-adv-x="700" 
d="M637 254q0 -53 -20.5 -99t-56 -80.5t-82.5 -54.5t-99 -20h-77q-50 0 -94 18.5t-77 51t-52.5 76.5t-19.5 95v527q0 32 32 32h67q23 0 27.5 -12t4.5 -27v-520q0 -23 9 -43t24.5 -35t35.5 -23.5t43 -8.5h77q26 0 49 9.5t40 26.5t27 39t10 48v507q0 15 5 27t28 12h66
q33 0 33 -32v-514zM319 862q-22 0 -27 9t3 23l48 88q18 25 55 25h68q18 0 25 -8.5t-2 -22.5l-69 -87q-15 -16 -28 -21.5t-26 -5.5h-47z" />
    <glyph glyph-name="Ucircumflex" unicode="&#xdb;" horiz-adv-x="700" 
d="M637 254q0 -53 -20.5 -99t-56 -80.5t-82.5 -54.5t-99 -20h-77q-50 0 -94 18.5t-77 51t-52 76.5t-19 95l-1 527q0 32 32 32h67q23 0 27.5 -12t4.5 -27v-520q0 -23 9 -43t24.5 -35t35.5 -23.5t43 -8.5h77q26 0 49 9.5t40 26.5t27 39t10 48v507q0 15 5 27t28 12h66
q33 0 33 -32v-514zM439 868q-18 0 -30 5.5t-29 20.5l-37 34l-38 -34q-17 -15 -29 -20.5t-30 -5.5h-65q-21 0 -26 11t11 26l94 87q13 15 27 21t29 6h52q22 0 34.5 -7.5t25.5 -19.5l93 -87q17 -15 11.5 -26t-26.5 -11h-67z" />
    <glyph glyph-name="Udieresis" unicode="&#xdc;" horiz-adv-x="700" 
d="M637 254q0 -53 -20.5 -99t-56 -80.5t-82.5 -54.5t-99 -20h-77q-50 0 -94 18.5t-77 51t-52.5 76.5t-19.5 95v527q0 32 32 32h67q23 0 27.5 -12t4.5 -27v-520q0 -23 9 -43t24.5 -35t35.5 -23.5t43 -8.5h77q26 0 49 9.5t40 26.5t27 39t10 48v507q0 15 5 27t28 12h66
q33 0 33 -32v-514zM296 894q0 -11 -9 -19.5t-22 -8.5h-65q-14 0 -22.5 8.5t-8.5 19.5v63q0 11 8.5 20t22.5 9h65q13 0 22 -9t9 -20v-63zM525 894q0 -11 -9 -19.5t-23 -8.5h-65q-13 0 -21.5 8.5t-8.5 19.5v63q0 11 8.5 20t21.5 9h65q14 0 23 -9t9 -20v-63z" />
    <glyph glyph-name="Ugrave" unicode="&#xd9;" horiz-adv-x="700" 
d="M637 254q0 -53 -20.5 -99t-56 -80.5t-82.5 -54.5t-99 -20h-77q-50 0 -94 18.5t-77 51t-52.5 76.5t-19.5 95v527q0 32 32 32h67q23 0 27.5 -12t4.5 -27v-520q0 -23 9 -43t24.5 -35t35.5 -23.5t43 -8.5h77q26 0 49 9.5t40 26.5t27 39t10 48v507q0 15 5 27t28 12h66
q33 0 33 -32v-514zM342 862q-13 0 -26 5.5t-28 21.5l-69 87q-9 14 -2 22.5t25 8.5h71q37 0 55 -25l48 -88q8 -14 3 -23t-27 -9h-50z" />
    <glyph glyph-name="Yacute" unicode="&#xdd;" horiz-adv-x="696" 
d="M535 787q10 13 27 13h90q32 0 32 -32q0 -8 -4 -15t-8 -12q0 -1 -0.5 -1t-0.5 -1l-1 -1l-257 -367v-332q0 -15 -4 -27t-29 -12h-68q-23 0 -27.5 12t-4.5 27v334l-264 377q-3 5 -3.5 9t-0.5 10q0 31 31 31h89q18 0 29 -15l187 -277l125 190.5t64 90.5zM312 860q-22 0 -27 9
t3 23l48 88q18 25 55 25h68q18 0 25 -8.5t-2 -22.5l-69 -87q-15 -16 -28 -21.5t-26 -5.5h-47z" />
    <glyph glyph-name="Ydieresis" unicode="&#x178;" horiz-adv-x="696" 
d="M535 787q10 13 27 13h90q32 0 32 -32q0 -8 -4 -15t-8 -12q0 -1 -0.5 -1t-0.5 -1l-1 -1l-257 -367v-332q0 -15 -4 -27t-29 -12h-68q-23 0 -27.5 12t-4.5 27v334l-264 377q-3 5 -3.5 9t-0.5 10q0 31 31 31h89q18 0 29 -15l187 -277l125 190.5t64 90.5zM297 892
q0 -12 -9 -21.5t-22 -9.5h-65q-14 0 -22.5 9.5t-8.5 21.5v70q0 12 8.5 21.5t22.5 9.5h65q13 0 22 -9.5t9 -21.5v-70zM525 892q0 -12 -9 -21.5t-23 -9.5h-65q-13 0 -21.5 9.5t-8.5 21.5v70q0 12 8.5 21.5t21.5 9.5h65q14 0 23 -9.5t9 -21.5v-70z" />
    <glyph glyph-name="Zcaron" unicode="&#x17d;" horiz-adv-x="654" 
d="M53 0q-23 0 -28 12.5t-5 27.5v43q0 8 2.5 14t6.5 11l409 557h-357q-26 0 -33 7t-7 33v56q0 15 4 27t30 12h509q14 0 23 -10t9 -22v-63q0 -5 -1.5 -11t-6.5 -11l-397 -548h379q26 0 32.5 -7t6.5 -33v-55q0 -15 -5 -27.5t-28 -12.5h-543zM237 1019q18 0 30 -5.5t29 -20.5
l37 -34l38 34q17 15 29 20.5t30 5.5h65q21 0 26 -11t-11 -26l-94 -87q-13 -15 -27 -21t-29 -6h-52q-22 0 -34.5 7.5t-25.5 19.5l-93 87q-17 15 -11.5 26t26.5 11h67z" />
    <glyph glyph-name="aacute" unicode="&#xe1;" horiz-adv-x="689" 
d="M675 32q0 -32 -32 -32h-72q-16 0 -21.5 7.5t-10.5 18.5l-91 263l-246 -109l-55 -154q-5 -12 -10 -19t-22 -7h-70q-12 0 -22.5 9t-10.5 23q0 1 10 30.5l26.5 78l37.5 111l43.5 129l45 132l41.5 119.5l32.5 92t18.5 50q5 11 11 18.5t21 7.5h88q15 0 20.5 -8t10.5 -18
l256 -730q1 -5 1 -7v-5zM400 422l-15 39.5t-8 23.5t-5 15.5t-5 15.5l-10.5 32l-13.5 40l-81 -227zM327 866q-22 0 -27 9t3 23l48 88q18 25 55 25h68q18 0 25 -8.5t-2 -22.5l-69 -87q-15 -16 -28 -21.5t-26 -5.5h-47z" />
    <glyph glyph-name="acircumflex" unicode="&#xe2;" horiz-adv-x="689" 
d="M439 861q-18 0 -30 5.5t-29 20.5l-37 34l-38 -34q-17 -15 -29 -20.5t-30 -5.5h-65q-21 0 -26 11t11 26l94 87q13 15 27 21t29 6h52q22 0 34.5 -7.5t25.5 -19.5l93 -87q17 -15 11.5 -26t-26.5 -11h-67zM675 32q0 -32 -32 -32h-72q-16 0 -21.5 7.5t-10.5 18.5l-91 263
l-246 -109l-55 -154q-5 -12 -10 -19t-22 -7h-70q-12 0 -22.5 9t-10.5 23q0 1 10 30.5l26.5 78l37.5 111l43.5 129l45 132l41.5 119.5l32.5 92t18.5 50q5 11 11 18.5t21 7.5h88q15 0 20.5 -8t10.5 -18l256 -730q1 -5 1 -7v-5zM400 422l-15 39.5t-8 23.5l-4 15.5t-6 15.5
l-10.5 32l-13.5 40l-81 -227z" />
    <glyph glyph-name="adieresis" unicode="&#xe4;" horiz-adv-x="689" 
d="M291 895q0 -12 -9 -21.5t-22 -9.5h-65q-14 0 -22.5 9.5t-8.5 21.5v70q0 12 8.5 21.5t22.5 9.5h65q13 0 22 -9.5t9 -21.5v-70zM519 895q0 -12 -9 -21.5t-23 -9.5h-65q-13 0 -21.5 9.5t-8.5 21.5v70q0 12 8.5 21.5t21.5 9.5h65q14 0 23 -9.5t9 -21.5v-70zM675 32
q0 -32 -32 -32h-72q-16 0 -21.5 7.5t-10.5 18.5l-91 263l-246 -109l-55 -154q-5 -12 -10 -19t-23 -7h-69q-12 0 -22.5 9t-10.5 23q0 1 10 30.5l26.5 78l37.5 111l43.5 129l45 132l41.5 119.5l32.5 92t18.5 50q5 11 11 18.5t21 7.5h88q15 0 20.5 -8t10.5 -18l256 -730
q1 -5 1 -7v-5zM400 422l-15 39.5t-8 23.5t-5 15.5t-5 15.5l-10.5 32l-13.5 40l-81 -227z" />
    <glyph glyph-name="agrave" unicode="&#xe0;" horiz-adv-x="689" 
d="M675 32q0 -32 -32 -32h-72q-16 0 -21.5 7.5t-10.5 18.5l-91 263l-246 -109l-55 -154q-5 -12 -10 -19t-22 -7h-70q-12 0 -22.5 9t-10.5 23q0 1 10 30.5l26.5 78l37.5 111l43.5 129l45 132l41.5 119.5l32.5 92t18.5 50q5 11 11 18.5t21 7.5h88q15 0 20.5 -8t10.5 -18
l256 -730q1 -5 1 -7v-5zM400 422l-15 39.5t-8 23.5t-5 15.5t-5 15.5l-10.5 32l-13.5 40l-81 -227zM326 862q-13 0 -26 5.5t-28 21.5l-69 87q-9 14 -2 22.5t25 8.5h71q37 0 55 -25l48 -88q8 -14 3 -23t-27 -9h-50z" />
    <glyph glyph-name="aring" unicode="&#xe5;" horiz-adv-x="689" 
d="M675 32q0 -32 -32 -32h-72q-16 0 -21.5 7.5t-10.5 18.5l-91 263l-246 -109l-55 -154q-5 -12 -10 -19t-23 -7h-69q-12 0 -22.5 9t-10.5 23q0 1 13.5 40.5l34.5 102.5l47.5 140l52.5 154l49.5 144.5l38.5 110.5l10 28l-13 12q-16 15 -24 36.5t-8 44.5t8.5 44t23.5 36.5
t34.5 24.5t42.5 9h41q22 0 41.5 -9t34.5 -25t23.5 -36.5t8.5 -43.5q0 -24 -8.5 -44.5t-23.5 -36.5q-6 -8 -13 -12l248 -708q1 -5 1 -7v-5zM400 422l-57 182l-81 -243zM350 804q14 0 24.5 11t10.5 25q0 16 -10.5 26t-24.5 10h-16q-14 0 -24.5 -10t-10.5 -26q0 -14 10.5 -25
t24.5 -11h16z" />
    <glyph glyph-name="atilde" unicode="&#xe3;" horiz-adv-x="689" 
d="M675 32q0 -32 -32 -32h-72q-16 0 -21.5 7.5t-10.5 18.5l-91 263l-246 -109l-55 -154q-5 -12 -10 -19t-22 -7h-70q-12 0 -22.5 9t-10.5 23q0 1 10 30.5l26.5 78l37.5 111l43.5 129l45 132l41.5 119.5l32.5 92t18.5 50q5 11 11 18.5t21 7.5h88q15 0 20.5 -8t10.5 -18
l256 -730q1 -5 1 -7v-5zM400 422l-15 39.5t-8 23.5t-5 15.5t-5 15.5l-10.5 32l-13.5 40l-81 -227zM198 880q-11 5 -15 14q-9 8 0 29l22 54q5 11 16.5 15.5t26.5 -1.5q26 -10 46.5 -11t38 2.5t34 9t35.5 7t41 -2.5t51 -19q12 -5 17 -14q10 -7 0 -28l-25 -54q-7 -14 -20 -15
t-23 4q-20 13 -39 15.5t-37.5 0t-37 -8.5t-39 -9t-43.5 -1.5t-49 13.5z" />
    <glyph glyph-name="ccedilla" unicode="&#xe7;" horiz-adv-x="755" 
d="M381 813q61 0 114.5 -20t95.5 -56t71 -85.5t41 -107.5q0 -1 -0.5 -5t-0.5 -5q-3 -10 -10 -19.5t-21 -9.5h-67q-13 0 -19.5 6t-11.5 16l-15 42t-20 36q-27 37 -68 57.5t-89 20.5q-40 0 -75.5 -15.5t-62 -42t-42 -62.5t-15.5 -76v-174q0 -41 15.5 -76.5t42 -62t62 -42
t75.5 -15.5q48 0 89 21t70 59q15 20 22.5 40.5t13.5 45.5l-1 -2q4 27 31 27h67q14 0 23 -10t9 -22q0 -15 -4 -31.5t-9 -30.5q-13 -36 -33.5 -70t-47.5 -61.5t-60 -48t-71 -30.5l-31 -7l-16 -43l10 -2t10 -3q35 -11 56.5 -39t21.5 -70q0 -27 -10.5 -51.5t-28.5 -43t-41.5 -29
t-50.5 -10.5h-48q-29 0 -53 11.5t-42 30.5q-11 14 -18 28q-6 12 -4.5 23t12.5 17l44 25q11 6 21.5 0.5t16.5 -16.5q5 -8 14.5 -14.5t21.5 -6.5h19q19 0 30 9.5t11 26.5q0 16 -11 27.5t-30 11.5h-47q-14 0 -19.5 9.5t1.5 23.5l29 79q-25 2 -48 7t-45 15q-44 19 -80.5 49
t-63 69t-41 85t-14.5 97v174q0 67 25.5 126.5t70 103.5t103.5 70t126 26z" />
    <glyph glyph-name="eacute" unicode="&#xe9;" horiz-adv-x="664" 
d="M93 0q-14 0 -23.5 9t-9.5 23l-2 736q0 14 10 23t24 9h483q25 0 29 -12t4 -27v-55q0 -27 -7 -33t-33 -6h-375v-177h333q14 0 23 -9.5t9 -23.5v-68q0 -14 -9 -23.5t-23 -9.5h-333v-223h388q26 0 33 -6t7 -33v-54q0 -15 -4 -27.5t-29 -12.5h-495zM304 868q-22 0 -27 9t3 23
l48 88q18 25 55 25h68q18 0 25 -8.5t-2 -22.5l-69 -87q-15 -16 -28 -21.5t-26 -5.5h-47z" />
    <glyph glyph-name="ecircumflex" unicode="&#xea;" horiz-adv-x="664" 
d="M93 0q-14 0 -23.5 9t-9.5 23l-2 736q0 14 10 23t24 9h483q25 0 29 -12t4 -27v-55q0 -27 -7 -33t-33 -6h-375v-177h333q14 0 23 -9.5t9 -23.5v-68q0 -14 -9 -23.5t-23 -9.5h-333v-223h388q26 0 33 -6t7 -33v-54q0 -15 -4 -27.5t-29 -12.5h-495zM434 865q-18 0 -30 5.5
t-29 20.5l-37 34l-38 -34q-17 -15 -29 -20.5t-30 -5.5h-65q-21 0 -26 11t11 26l94 87q13 15 27 21t29 6h52q22 0 34.5 -7.5t25.5 -19.5l93 -87q17 -15 11.5 -26t-26.5 -11h-67z" />
    <glyph glyph-name="edieresis" unicode="&#xeb;" horiz-adv-x="664" 
d="M93 0q-14 0 -23.5 9t-9.5 23l-2 736q0 14 10 23t24 9h483q25 0 29 -12t4 -27v-55q0 -27 -7 -33t-33 -6h-375v-177h333q14 0 23 -9.5t9 -23.5v-68q0 -14 -9 -23.5t-23 -9.5h-333v-223h388q26 0 33 -6t7 -33v-54q0 -15 -4 -27.5t-29 -12.5h-495zM285 893q0 -10 -9 -18.5
t-22 -8.5h-65q-14 0 -22.5 8.5t-8.5 18.5v64q0 10 8.5 19t22.5 9h65q13 0 22 -9t9 -19v-64zM514 893q0 -10 -9 -18.5t-23 -8.5h-65q-13 0 -21.5 8.5t-8.5 18.5v64q0 10 8.5 19t21.5 9h65q14 0 23 -9t9 -19v-64z" />
    <glyph glyph-name="egrave" unicode="&#xe8;" horiz-adv-x="664" 
d="M322 870q-13 0 -26 5.5t-28 21.5l-69 87q-9 14 -2 22.5t25 8.5h78q37 0 55 -25l48 -88q8 -14 3 -23t-27 -9h-57zM93 0q-14 0 -23.5 9t-9.5 23l-2 736q0 14 10 23t24 9h483q25 0 29 -12t4 -27v-55q0 -27 -7 -33t-33 -6h-375v-177h333q14 0 23 -9.5t9 -23.5v-68
q0 -14 -9 -23.5t-23 -9.5h-333v-223h388q26 0 33 -6t7 -33v-54q0 -15 -4 -27.5t-29 -12.5h-495z" />
    <glyph glyph-name="iacute" unicode="&#xed;" 
d="M192 32q0 -12 -9.5 -22t-23.5 -10h-67q-14 0 -22.5 10t-8.5 22l-2 736q0 12 9 22t23 10h68q14 0 23.5 -10t9.5 -22v-736zM98 863q-22 0 -27 9t3 23l48 88q18 25 55 25h68q18 0 25 -8.5t-2 -22.5l-69 -87q-15 -16 -28 -21.5t-26 -5.5h-47z" />
    <glyph glyph-name="icircumflex" unicode="&#xee;" 
d="M192 32q0 -12 -9.5 -22t-23.5 -10h-67q-14 0 -22.5 10t-8.5 22l-2 736q0 12 9 22t23 10h68q14 0 23.5 -10t9.5 -22v-736zM220 860q-18 0 -30 5.5t-29 20.5l-37 34l-38 -34q-17 -15 -29 -20.5t-30 -5.5h-61q-20 0 -25 11t10 26l90 87q13 15 27 21t29 6h52q22 0 34.5 -7.5
t25.5 -19.5l93 -87q17 -15 11.5 -26t-26.5 -11h-67z" />
    <glyph glyph-name="idieresis" unicode="&#xef;" 
d="M192 32q0 -12 -9.5 -22t-23.5 -10h-67q-14 0 -22.5 10t-8.5 22l-2 736q0 12 9 22t23 10h68q14 0 23.5 -10t9.5 -22v-736zM74 897q0 -12 -9 -21.5t-22 -9.5h-61q-14 0 -22.5 9.5t-8.5 21.5v70q0 12 8.5 21.5t22.5 9.5h61q13 0 22 -9.5t9 -21.5v-70zM302 897
q0 -12 -9 -21.5t-23 -9.5h-65q-13 0 -21.5 9.5t-8.5 21.5v70q0 12 8.5 21.5t21.5 9.5h65q14 0 23 -9.5t9 -21.5v-70z" />
    <glyph glyph-name="igrave" unicode="&#xec;" 
d="M192 32q0 -12 -9.5 -22t-23.5 -10h-67q-14 0 -22.5 10t-8.5 22l-2 736q0 12 9 22t23 10h68q14 0 23.5 -10t9.5 -22v-736zM107 866q-13 0 -26 5.5t-28 21.5l-65 87q-11 14 -3.5 22.5t22.5 8.5h71q37 0 55 -25l48 -88q8 -14 3 -23t-27 -9h-50z" />
    <glyph glyph-name="ntilde" unicode="&#xf1;" horiz-adv-x="732" 
d="M669 32q0 -12 -9.5 -22t-23.5 -10h-68q-19 0 -28 15l-87.5 130.5l-85 126l-85.5 126.5l-89 132v-498q0 -12 -9.5 -22t-23.5 -10h-68q-14 0 -22.5 10t-8.5 22l-2 736q0 12 9 22t23 10h74q18 0 27 -16v1l343 -516v499q0 12 9.5 22t23.5 10h68q14 0 23.5 -10t9.5 -22v-736z
M217 873q-11 5 -15 14q-9 8 0 29l22 54q5 11 16.5 15.5t26.5 -1.5q26 -10 46.5 -11t38 2.5t34 9t35.5 7t41 -2.5t51 -19q12 -5 17 -14q10 -7 0 -28l-25 -54q-7 -14 -20 -15t-23 4q-20 13 -39 15.5t-37.5 0t-37 -8.5t-39 -9t-43.5 -1.5t-49 13.5z" />
    <glyph glyph-name="oacute" unicode="&#xf3;" horiz-adv-x="795" 
d="M745 323q0 -69 -27.5 -129.5t-75 -105.5t-111 -71t-135.5 -26t-135.5 26t-111.5 71t-75.5 105.5t-27.5 129.5v157q0 69 28 129.5t75.5 105t111.5 70.5t136 26t135.5 -26t111 -70.5t74.5 -105t27 -129.5v-157zM610 480q0 42 -17 79t-46 65t-68 44t-83 16t-83.5 -16.5
t-68.5 -44t-46 -64.5t-17 -79v-157q0 -42 17 -79t46 -65t68.5 -44t83.5 -16t83 16t68 44t46 65t17 79v157zM362 870q-22 0 -27 9t3 23l48 88q18 25 55 25h68q18 0 25 -8.5t-2 -22.5l-69 -87q-15 -16 -28 -21.5t-26 -5.5h-47z" />
    <glyph glyph-name="ocircumflex" unicode="&#xf4;" horiz-adv-x="795" 
d="M745 323q0 -69 -27.5 -129.5t-75 -105.5t-111 -71t-135.5 -26t-135.5 26t-111.5 71t-75.5 105.5t-27.5 129.5v157q0 69 28 129.5t75.5 105t111.5 70.5t136 26t135.5 -26t111 -70.5t74.5 -105t27 -129.5v-157zM610 480q0 42 -17 79t-46 65t-68 44t-83 16t-83.5 -16.5
t-68.5 -44t-46 -64.5t-17 -79v-157q0 -42 17 -79t46 -65t68.5 -44t83.5 -16t83 16t68 44t46 65t17 79v157zM489 864q-18 0 -30 5.5t-29 20.5l-37 34l-38 -34q-17 -15 -29 -20.5t-30 -5.5h-65q-21 0 -26 11t11 26l94 87q13 15 27 21t29 6h52q22 0 34.5 -7.5t25.5 -19.5
l93 -87q17 -15 11.5 -26t-26.5 -11h-67z" />
    <glyph glyph-name="odieresis" unicode="&#xf6;" horiz-adv-x="795" 
d="M745 323q0 -69 -27.5 -129.5t-75 -105.5t-111 -71t-135.5 -26t-135.5 26t-111.5 71t-75.5 105.5t-27.5 129.5v157q0 69 28 129.5t75.5 105t111.5 70.5t136 26t135.5 -26t111 -70.5t74.5 -105t27 -129.5v-157zM610 480q0 42 -17 79t-46 65t-68 44t-83 16t-83.5 -16.5
t-68.5 -44t-46 -64.5t-17 -79v-157q0 -42 17 -79t46 -65t68.5 -44t83.5 -16t83 16t68 44t46 65t17 79v157zM343 899q0 -12 -9 -21t-23 -9h-66q-14 0 -22.5 9t-8.5 21v67q0 11 8.5 20t22.5 9h66q14 0 23 -9t9 -20v-67zM575 899q0 -12 -9 -21t-24 -9h-66q-13 0 -21.5 9
t-8.5 21v67q0 11 8.5 20t21.5 9h66q15 0 24 -9t9 -20v-67z" />
    <glyph glyph-name="ograve" unicode="&#xf2;" horiz-adv-x="795" 
d="M745 323q0 -69 -27.5 -129.5t-75 -105.5t-111 -71t-135.5 -26t-135.5 26t-111.5 71t-75.5 105.5t-27.5 129.5v157q0 69 28 129.5t75.5 105t111.5 70.5t136 26t135.5 -26t111 -70.5t74.5 -105t27 -129.5v-157zM610 480q0 42 -17 79t-46 65t-68 44t-83 16t-83.5 -16.5
t-68.5 -44t-46 -64.5t-17 -79v-157q0 -42 17 -79t46 -65t68.5 -44t83.5 -16t83 16t68 44t46 65t17 79v157zM381 870q-13 0 -26 5.5t-28 21.5l-69 87q-9 14 -2 22.5t25 8.5h71q37 0 55 -25l48 -88q8 -14 3 -23t-27 -9h-50z" />
    <glyph glyph-name="otilde" unicode="&#xf5;" horiz-adv-x="795" 
d="M745 323q0 -69 -27.5 -129.5t-75 -105.5t-111 -71t-135.5 -26t-135.5 26t-111.5 71t-75.5 105.5t-27.5 129.5v157q0 69 28 129.5t75.5 105t111.5 70.5t136 26t135.5 -26t111 -70.5t74.5 -105t27 -129.5v-157zM610 480q0 42 -17 79t-46 65t-68 44t-83 16t-83.5 -16.5
t-68.5 -44t-46 -64.5t-17 -79v-157q0 -42 17 -79t46 -65t68.5 -44t83.5 -16t83 16t68 44t46 65t17 79v157zM250 888q-11 5 -15 14q-9 8 0 29l22 54q5 11 16.5 15.5t26.5 -1.5q26 -10 46.5 -11t38 2.5t34 9t35.5 7t41 -2.5t51 -19q12 -5 17 -14q10 -7 0 -28l-25 -54
q-7 -14 -20 -15t-23 4q-30 21 -57 18t-56 -10.5t-61 -11.5t-71 14z" />
    <glyph glyph-name="scaron" unicode="&#x161;" horiz-adv-x="668" 
d="M623 248q0 -29 -5.5 -58t-15.5 -55.5t-24 -49t-31 -37.5q-34 -30 -80.5 -43.5t-100.5 -13.5h-76q-66 0 -120.5 30.5t-86.5 82.5q-21 35 -27 65q-6 31 -7 47.5t-1 33.5v-2q0 15 4 27t27 12h68q24 0 30 -24q3 -10 3 -15v-17q0 -4 0.5 -10.5t1.5 -16.5q8 -37 38.5 -61
t69.5 -24h76q45 0 79.5 23t41.5 63q1 5 1.5 10t0.5 10t0.5 12.5t-1 15.5t-5 16t-9.5 14q-21 18 -64 28l-97 23q-48 11 -95.5 25t-85.5 36.5t-61.5 56.5t-23.5 84v14q0 16 0.5 32.5t5.5 36.5l-1 -1q8 42 30 77t54 60.5t71.5 40t82.5 14.5h76q45 0 86.5 -15.5t75.5 -42.5
t53 -75.5t17 -106.5q-1 -15 -5 -27t-27 -12h-66q-14 0 -22.5 10t-9.5 22q-2 64 -28 90.5t-74 26.5h-76q-19 0 -37 -6.5t-32.5 -18.5t-25 -28t-14.5 -35v1q-2 -13 -2.5 -33t18.5 -39q20 -20 43 -26l115 -32l77 -21.5t51 -15.5q20 -7 37.5 -15.5t32.5 -18.5q31 -21 50.5 -57
t19.5 -87zM240 1018q18 0 30 -5.5t29 -20.5l37 -34l38 34q17 15 29 20.5t30 5.5h65q21 0 26 -11t-11 -26l-94 -87q-13 -15 -27 -21t-29 -6h-52q-22 0 -34.5 7.5t-25.5 19.5l-93 87q-17 15 -11.5 26t26.5 11h67z" />
    <glyph glyph-name="uacute" unicode="&#xfa;" horiz-adv-x="700" 
d="M637 254q0 -53 -20.5 -99t-56 -80.5t-82.5 -54.5t-99 -20h-77q-50 0 -94 18.5t-77 51t-52.5 76.5t-19.5 95v527q0 32 32 32h67q23 0 27.5 -12t4.5 -27v-520q0 -23 9 -43t24.5 -35t35.5 -23.5t43 -8.5h77q26 0 49 9.5t40 26.5t27 39t10 48v507q0 15 5 27t28 12h66
q33 0 33 -32v-514zM319 862q-22 0 -27 9t3 23l48 88q18 25 55 25h68q18 0 25 -8.5t-2 -22.5l-69 -87q-15 -16 -28 -21.5t-26 -5.5h-47z" />
    <glyph glyph-name="ucircumflex" unicode="&#xfb;" horiz-adv-x="700" 
d="M637 254q0 -53 -20.5 -99t-56 -80.5t-82.5 -54.5t-99 -20h-77q-50 0 -94 18.5t-77 51t-52 76.5t-19 95l-1 527q0 32 32 32h67q23 0 27.5 -12t4.5 -27v-520q0 -23 9 -43t24.5 -35t35.5 -23.5t43 -8.5h77q26 0 49 9.5t40 26.5t27 39t10 48v507q0 15 5 27t28 12h66
q33 0 33 -32v-514zM439 868q-18 0 -30 5.5t-29 20.5l-37 34l-38 -34q-17 -15 -29 -20.5t-30 -5.5h-65q-21 0 -26 11t11 26l94 87q13 15 27 21t29 6h52q22 0 34.5 -7.5t25.5 -19.5l93 -87q17 -15 11.5 -26t-26.5 -11h-67z" />
    <glyph glyph-name="udieresis" unicode="&#xfc;" horiz-adv-x="700" 
d="M637 254q0 -53 -20.5 -99t-56 -80.5t-82.5 -54.5t-99 -20h-77q-50 0 -94 18.5t-77 51t-52.5 76.5t-19.5 95v527q0 32 32 32h67q23 0 27.5 -12t4.5 -27v-520q0 -23 9 -43t24.5 -35t35.5 -23.5t43 -8.5h77q26 0 49 9.5t40 26.5t27 39t10 48v507q0 15 5 27t28 12h66
q33 0 33 -32v-514zM296 894q0 -11 -9 -19.5t-22 -8.5h-65q-14 0 -22.5 8.5t-8.5 19.5v63q0 11 8.5 20t22.5 9h65q13 0 22 -9t9 -20v-63zM525 894q0 -11 -9 -19.5t-23 -8.5h-65q-13 0 -21.5 8.5t-8.5 19.5v63q0 11 8.5 20t21.5 9h65q14 0 23 -9t9 -20v-63z" />
    <glyph glyph-name="ugrave" unicode="&#xf9;" horiz-adv-x="700" 
d="M637 254q0 -53 -20.5 -99t-56 -80.5t-82.5 -54.5t-99 -20h-77q-50 0 -94 18.5t-77 51t-52.5 76.5t-19.5 95v527q0 32 32 32h67q23 0 27.5 -12t4.5 -27v-520q0 -23 9 -43t24.5 -35t35.5 -23.5t43 -8.5h77q26 0 49 9.5t40 26.5t27 39t10 48v507q0 15 5 27t28 12h66
q33 0 33 -32v-514zM342 862q-13 0 -26 5.5t-28 21.5l-69 87q-9 14 -2 22.5t25 8.5h71q37 0 55 -25l48 -88q8 -14 3 -23t-27 -9h-50z" />
    <glyph glyph-name="yacute" unicode="&#xfd;" horiz-adv-x="696" 
d="M535 787q10 13 27 13h90q32 0 32 -32q0 -8 -4 -15t-8 -12q0 -1 -0.5 -1t-0.5 -1l-1 -1l-257 -367v-332q0 -15 -4 -27t-29 -12h-68q-23 0 -27.5 12t-4.5 27v334l-264 377q-3 5 -3.5 9t-0.5 10q0 31 31 31h89q18 0 29 -15l187 -277l125 190.5t64 90.5zM312 860q-22 0 -27 9
t3 23l48 88q18 25 55 25h68q18 0 25 -8.5t-2 -22.5l-69 -87q-15 -16 -28 -21.5t-26 -5.5h-47z" />
    <glyph glyph-name="ydieresis" unicode="&#xff;" horiz-adv-x="696" 
d="M535 787q10 13 27 13h90q32 0 32 -32q0 -8 -4 -15t-8 -12q0 -1 -0.5 -1t-0.5 -1l-1 -1l-257 -367v-332q0 -15 -4 -27t-29 -12h-68q-23 0 -27.5 12t-4.5 27v334l-264 377q-3 5 -3.5 9t-0.5 10q0 31 31 31h89q18 0 29 -15l187 -277l125 190.5t64 90.5zM297 892
q0 -12 -9 -21.5t-22 -9.5h-65q-14 0 -22.5 9.5t-8.5 21.5v70q0 12 8.5 21.5t22.5 9.5h65q13 0 22 -9.5t9 -21.5v-70zM525 892q0 -12 -9 -21.5t-23 -9.5h-65q-13 0 -21.5 9.5t-8.5 21.5v70q0 12 8.5 21.5t21.5 9.5h65q14 0 23 -9.5t9 -21.5v-70z" />
    <glyph glyph-name="zcaron" unicode="&#x17e;" horiz-adv-x="654" 
d="M53 0q-23 0 -28 12.5t-5 27.5v43q0 8 2.5 14t6.5 11l409 557h-357q-26 0 -33 7t-7 33v56q0 15 4 27t30 12h509q14 0 23 -10t9 -22v-63q0 -5 -1.5 -11t-6.5 -11l-397 -548h379q26 0 32.5 -7t6.5 -33v-55q0 -15 -5 -27.5t-28 -12.5h-543zM237 1019q18 0 30 -5.5t29 -20.5
l37 -34l38 34q17 15 29 20.5t30 5.5h65q21 0 26 -11t-11 -26l-94 -87q-13 -15 -27 -21t-29 -6h-52q-22 0 -34.5 7.5t-25.5 19.5l-93 87q-17 15 -11.5 26t26.5 11h67z" />
    <glyph glyph-name="Amacron" unicode="&#x100;" horiz-adv-x="689" 
d="M675 32q0 -32 -32 -32h-72q-16 0 -21.5 7.5t-10.5 18.5l-91 263l-246 -109l-55 -154q-5 -12 -10 -19t-22 -7h-70q-12 0 -22.5 9t-10.5 23q0 1 10 30.5l26.5 78l37.5 111l43.5 129l45 132l41.5 119.5l32.5 92t18.5 50q5 11 11 18.5t21 7.5h88q15 0 20.5 -8t10.5 -18
l256 -730q1 -5 1 -7v-5zM400 422l-15 39.5t-8 23.5t-5 15.5t-5 15.5l-10.5 32l-13.5 40l-81 -227zM539 895q0 -12 -9.5 -22t-23.5 -10h-323q-14 0 -22 10t-10 22v63q0 12 9 22t23 10h323q14 0 23.5 -10t9.5 -22v-63z" />
    <glyph glyph-name="amacron" unicode="&#x101;" horiz-adv-x="689" 
d="M675 32q0 -32 -32 -32h-72q-16 0 -21.5 7.5t-10.5 18.5l-91 263l-246 -109l-55 -154q-5 -12 -10 -19t-22 -7h-70q-12 0 -22.5 9t-10.5 23q0 1 10 30.5l26.5 78l37.5 111l43.5 129l45 132l41.5 119.5l32.5 92t18.5 50q5 11 11 18.5t21 7.5h88q15 0 20.5 -8t10.5 -18
l256 -730q1 -5 1 -7v-5zM400 422l-15 39.5t-8 23.5t-5 15.5t-5 15.5l-10.5 32l-13.5 40l-81 -227zM539 895q0 -12 -9.5 -22t-23.5 -10h-323q-14 0 -22 10t-10 22v63q0 12 9 22t23 10h323q14 0 23.5 -10t9.5 -22v-63z" />
    <glyph glyph-name="Abreve" unicode="&#x102;" horiz-adv-x="689" 
d="M477 1017q17 0 26 -10t9 -22v-5v-14.5t-2 -14.5q-4 -21 -16.5 -37.5t-30.5 -28t-40 -17t-46 -5.5h-30l-36 1q-24 0 -46 5.5t-39.5 17t-30 27.5t-16.5 37q-2 8 -2 14.5v14.5v5q0 12 9 22t26 10h32q15 0 25.5 -9.5t10.5 -22.5v-5q0 -12 2 -18q4 -8 12.5 -13t17.5 -5h65
q9 0 17.5 5t12.5 13q3 7 3 18v5q0 13 10 22.5t25 9.5h32zM400 422l-15 39.5t-8 23.5t-5 15.5t-5 15.5l-10.5 32l-13.5 40l-81 -227zM675 32q0 -32 -32 -32h-72q-16 0 -21.5 7.5t-10.5 18.5l-91 263l-246 -109l-55 -154q-5 -12 -10 -19t-22 -7h-70q-12 0 -22.5 9t-10.5 23
q0 1 10 30.5l26.5 78l37.5 111l43.5 129l45 132l41.5 119.5l32.5 92t18.5 50q5 11 11 18.5t21 7.5h88q15 0 20.5 -8t10.5 -18l256 -730q1 -5 1 -7v-5z" />
    <glyph glyph-name="abreve" unicode="&#x103;" horiz-adv-x="689" 
d="M477 1017q17 0 26 -10t9 -22v-5v-14.5t-2 -14.5q-4 -21 -16.5 -37.5t-30.5 -28t-40 -17t-46 -5.5h-30l-36 1q-24 0 -46 5.5t-39.5 17t-30 27.5t-16.5 37q-2 8 -2 14.5v14.5v5q0 12 9 22t26 10h32q15 0 25.5 -9.5t10.5 -22.5v-5q0 -12 2 -18q4 -8 12.5 -13t17.5 -5h65
q9 0 17.5 5t12.5 13q3 7 3 18v5q0 13 10 22.5t25 9.5h32zM400 422l-15 39.5t-8 23.5t-5 15.5t-5 15.5l-10.5 32l-13.5 40l-81 -227zM675 32q0 -32 -32 -32h-72q-16 0 -21.5 7.5t-10.5 18.5l-91 263l-246 -109l-55 -154q-5 -12 -10 -19t-22 -7h-70q-12 0 -22.5 9t-10.5 23
q0 1 10 30.5l26.5 78l37.5 111l43.5 129l45 132l41.5 119.5l32.5 92t18.5 50q5 11 11 18.5t21 7.5h88q15 0 20.5 -8t10.5 -18l256 -730q1 -5 1 -7v-5z" />
    <glyph glyph-name="Aogonek" unicode="&#x104;" horiz-adv-x="689" 
d="M675 32q0 -32 -32 -32h-4l-66 -59q-14 -13 -23 -23t-9 -26q0 -17 11 -26.5t30 -9.5h19q12 0 21.5 1.5t14.5 9.5q6 11 16.5 16.5t21.5 -0.5l44 -25q11 -6 12.5 -17t-4.5 -23q-7 -14 -18 -28q-18 -19 -42 -25.5t-53 -6.5h-48q-27 0 -50.5 10.5t-41.5 29t-28.5 43
t-10.5 51.5q0 41 11.5 64.5t46.5 43.5l45 27l-90 262l-246 -109l-55 -154q-5 -12 -10 -19t-22 -7h-70q-12 0 -22.5 9t-10.5 23q0 1 10 30.5l26.5 78l37.5 111l43.5 129l45 132l41.5 119.5l32.5 92t18.5 50q5 11 11 18.5t21 7.5h88q15 0 20.5 -8t10.5 -18l256 -730q1 -5 1 -7
v-5zM262 361l138 61l-15 39.5t-8 23.5t-5 15.5t-5 15.5l-10.5 32l-13.5 40z" />
    <glyph glyph-name="aogonek" unicode="&#x105;" horiz-adv-x="689" 
d="M675 32q0 -32 -32 -32h-4l-66 -59q-14 -13 -23 -23t-9 -26q0 -17 11 -26.5t30 -9.5h19q12 0 21.5 1.5t14.5 9.5q6 11 16.5 16.5t21.5 -0.5l44 -25q11 -6 12.5 -17t-4.5 -23q-7 -14 -18 -28q-18 -19 -42 -25.5t-53 -6.5h-48q-27 0 -50.5 10.5t-41.5 29t-28.5 43
t-10.5 51.5q0 41 11.5 64.5t46.5 43.5l45 27l-90 262l-246 -109l-55 -154q-5 -12 -10 -19t-22 -7h-70q-12 0 -22.5 9t-10.5 23q0 1 10 30.5l26.5 78l37.5 111l43.5 129l45 132l41.5 119.5l32.5 92t18.5 50q5 11 11 18.5t21 7.5h88q15 0 20.5 -8t10.5 -18l256 -730q1 -5 1 -7
v-5zM262 361l138 61l-15 39.5t-8 23.5t-5 15.5t-5 15.5l-10.5 32l-13.5 40z" />
    <glyph glyph-name="Cacute" unicode="&#x106;" horiz-adv-x="755" 
d="M381 813q61 0 114.5 -20t95.5 -56t71 -85.5t41 -107.5q0 -1 -0.5 -5t-0.5 -5q-3 -10 -10 -19.5t-21 -9.5h-67q-13 0 -19.5 6t-11.5 16l-15 42t-20 36q-27 37 -68 57.5t-89 20.5q-40 0 -75.5 -15.5t-62 -42t-42 -62.5t-15.5 -76v-174q0 -41 15.5 -76.5t42 -62t62 -42
t75.5 -15.5q48 0 89 21t70 59q15 20 22.5 40.5t13.5 45.5l-1 -2q4 27 31 27h67q14 0 23 -10t9 -22q0 -15 -4 -31.5t-9 -30.5q-17 -48 -48.5 -89t-73 -71.5t-90 -47.5t-99.5 -17q-67 0 -126 25.5t-103.5 69.5t-70 103t-25.5 126v174q0 67 25.5 126.5t70 103.5t103.5 70
t126 26zM325 866q-22 0 -27 9t3 23l48 88q18 25 55 25h68q18 0 25 -8.5t-2 -22.5l-69 -87q-15 -16 -28 -21.5t-26 -5.5h-47z" />
    <glyph glyph-name="cacute" unicode="&#x107;" horiz-adv-x="755" 
d="M381 813q61 0 114.5 -20t95.5 -56t71 -85.5t41 -107.5q0 -1 -0.5 -5t-0.5 -5q-3 -10 -10 -19.5t-21 -9.5h-67q-13 0 -19.5 6t-11.5 16l-15 42t-20 36q-27 37 -68 57.5t-89 20.5q-40 0 -75.5 -15.5t-62 -42t-42 -62.5t-15.5 -76v-174q0 -41 15.5 -76.5t42 -62t62 -42
t75.5 -15.5q48 0 89 21t70 59q15 20 22.5 40.5t13.5 45.5l-1 -2q4 27 31 27h67q14 0 23 -10t9 -22q0 -15 -4 -31.5t-9 -30.5q-17 -48 -48.5 -89t-73 -71.5t-90 -47.5t-99.5 -17q-67 0 -126 25.5t-103.5 69.5t-70 103t-25.5 126v174q0 67 25.5 126.5t70 103.5t103.5 70
t126 26zM325 866q-22 0 -27 9t3 23l48 88q18 25 55 25h68q18 0 25 -8.5t-2 -22.5l-69 -87q-15 -16 -28 -21.5t-26 -5.5h-47z" />
    <glyph glyph-name="Ccircumflex" unicode="&#x108;" horiz-adv-x="755" 
d="M381 813q61 0 114.5 -20t95.5 -56t71 -85.5t41 -107.5q0 -1 -0.5 -5t-0.5 -5q-3 -10 -10 -19.5t-21 -9.5h-67q-13 0 -19.5 6t-11.5 16l-15 42t-20 36q-27 37 -68 57.5t-89 20.5q-40 0 -75.5 -15.5t-62 -42t-42 -62.5t-15.5 -76v-174q0 -41 15.5 -76.5t42 -62t62 -42
t75.5 -15.5q48 0 89 21t70 59q15 20 22.5 40.5t13.5 45.5l-1 -2q4 27 31 27h67q14 0 23 -10t9 -22q0 -15 -4 -31.5t-9 -30.5q-17 -48 -48.5 -89t-73 -71.5t-90 -47.5t-99.5 -17q-67 0 -126 25.5t-103.5 69.5t-70 103t-25.5 126v174q0 67 25.5 126.5t70 103.5t103.5 70
t126 26zM473 861q-18 0 -30 5.5t-29 20.5l-37 34l-38 -34q-17 -15 -29 -20.5t-30 -5.5h-65q-21 0 -26 11t11 26l94 87q13 15 27 21t29 6h52q22 0 34.5 -7.5t25.5 -19.5l93 -87q17 -15 11.5 -26t-26.5 -11h-67z" />
    <glyph glyph-name="ccircumflex" unicode="&#x109;" horiz-adv-x="755" 
d="M381 813q61 0 114.5 -20t95.5 -56t71 -85.5t41 -107.5q0 -1 -0.5 -5t-0.5 -5q-3 -10 -10 -19.5t-21 -9.5h-67q-13 0 -19.5 6t-11.5 16l-15 42t-20 36q-27 37 -68 57.5t-89 20.5q-40 0 -75.5 -15.5t-62 -42t-42 -62.5t-15.5 -76v-174q0 -41 15.5 -76.5t42 -62t62 -42
t75.5 -15.5q48 0 89 21t70 59q15 20 22.5 40.5t13.5 45.5l-1 -2q4 27 31 27h67q14 0 23 -10t9 -22q0 -15 -4 -31.5t-9 -30.5q-17 -48 -48.5 -89t-73 -71.5t-90 -47.5t-99.5 -17q-67 0 -126 25.5t-103.5 69.5t-70 103t-25.5 126v174q0 67 25.5 126.5t70 103.5t103.5 70
t126 26zM473 861q-18 0 -30 5.5t-29 20.5l-37 34l-38 -34q-17 -15 -29 -20.5t-30 -5.5h-65q-21 0 -26 11t11 26l94 87q13 15 27 21t29 6h52q22 0 34.5 -7.5t25.5 -19.5l93 -87q17 -15 11.5 -26t-26.5 -11h-67z" />
    <glyph glyph-name="Cdotaccent" unicode="&#x10a;" horiz-adv-x="755" 
d="M381 813q61 0 114.5 -20t95.5 -56t71 -85.5t41 -107.5q0 -1 -0.5 -5t-0.5 -5q-3 -10 -10 -19.5t-21 -9.5h-67q-13 0 -19.5 6t-11.5 16l-15 42t-20 36q-27 37 -68 57.5t-89 20.5q-40 0 -75.5 -15.5t-62 -42t-42 -62.5t-15.5 -76v-174q0 -41 15.5 -76.5t42 -62t62 -42
t75.5 -15.5q48 0 89 21t70 59q15 20 22.5 40.5t13.5 45.5l-1 -2q4 27 31 27h67q14 0 23 -10t9 -22q0 -15 -4 -31.5t-9 -30.5q-17 -48 -48.5 -89t-73 -71.5t-90 -47.5t-99.5 -17q-67 0 -126 25.5t-103.5 69.5t-70 103t-25.5 126v174q0 67 25.5 126.5t70 103.5t103.5 70
t126 26zM454 893q0 -12 -9.5 -22t-23.5 -10h-68q-14 0 -23 10t-9 22v74q0 12 9 22t23 10h68q14 0 23.5 -10t9.5 -22v-74z" />
    <glyph glyph-name="cdotaccent" unicode="&#x10b;" horiz-adv-x="755" 
d="M381 813q61 0 114.5 -20t95.5 -56t71 -85.5t41 -107.5q0 -1 -0.5 -5t-0.5 -5q-3 -10 -10 -19.5t-21 -9.5h-67q-13 0 -19.5 6t-11.5 16l-15 42t-20 36q-27 37 -68 57.5t-89 20.5q-40 0 -75.5 -15.5t-62 -42t-42 -62.5t-15.5 -76v-174q0 -41 15.5 -76.5t42 -62t62 -42
t75.5 -15.5q48 0 89 21t70 59q15 20 22.5 40.5t13.5 45.5l-1 -2q4 27 31 27h67q14 0 23 -10t9 -22q0 -15 -4 -31.5t-9 -30.5q-17 -48 -48.5 -89t-73 -71.5t-90 -47.5t-99.5 -17q-67 0 -126 25.5t-103.5 69.5t-70 103t-25.5 126v174q0 67 25.5 126.5t70 103.5t103.5 70
t126 26zM454 893q0 -12 -9.5 -22t-23.5 -10h-68q-14 0 -23 10t-9 22v74q0 12 9 22t23 10h68q14 0 23.5 -10t9.5 -22v-74z" />
    <glyph glyph-name="Ccaron" unicode="&#x10c;" horiz-adv-x="755" 
d="M381 813q61 0 114.5 -20t95.5 -56t71 -85.5t41 -107.5q0 -1 -0.5 -5t-0.5 -5q-3 -10 -10 -19.5t-21 -9.5h-67q-13 0 -19.5 6t-11.5 16l-15 42t-20 36q-27 37 -68 57.5t-89 20.5q-40 0 -75.5 -15.5t-62 -42t-42 -62.5t-15.5 -76v-174q0 -41 15.5 -76.5t42 -62t62 -42
t75.5 -15.5q48 0 89 21t70 59q15 20 22.5 40.5t13.5 45.5l-1 -2q4 27 31 27h67q14 0 23 -10t9 -22q0 -15 -4 -31.5t-9 -30.5q-17 -48 -48.5 -89t-73 -71.5t-90 -47.5t-99.5 -17q-67 0 -126 25.5t-103.5 69.5t-70 103t-25.5 126v174q0 67 25.5 126.5t70 103.5t103.5 70
t126 26zM282 1012q18 0 30 -5.5t29 -20.5l37 -34l38 34q17 15 29 20.5t30 5.5h65q21 0 26 -11t-11 -26l-94 -87q-13 -15 -27 -21t-29 -6h-52q-22 0 -34.5 7.5t-25.5 19.5l-93 87q-17 15 -11.5 26t26.5 11h67z" />
    <glyph glyph-name="ccaron" unicode="&#x10d;" horiz-adv-x="755" 
d="M381 813q61 0 114.5 -20t95.5 -56t71 -85.5t41 -107.5q0 -1 -0.5 -5t-0.5 -5q-3 -10 -10 -19.5t-21 -9.5h-67q-13 0 -19.5 6t-11.5 16l-15 42t-20 36q-27 37 -68 57.5t-89 20.5q-40 0 -75.5 -15.5t-62 -42t-42 -62.5t-15.5 -76v-174q0 -41 15.5 -76.5t42 -62t62 -42
t75.5 -15.5q48 0 89 21t70 59q15 20 22.5 40.5t13.5 45.5l-1 -2q4 27 31 27h67q14 0 23 -10t9 -22q0 -15 -4 -31.5t-9 -30.5q-17 -48 -48.5 -89t-73 -71.5t-90 -47.5t-99.5 -17q-67 0 -126 25.5t-103.5 69.5t-70 103t-25.5 126v174q0 67 25.5 126.5t70 103.5t103.5 70
t126 26zM282 1012q18 0 30 -5.5t29 -20.5l37 -34l38 34q17 15 29 20.5t30 5.5h65q21 0 26 -11t-11 -26l-94 -87q-13 -15 -27 -21t-29 -6h-52q-22 0 -34.5 7.5t-25.5 19.5l-93 87q-17 15 -11.5 26t26.5 11h67z" />
    <glyph glyph-name="Dcaron" unicode="&#x10e;" horiz-adv-x="746" 
d="M191 667v-534h183q38 0 71.5 14.5t59 40t40 58.5t14.5 71v166q0 37 -14.5 70.5t-40 59t-59 40t-71.5 14.5h-183zM374 800q66 0 123.5 -25t101 -68t68.5 -101t25 -123v-166q0 -65 -25 -123t-68.5 -101t-101 -68t-123.5 -25h-283q-14 0 -23 9t-9 23l-2 736q0 12 10 22
t24 10h283zM282 1012q18 0 30 -5.5t29 -20.5l37 -34l38 34q17 15 29 20.5t30 5.5h65q21 0 26 -11t-11 -26l-94 -87q-13 -15 -27 -21t-29 -6h-52q-22 0 -34.5 7.5t-25.5 19.5l-93 87q-17 15 -11.5 26t26.5 11h67z" />
    <glyph glyph-name="dcaron" unicode="&#x10f;" horiz-adv-x="746" 
d="M191 667v-534h183q38 0 71.5 14.5t59 40t40 58.5t14.5 71v166q0 37 -14.5 70.5t-40 59t-59 40t-71.5 14.5h-183zM374 800q66 0 123.5 -25t101 -68t68.5 -101t25 -123v-166q0 -65 -25 -123t-68.5 -101t-101 -68t-123.5 -25h-283q-14 0 -23 9t-9 23l-2 736q0 12 10 22
t24 10h283zM282 1012q18 0 30 -5.5t29 -20.5l37 -34l38 34q17 15 29 20.5t30 5.5h65q21 0 26 -11t-11 -26l-94 -87q-13 -15 -27 -21t-29 -6h-52q-22 0 -34.5 7.5t-25.5 19.5l-93 87q-17 15 -11.5 26t26.5 11h67z" />
    <glyph glyph-name="Dcroat" unicode="&#x110;" horiz-adv-x="746" 
d="M374 800q66 0 123.5 -25t101 -68t68.5 -101t25 -123v-166q0 -65 -25 -123t-68.5 -101t-101 -68t-123.5 -25h-283q-14 0 -23 9t-9 23l-2 316h-35q-13 0 -19.5 10t-6.5 22l-1 53q0 12 6.5 22t20.5 10h35v303q0 12 10 22t24 10h283zM361 380q0 -12 -9.5 -22t-23.5 -10h-137
v-215h183q38 0 71.5 14.5t59 40t40 58.5t14.5 71v166q0 37 -14.5 70.5t-40 59t-59 40t-71.5 14.5h-183v-202h137q14 0 23.5 -10t9.5 -22v-53z" />
    <glyph glyph-name="dcroat" unicode="&#x111;" horiz-adv-x="746" 
d="M374 800q66 0 123.5 -25t101 -68t68.5 -101t25 -123v-166q0 -65 -25 -123t-68.5 -101t-101 -68t-123.5 -25h-283q-14 0 -23 9t-9 23l-2 316h-35q-13 0 -19.5 10t-6.5 22l-1 53q0 12 6.5 22t20.5 10h35v303q0 12 10 22t24 10h283zM361 380q0 -12 -9.5 -22t-23.5 -10h-137
v-215h183q38 0 71.5 14.5t59 40t40 58.5t14.5 71v166q0 37 -14.5 70.5t-40 59t-59 40t-71.5 14.5h-183v-202h137q14 0 23.5 -10t9.5 -22v-53z" />
    <glyph glyph-name="Emacron" unicode="&#x112;" horiz-adv-x="664" 
d="M93 0q-14 0 -23.5 9t-9.5 23l-2 736q0 14 10 23t24 9h483q25 0 29 -12t4 -27v-55q0 -27 -7 -33t-33 -6h-375v-177h333q14 0 23 -9.5t9 -23.5v-68q0 -14 -9 -23.5t-23 -9.5h-333v-223h388q26 0 33 -6t7 -33v-54q0 -15 -4 -27.5t-29 -12.5h-495zM526 897q0 -12 -9.5 -22
t-23.5 -10h-323q-14 0 -22 10t-10 22v63q0 12 9 22t23 10h323q14 0 23.5 -10t9.5 -22v-63z" />
    <glyph glyph-name="emacron" unicode="&#x113;" horiz-adv-x="664" 
d="M93 0q-14 0 -23.5 9t-9.5 23l-2 736q0 14 10 23t24 9h483q25 0 29 -12t4 -27v-55q0 -27 -7 -33t-33 -6h-375v-177h333q14 0 23 -9.5t9 -23.5v-68q0 -14 -9 -23.5t-23 -9.5h-333v-223h388q26 0 33 -6t7 -33v-54q0 -15 -4 -27.5t-29 -12.5h-495zM526 897q0 -12 -9.5 -22
t-23.5 -10h-323q-14 0 -22 10t-10 22v63q0 12 9 22t23 10h323q14 0 23.5 -10t9.5 -22v-63z" />
    <glyph glyph-name="Ebreve" unicode="&#x114;" horiz-adv-x="664" 
d="M465 1019q17 0 26 -10t9 -22v-5v-14.5t-2 -14.5q-4 -21 -16.5 -37.5t-30.5 -28t-40 -17t-46 -5.5h-31l-35 1q-48 1 -86 22.5t-46 64.5q-2 8 -2.5 14.5t-0.5 14.5v5q0 12 9 22t26 10h32q16 0 26 -9.5t10 -22.5v-5q0 -7 0.5 -10.5t2.5 -7.5q4 -8 12 -13t17 -5h66
q9 0 17.5 5t12.5 13q2 6 2 18v5q0 13 10 22.5t26 9.5h32zM93 0q-14 0 -23.5 9t-9.5 23l-2 736q0 14 10 23t24 9h483q25 0 29 -12t4 -27v-55q0 -27 -7 -33t-33 -6h-375v-177h333q14 0 23 -9.5t9 -23.5v-68q0 -14 -9 -23.5t-23 -9.5h-333v-223h388q26 0 33 -6t7 -33v-54
q0 -15 -4 -27.5t-29 -12.5h-495z" />
    <glyph glyph-name="ebreve" unicode="&#x115;" horiz-adv-x="664" 
d="M465 1019q17 0 26 -10t9 -22v-5v-14.5t-2 -14.5q-4 -21 -16.5 -37.5t-30.5 -28t-40 -17t-46 -5.5h-31l-35 1q-48 1 -86 22.5t-46 64.5q-2 8 -2.5 14.5t-0.5 14.5v5q0 12 9 22t26 10h32q16 0 26 -9.5t10 -22.5v-5q0 -7 0.5 -10.5t2.5 -7.5q4 -8 12 -13t17 -5h66
q9 0 17.5 5t12.5 13q2 6 2 18v5q0 13 10 22.5t26 9.5h32zM93 0q-14 0 -23.5 9t-9.5 23l-2 736q0 14 10 23t24 9h483q25 0 29 -12t4 -27v-55q0 -27 -7 -33t-33 -6h-375v-177h333q14 0 23 -9.5t9 -23.5v-68q0 -14 -9 -23.5t-23 -9.5h-333v-223h388q26 0 33 -6t7 -33v-54
q0 -15 -4 -27.5t-29 -12.5h-495z" />
    <glyph glyph-name="Edotaccent" unicode="&#x116;" horiz-adv-x="664" 
d="M93 0q-14 0 -23.5 9t-9.5 23l-2 736q0 14 10 23t24 9h483q25 0 29 -12t4 -27v-55q0 -27 -7 -33t-33 -6h-375v-177h333q14 0 23 -9.5t9 -23.5v-68q0 -14 -9 -23.5t-23 -9.5h-333v-223h388q26 0 33 -6t7 -33v-54q0 -15 -4 -27.5t-29 -12.5h-495zM399 893q0 -12 -9.5 -22
t-23.5 -10h-68q-14 0 -23 10t-9 22v74q0 12 9 22t23 10h68q14 0 23.5 -10t9.5 -22v-74z" />
    <glyph glyph-name="edotaccent" unicode="&#x117;" horiz-adv-x="664" 
d="M93 0q-14 0 -23.5 9t-9.5 23l-2 736q0 14 10 23t24 9h483q25 0 29 -12t4 -27v-55q0 -27 -7 -33t-33 -6h-375v-177h333q14 0 23 -9.5t9 -23.5v-68q0 -14 -9 -23.5t-23 -9.5h-333v-223h388q26 0 33 -6t7 -33v-54q0 -15 -4 -27.5t-29 -12.5h-495zM399 893q0 -12 -9.5 -22
t-23.5 -10h-68q-14 0 -23 10t-9 22v74q0 12 9 22t23 10h68q14 0 23.5 -10t9.5 -22v-74z" />
    <glyph glyph-name="Eogonek" unicode="&#x118;" horiz-adv-x="664" 
d="M555 0l-79 -71q-14 -13 -23 -23t-9 -26q0 -17 11 -26.5t30 -9.5h19q12 0 21.5 1.5t14.5 9.5q6 11 16.5 16.5t21.5 -0.5l44 -25q11 -6 12.5 -17t-4.5 -23q-7 -14 -18 -28q-18 -19 -42 -25.5t-53 -6.5h-48q-27 0 -50.5 10.5t-41.5 29t-28.5 43t-10.5 51.5q0 21 2.5 36.5
t9 28t18 23t28.5 21.5q0 1 5.5 4l12.5 7h-321q-14 0 -23.5 9t-9.5 23l-2 736q0 14 10 23t24 9h483q25 0 29 -12t4 -27v-55q0 -27 -7 -33t-33 -6h-375v-177h333q14 0 23 -9.5t9 -23.5v-68q0 -14 -9 -23.5t-23 -9.5h-333v-223h388q26 0 33 -6t7 -33v-54q0 -15 -4 -27.5
t-29 -12.5h-33z" />
    <glyph glyph-name="eogonek" unicode="&#x119;" horiz-adv-x="664" 
d="M555 0l-79 -71q-14 -13 -23 -23t-9 -26q0 -17 11 -26.5t30 -9.5h19q12 0 21.5 1.5t14.5 9.5q6 11 16.5 16.5t21.5 -0.5l44 -25q11 -6 12.5 -17t-4.5 -23q-7 -14 -18 -28q-18 -19 -42 -25.5t-53 -6.5h-48q-27 0 -50.5 10.5t-41.5 29t-28.5 43t-10.5 51.5q0 21 2.5 36.5
t9 28t18 23t28.5 21.5q0 1 5.5 4l12.5 7h-321q-14 0 -23.5 9t-9.5 23l-2 736q0 14 10 23t24 9h483q25 0 29 -12t4 -27v-55q0 -27 -7 -33t-33 -6h-375v-177h333q14 0 23 -9.5t9 -23.5v-68q0 -14 -9 -23.5t-23 -9.5h-333v-223h388q26 0 33 -6t7 -33v-54q0 -15 -4 -27.5
t-29 -12.5h-33z" />
    <glyph glyph-name="Ecaron" unicode="&#x11a;" horiz-adv-x="664" 
d="M93 0q-14 0 -23.5 9t-9.5 23l-2 736q0 14 10 23t24 9h483q25 0 29 -12t4 -27v-55q0 -27 -7 -33t-33 -6h-375v-177h333q14 0 23 -9.5t9 -23.5v-68q0 -14 -9 -23.5t-23 -9.5h-333v-223h388q26 0 33 -6t7 -33v-54q0 -15 -4 -27.5t-29 -12.5h-495zM237 1016q18 0 30 -5.5
t29 -20.5l37 -34l38 34q17 15 29 20.5t30 5.5h65q21 0 26 -11t-11 -26l-94 -87q-13 -15 -27 -21t-29 -6h-52q-22 0 -34.5 7.5t-25.5 19.5l-93 87q-17 15 -11.5 26t26.5 11h67z" />
    <glyph glyph-name="ecaron" unicode="&#x11b;" horiz-adv-x="664" 
d="M93 0q-14 0 -23.5 9t-9.5 23l-2 736q0 14 10 23t24 9h483q25 0 29 -12t4 -27v-55q0 -27 -7 -33t-33 -6h-375v-177h333q14 0 23 -9.5t9 -23.5v-68q0 -14 -9 -23.5t-23 -9.5h-333v-223h388q26 0 33 -6t7 -33v-54q0 -15 -4 -27.5t-29 -12.5h-495zM237 1016q18 0 30 -5.5
t29 -20.5l37 -34l38 34q17 15 29 20.5t30 5.5h65q21 0 26 -11t-11 -26l-94 -87q-13 -15 -27 -21t-29 -6h-52q-22 0 -34.5 7.5t-25.5 19.5l-93 87q-17 15 -11.5 26t26.5 11h67z" />
    <glyph glyph-name="Gcircumflex" unicode="&#x11c;" horiz-adv-x="764" 
d="M383 814q52 0 98.5 -16t85.5 -44.5t70 -68.5t52 -89q7 -16 -2 -28t-29 -12h-72q-19 0 -29 19l1 -1q-28 51 -71.5 80.5t-103.5 29.5q-41 0 -76.5 -15.5t-62.5 -42t-42.5 -62.5t-15.5 -76v-162q0 -52 15.5 -87.5t42.5 -62.5q27 -26 62 -41.5t77 -15.5q58 0 108 26.5
t76 80.5q10 22 15 58q2 19 3.5 28.5t1.5 10.5h-172q-13 0 -22.5 10t-9.5 22v62q0 32 32 32h266q31 0 31 -32q0 -11 0.5 -19t0.5 -18q1 -11 1 -21v-20q0 -5 -1 -18t-3 -34t-4.5 -38.5t-6.5 -31.5q-8 -28 -22 -55t-36 -55q-48 -61 -113.5 -90t-144.5 -26q-68 2 -127.5 26.5
t-104 68t-70 104.5t-25.5 136v162q0 67 26 126.5t70 103.5t103.5 70t127.5 26zM478 861q-18 0 -30.5 5.5t-28.5 20.5l-37 34l-38 -34q-17 -15 -29 -20.5t-30 -5.5h-65q-21 0 -26.5 11t11.5 26l94 87q13 15 27 21t29 6h52q22 0 34 -7.5t26 -19.5l93 -87q16 -15 11 -26
t-26 -11h-67z" />
    <glyph glyph-name="gcircumflex" unicode="&#x11d;" horiz-adv-x="764" 
d="M383 814q52 0 98.5 -16t85.5 -44.5t70 -68.5t52 -89q7 -16 -2 -28t-29 -12h-72q-19 0 -29 19l1 -1q-28 51 -71.5 80.5t-103.5 29.5q-41 0 -76.5 -15.5t-62.5 -42t-42.5 -62.5t-15.5 -76v-162q0 -52 15.5 -87.5t42.5 -62.5q27 -26 62 -41.5t77 -15.5q58 0 108 26.5
t76 80.5q10 22 15 58q2 19 3.5 28.5t1.5 10.5h-172q-13 0 -22.5 10t-9.5 22v62q0 32 32 32h266q31 0 31 -32q0 -11 0.5 -19t0.5 -18q1 -11 1 -21v-20q0 -5 -1 -18t-3 -34t-4.5 -38.5t-6.5 -31.5q-8 -28 -22 -55t-36 -55q-48 -61 -113.5 -90t-144.5 -26q-68 2 -127.5 26.5
t-104 68t-70 104.5t-25.5 136v162q0 67 26 126.5t70 103.5t103.5 70t127.5 26zM478 861q-18 0 -30.5 5.5t-28.5 20.5l-37 34l-38 -34q-17 -15 -29 -20.5t-30 -5.5h-65q-21 0 -26.5 11t11.5 26l94 87q13 15 27 21t29 6h52q22 0 34 -7.5t26 -19.5l93 -87q16 -15 11 -26
t-26 -11h-67z" />
    <glyph glyph-name="Gbreve" unicode="&#x11e;" horiz-adv-x="764" 
d="M515 1015q17 0 26 -10t9 -22v-5v-14.5t-2 -14.5q-4 -21 -16.5 -37.5t-30.5 -28t-40 -17t-46 -5.5h-31l-35 1q-48 1 -86 22.5t-46 64.5q-2 8 -2.5 14.5t-0.5 14.5v5q0 12 9 22t26 10h32q16 0 26 -9.5t10 -22.5v-5q0 -7 0.5 -10.5t2.5 -7.5q4 -8 12 -13t17 -5h66
q9 0 17.5 5t12.5 13q2 6 2 18v5q0 13 10 22.5t26 9.5h32zM383 814q52 0 98.5 -16t85.5 -44.5t70 -68.5t52 -89q7 -16 -2 -28t-29 -12h-72q-19 0 -29 19l1 -1q-28 51 -71.5 80.5t-103.5 29.5q-41 0 -76.5 -15.5t-62.5 -42t-42.5 -62.5t-15.5 -76v-162q0 -52 15.5 -87.5
t42.5 -62.5q27 -26 62 -41.5t77 -15.5q58 0 108 26.5t76 80.5q10 22 15 58q2 19 3.5 28.5t1.5 10.5h-172q-13 0 -22.5 10t-9.5 22v62q0 32 32 32h266q31 0 31 -32q0 -11 0.5 -19t0.5 -18q1 -11 1 -21v-20q0 -5 -1 -18t-3 -34t-4.5 -38.5t-6.5 -31.5q-8 -28 -22 -55t-36 -55
q-48 -61 -113.5 -90t-144.5 -26q-68 2 -127.5 26.5t-104 68t-70 104.5t-25.5 136v162q0 67 26 126.5t70 103.5t103.5 70t127.5 26z" />
    <glyph glyph-name="gbreve" unicode="&#x11f;" horiz-adv-x="764" 
d="M515 1015q17 0 26 -10t9 -22v-5v-14.5t-2 -14.5q-4 -21 -16.5 -37.5t-30.5 -28t-40 -17t-46 -5.5h-31l-35 1q-48 1 -86 22.5t-46 64.5q-2 8 -2.5 14.5t-0.5 14.5v5q0 12 9 22t26 10h32q16 0 26 -9.5t10 -22.5v-5q0 -7 0.5 -10.5t2.5 -7.5q4 -8 12 -13t17 -5h66
q9 0 17.5 5t12.5 13q2 6 2 18v5q0 13 10 22.5t26 9.5h32zM383 814q52 0 98.5 -16t85.5 -44.5t70 -68.5t52 -89q7 -16 -2 -28t-29 -12h-72q-19 0 -29 19l1 -1q-28 51 -71.5 80.5t-103.5 29.5q-41 0 -76.5 -15.5t-62.5 -42t-42.5 -62.5t-15.5 -76v-162q0 -52 15.5 -87.5
t42.5 -62.5q27 -26 62 -41.5t77 -15.5q58 0 108 26.5t76 80.5q10 22 15 58q2 19 3.5 28.5t1.5 10.5h-172q-13 0 -22.5 10t-9.5 22v62q0 32 32 32h266q31 0 31 -32q0 -11 0.5 -19t0.5 -18q1 -11 1 -21v-20q0 -5 -1 -18t-3 -34t-4.5 -38.5t-6.5 -31.5q-8 -28 -22 -55t-36 -55
q-48 -61 -113.5 -90t-144.5 -26q-68 2 -127.5 26.5t-104 68t-70 104.5t-25.5 136v162q0 67 26 126.5t70 103.5t103.5 70t127.5 26z" />
    <glyph glyph-name="Gdotaccent" unicode="&#x120;" horiz-adv-x="764" 
d="M383 814q52 0 98.5 -16t85.5 -44.5t70 -68.5t52 -89q7 -16 -2 -28t-29 -12h-72q-19 0 -29 19l1 -1q-28 51 -71.5 80.5t-103.5 29.5q-41 0 -76.5 -15.5t-62.5 -42t-42.5 -62.5t-15.5 -76v-162q0 -52 15.5 -87.5t42.5 -62.5q27 -26 62 -41.5t77 -15.5q58 0 108 26.5
t76 80.5q10 22 15 58q2 19 3.5 28.5t1.5 10.5h-172q-13 0 -22.5 10t-9.5 22v62q0 32 32 32h266q31 0 31 -32q0 -11 0.5 -19t0.5 -18q1 -11 1 -21v-20q0 -5 -1 -18t-3 -34t-4.5 -38.5t-6.5 -31.5q-8 -28 -22 -55t-36 -55q-48 -61 -113.5 -90t-144.5 -26q-68 2 -127.5 26.5
t-104 68t-70 104.5t-25.5 136v162q0 67 26 126.5t70 103.5t103.5 70t127.5 26zM449 893q0 -12 -9.5 -22t-23.5 -10h-68q-14 0 -23 10t-9 22v74q0 12 9 22t23 10h68q14 0 23.5 -10t9.5 -22v-74z" />
    <glyph glyph-name="gdotaccent" unicode="&#x121;" horiz-adv-x="764" 
d="M383 814q52 0 98.5 -16t85.5 -44.5t70 -68.5t52 -89q7 -16 -2 -28t-29 -12h-72q-19 0 -29 19l1 -1q-28 51 -71.5 80.5t-103.5 29.5q-41 0 -76.5 -15.5t-62.5 -42t-42.5 -62.5t-15.5 -76v-162q0 -52 15.5 -87.5t42.5 -62.5q27 -26 62 -41.5t77 -15.5q58 0 108 26.5
t76 80.5q10 22 15 58q2 19 3.5 28.5t1.5 10.5h-172q-13 0 -22.5 10t-9.5 22v62q0 32 32 32h266q31 0 31 -32q0 -11 0.5 -19t0.5 -18q1 -11 1 -21v-20q0 -5 -1 -18t-3 -34t-4.5 -38.5t-6.5 -31.5q-8 -28 -22 -55t-36 -55q-48 -61 -113.5 -90t-144.5 -26q-68 2 -127.5 26.5
t-104 68t-70 104.5t-25.5 136v162q0 67 26 126.5t70 103.5t103.5 70t127.5 26zM449 893q0 -12 -9.5 -22t-23.5 -10h-68q-14 0 -23 10t-9 22v74q0 12 9 22t23 10h68q14 0 23.5 -10t9.5 -22v-74z" />
    <glyph glyph-name="uni0122" unicode="&#x122;" horiz-adv-x="764" 
d="M451 -145q0 -6 -1.5 -9.5t-2.5 -5.5l-36 -76q-4 -9 -9.5 -11.5t-14.5 -2.5h-43q-14 0 -14.5 6t0.5 11l18 58h-8q-14 0 -23 9.5t-9 20.5v65q0 11 9 20t23 9h77q14 0 24 -9t10 -20v-65zM383 815q52 0 98.5 -16t85.5 -44.5t70 -68.5t52 -89q7 -16 -2 -28t-29 -12h-72
q-19 0 -29 19l1 -1q-28 51 -71.5 80.5t-103.5 29.5q-41 0 -76.5 -15.5t-62.5 -42t-42.5 -62.5t-15.5 -76v-162q0 -52 15.5 -87.5t42.5 -62.5q27 -26 62 -41.5t77 -15.5q58 0 108 26.5t76 80.5q10 22 15 58q2 19 3.5 28.5t1.5 10.5h-172q-13 0 -22.5 10t-9.5 22v62
q0 32 32 32h266q31 0 31 -32q0 -11 0.5 -19t0.5 -18q1 -11 1 -21v-20q0 -5 -1 -18t-3 -34t-4.5 -38.5t-6.5 -31.5q-8 -28 -22 -55t-36 -55q-48 -61 -113.5 -90t-144.5 -26q-68 2 -127.5 26.5t-104 68t-70 104.5t-25.5 136v162q0 67 26 126.5t70 103.5t103.5 70t127.5 26z
" />
    <glyph glyph-name="uni0123" unicode="&#x123;" horiz-adv-x="764" 
d="M451 -145q0 -6 -1.5 -9.5t-2.5 -5.5l-36 -76q-4 -9 -9.5 -11.5t-14.5 -2.5h-43q-14 0 -14.5 6t0.5 11l18 58h-8q-14 0 -23 9.5t-9 20.5v65q0 11 9 20t23 9h77q14 0 24 -9t10 -20v-65zM383 814q52 0 98.5 -16t85.5 -44.5t70 -68.5t52 -89q7 -16 -2 -28t-29 -12h-72
q-19 0 -29 19l1 -1q-28 51 -71.5 80.5t-103.5 29.5q-41 0 -76.5 -15.5t-62.5 -42t-42.5 -62.5t-15.5 -76v-162q0 -52 15.5 -87.5t42.5 -62.5q27 -26 62 -41.5t77 -15.5q58 0 108 26.5t76 80.5q10 22 15 58q2 19 3.5 28.5t1.5 10.5h-172q-13 0 -22.5 10t-9.5 22v62
q0 32 32 32h266q31 0 31 -32q0 -11 0.5 -19t0.5 -18q1 -11 1 -21v-20q0 -5 -1 -18t-3 -34t-4.5 -38.5t-6.5 -31.5q-8 -28 -22 -55t-36 -55q-48 -61 -113.5 -90t-144.5 -26q-68 2 -127.5 26.5t-104 68t-70 104.5t-25.5 136v162q0 67 26 126.5t70 103.5t103.5 70t127.5 26z
" />
    <glyph glyph-name="Hcircumflex" unicode="&#x124;" horiz-adv-x="701" 
d="M192 418l312 134v209q0 15 5 27t28 12h67q14 0 24 -10t10 -22v-736q0 -12 -10 -22t-24 -10h-67q-23 0 -28 12t-5 27v366l-312 -132v-234q0 -15 -4 -27t-29 -12h-68q-14 0 -22 10t-8 22l-2 736q0 12 9 22t23 10h68q25 0 29 -12t4 -27v-343zM439 861q-18 0 -30 5.5
t-29 20.5l-37 34l-38 -34q-17 -15 -29 -20.5t-30 -5.5h-65q-21 0 -26 11t11 26l94 87q13 15 27 21t29 6h52q22 0 34.5 -7.5t25.5 -19.5l93 -87q17 -15 11.5 -26t-26.5 -11h-67z" />
    <glyph glyph-name="hcircumflex" unicode="&#x125;" horiz-adv-x="701" 
d="M192 418l312 134v209q0 15 5 27t28 12h67q14 0 24 -10t10 -22v-736q0 -12 -10 -22t-24 -10h-67q-23 0 -28 12t-5 27v366l-312 -132v-234q0 -15 -4 -27t-29 -12h-68q-14 0 -22 10t-8 22l-2 736q0 12 9 22t23 10h68q25 0 29 -12t4 -27v-343zM439 861q-18 0 -30 5.5
t-29 20.5l-37 34l-38 -34q-17 -15 -29 -20.5t-30 -5.5h-65q-21 0 -26 11t11 26l94 87q13 15 27 21t29 6h52q22 0 34.5 -7.5t25.5 -19.5l93 -87q17 -15 11.5 -26t-26.5 -11h-67z" />
    <glyph glyph-name="Hbar" unicode="&#x126;" horiz-adv-x="701" 
d="M702 609q0 -12 -9.5 -22t-23.5 -10h-31v-545q0 -12 -10 -22t-24 -10h-67q-23 0 -28 12t-5 27v366l-312 -132v-234q0 -15 -4 -27t-29 -12h-68q-14 0 -22 10t-8 22l-2 545h-23q-14 0 -23 10t-9 22v63q0 12 9 22t23 10h23v64q0 12 9 22t23 10h68q25 0 29 -12t4 -27v-57h312
v57q0 15 5 27t28 12h67q14 0 24 -10t10 -22v-64h31q14 0 23.5 -10t9.5 -22v-63zM504 552v25h-312v-159z" />
    <glyph glyph-name="hbar" unicode="&#x127;" horiz-adv-x="701" 
d="M702 609q0 -12 -9.5 -22t-23.5 -10h-31v-545q0 -12 -10 -22t-24 -10h-67q-23 0 -28 12t-5 27v366l-312 -132v-234q0 -15 -4 -27t-29 -12h-68q-14 0 -22 10t-8 22l-2 545h-23q-14 0 -23 10t-9 22v63q0 12 9 22t23 10h23v64q0 12 9 22t23 10h68q25 0 29 -12t4 -27v-57h312
v57q0 15 5 27t28 12h67q14 0 24 -10t10 -22v-64h31q14 0 23.5 -10t9.5 -22v-63zM504 552v25h-312v-159z" />
    <glyph glyph-name="Itilde" unicode="&#x128;" 
d="M192 32q0 -12 -9.5 -22t-23.5 -10h-67q-14 0 -22.5 10t-8.5 22l-2 736q0 12 9 22t23 10h68q14 0 23.5 -10t9.5 -22v-736zM-11 876q-10 4 -15 14q-7 7 0 29l22 54q5 11 16 15.5t27 -1.5q26 -10 46 -11t38 2.5t34.5 9t35 7t41 -2.5t51.5 -19q12 -5 17 -14q9 -7 0 -28
l-25 -54q-7 -14 -20 -15t-23 4q-20 13 -39 15.5t-37.5 0t-37 -8.5t-39 -9t-43.5 -1.5t-49 13.5z" />
    <glyph glyph-name="itilde" unicode="&#x129;" 
d="M192 32q0 -12 -9.5 -22t-23.5 -10h-67q-14 0 -22.5 10t-8.5 22l-2 736q0 12 9 22t23 10h68q14 0 23.5 -10t9.5 -22v-736zM-11 876q-10 4 -15 14q-7 7 0 29l22 54q5 11 16 15.5t27 -1.5q26 -10 46 -11t38 2.5t34.5 9t35 7t41 -2.5t51.5 -19q12 -5 17 -14q9 -7 0 -28
l-25 -54q-7 -14 -20 -15t-23 4q-20 13 -39 15.5t-37.5 0t-37 -8.5t-39 -9t-43.5 -1.5t-49 13.5z" />
    <glyph glyph-name="Imacron" unicode="&#x12a;" 
d="M192 32q0 -12 -9.5 -22t-23.5 -10h-67q-14 0 -22.5 10t-8.5 22l-2 736q0 12 9 22t23 10h68q14 0 23.5 -10t9.5 -22v-736zM322 895q0 -12 -9.5 -22t-23.5 -10h-323q-14 0 -22 10t-10 22v63q0 12 9 22t23 10h323q14 0 23.5 -10t9.5 -22v-63z" />
    <glyph glyph-name="imacron" unicode="&#x12b;" 
d="M192 32q0 -12 -9.5 -22t-23.5 -10h-67q-14 0 -22.5 10t-8.5 22l-2 736q0 12 9 22t23 10h68q14 0 23.5 -10t9.5 -22v-736zM322 895q0 -12 -9.5 -22t-23.5 -10h-323q-14 0 -22 10t-10 22v63q0 12 9 22t23 10h323q14 0 23.5 -10t9.5 -22v-63z" />
    <glyph glyph-name="Iogonek" unicode="&#x12e;" 
d="M192 32q0 -12 -9.5 -22t-23.5 -10h-5l-68 -61q-14 -13 -23 -23t-9 -26q0 -17 11 -26.5t30 -9.5h19q12 0 21.5 1.5t14.5 9.5q6 11 16.5 16.5t21.5 -0.5l44 -25q11 -6 12.5 -17t-4.5 -23q-7 -14 -18 -28q-18 -19 -42 -25.5t-53 -6.5h-48q-27 0 -50.5 10.5t-41 29t-28 43
t-10.5 51.5q0 41 11.5 64.5t45.5 44.5l54 31h1v2l-2 736q0 12 9 22t23 10h68q14 0 23.5 -10t9.5 -22v-736z" />
    <glyph glyph-name="iogonek" unicode="&#x12f;" 
d="M192 32q0 -12 -9.5 -22t-23.5 -10h-5l-68 -61q-14 -13 -23 -23t-9 -26q0 -17 11 -26.5t30 -9.5h19q12 0 21.5 1.5t14.5 9.5q6 11 16.5 16.5t21.5 -0.5l44 -25q11 -6 12.5 -17t-4.5 -23q-7 -14 -18 -28q-18 -19 -42 -25.5t-53 -6.5h-48q-27 0 -50.5 10.5t-41 29t-28 43
t-10.5 51.5q0 41 11.5 64.5t45.5 44.5l54 31h1v2l-2 736q0 12 9 22t23 10h68q14 0 23.5 -10t9.5 -22v-736z" />
    <glyph glyph-name="Idotaccent" unicode="&#x130;" 
d="M192 32q0 -12 -9.5 -22t-23.5 -10h-67q-14 0 -22.5 10t-8.5 22l-2 736q0 12 9 22t23 10h68q14 0 23.5 -10t9.5 -22v-736zM194 893q0 -12 -9.5 -22t-23.5 -10h-68q-14 0 -23 10t-9 22v74q0 12 9 22t23 10h68q14 0 23.5 -10t9.5 -22v-74z" />
    <glyph glyph-name="IJ" unicode="&#x132;" horiz-adv-x="882" 
d="M192 32q0 -12 -9.5 -22t-23.5 -10h-68q-14 0 -22 10t-8 22l-2 736q0 12 9 22t23 10h68q14 0 23.5 -10t9.5 -22v-736zM819 263q0 -54 -20.5 -102t-56 -83.5t-83 -56.5t-101.5 -21h-78q-44 0 -84.5 15t-72.5 42t-54 63.5t-29 79.5q-3 17 -4 32.5t-1 32.5v11q0 14 8.5 24
t22.5 10h68q14 0 23.5 -10t9.5 -24v-11q0 -17 1 -31t8 -30q13 -31 42 -51t62 -20h78q27 0 50 10.5t40.5 28t27.5 41t10 50.5v477q-1 9 -1 19.5t3 19.5t10 15t21 6h68q14 0 23 -10t9 -22v-505z" />
    <glyph glyph-name="ij" unicode="&#x133;" horiz-adv-x="882" 
d="M192 32q0 -12 -9.5 -22t-23.5 -10h-68q-14 0 -22 10t-8 22l-2 736q0 12 9 22t23 10h68q14 0 23.5 -10t9.5 -22v-736zM819 263q0 -54 -20.5 -102t-56 -83.5t-83 -56.5t-101.5 -21h-78q-44 0 -84.5 15t-72.5 42t-54 63.5t-29 79.5q-3 17 -4 32.5t-1 32.5v11q0 14 8.5 24
t22.5 10h68q14 0 23.5 -10t9.5 -24v-11q0 -17 1 -31t8 -30q13 -31 42 -51t62 -20h78q27 0 50 10.5t40.5 28t27.5 41t10 50.5v477q-1 9 -1 19.5t3 19.5t10 15t21 6h68q14 0 23 -10t9 -22v-505z" />
    <glyph glyph-name="Jcircumflex" unicode="&#x134;" horiz-adv-x="681" 
d="M619 263q0 -54 -20.5 -102t-56 -83.5t-83 -56.5t-101.5 -21h-78q-44 0 -84.5 15t-72.5 42t-54 63.5t-29 79.5q-3 17 -4 32.5t-1 32.5v11q0 14 8.5 24t22.5 10h68q14 0 23.5 -10t9.5 -24v-11q0 -17 1 -31t8 -30q13 -31 42 -51t62 -20h78q27 0 50 10.5t40.5 28t27.5 41
t10 50.5v477q-1 9 -1 19.5t3 19.5t10 15t21 6h68q14 0 23 -10t9 -22v-505zM646 861q-18 0 -30 5.5t-29 20.5l-37 34l-38 -34q-17 -15 -29 -20.5t-30 -5.5h-65q-21 0 -26 11t11 26l94 87q13 15 27 21t29 6h52q22 0 34.5 -7.5t25.5 -19.5l93 -87q17 -15 11.5 -26t-26.5 -11
h-67z" />
    <glyph glyph-name="jcircumflex" unicode="&#x135;" horiz-adv-x="681" 
d="M619 263q0 -54 -20.5 -102t-56 -83.5t-83 -56.5t-101.5 -21h-78q-44 0 -84.5 15t-72.5 42t-54 63.5t-29 79.5q-3 17 -4 32.5t-1 32.5v11q0 14 8.5 24t22.5 10h68q14 0 23.5 -10t9.5 -24v-11q0 -17 1 -31t8 -30q13 -31 42 -51t62 -20h78q27 0 50 10.5t40.5 28t27.5 41
t10 50.5v477q-1 9 -1 19.5t3 19.5t10 15t21 6h68q14 0 23 -10t9 -22v-505zM646 861q-18 0 -30 5.5t-29 20.5l-37 34l-38 -34q-17 -15 -29 -20.5t-30 -5.5h-65q-21 0 -26 11t11 26l94 87q13 15 27 21t29 6h52q22 0 34.5 -7.5t25.5 -19.5l93 -87q17 -15 11.5 -26t-26.5 -11
h-67z" />
    <glyph glyph-name="uni0136" unicode="&#x136;" horiz-adv-x="699" 
d="M191 489l338 313l2 -3q1 1 11 1h93q14 0 24 -9t10 -23t-12 -24l-11 -13l-278 -261l296 -408l8 -11q11 -14 7.5 -25.5t-14.5 -19.5q-9 -6 -19 -6h-84q-9 0 -16 3.5t-14 14.5l1 -2l-264 364l-38.5 -36.5l-39.5 -36.5v-275q0 -32 -33 -32h-67q-31 0 -31 32l-2 736
q0 32 33 32h67q33 0 33 -32v-279zM430 -145q0 -6 -1.5 -9.5t-2.5 -5.5l-36 -76q-4 -9 -9.5 -11.5t-14.5 -2.5h-43q-14 0 -14.5 6t0.5 11l18 58h-8q-14 0 -23 9.5t-9 20.5v65q0 11 9 20t23 9h77q14 0 24 -9t10 -20v-65z" />
    <glyph glyph-name="uni0137" unicode="&#x137;" horiz-adv-x="699" 
d="M191 489l338 313l2 -3q1 1 11 1h93q14 0 24 -9t10 -23t-12 -24l-11 -13l-278 -261l296 -408l8 -11q11 -14 7.5 -25.5t-14.5 -19.5q-9 -6 -19 -6h-84q-9 0 -16 3.5t-14 14.5l1 -2l-264 364l-38.5 -36.5l-39.5 -36.5v-275q0 -32 -33 -32h-67q-31 0 -31 32l-2 736
q0 32 33 32h67q33 0 33 -32v-279zM438 -145q0 -6 -1.5 -9.5t-2.5 -5.5l-36 -76q-4 -9 -9.5 -11.5t-14.5 -2.5h-43q-14 0 -14.5 6t0.5 11l18 58h-8q-14 0 -23 9.5t-9 20.5v65q0 11 9 20t23 9h77q14 0 24 -9t10 -20v-65z" />
    <glyph glyph-name="kgreenlandic" unicode="&#x138;" horiz-adv-x="699" 
d="M191 489l338 313l2 -3q1 1 11 1h93q14 0 24 -9t10 -23t-12 -24l-11 -13l-278 -261l296 -408l8 -11q11 -14 7.5 -25.5t-14.5 -19.5q-9 -6 -19 -6h-84q-9 0 -16 3.5t-14 14.5l1 -2l-264 364l-38.5 -36.5l-39.5 -36.5v-275q0 -32 -33 -32h-67q-31 0 -31 32l-2 736
q0 32 33 32h67q33 0 33 -32v-279z" />
    <glyph glyph-name="Lacute" unicode="&#x139;" horiz-adv-x="603" 
d="M91 0q-30 0 -30 32l-2 736q0 32 32 32h69q23 0 27.5 -12t4.5 -27v-628h332q27 0 33 -6t6 -33v-54q0 -15 -4.5 -27.5t-27.5 -12.5h-440zM104 864q-22 0 -27 9t3 23l48 88q18 25 55 25h68q18 0 25 -8.5t-2 -22.5l-69 -87q-15 -16 -28 -21.5t-26 -5.5h-47z" />
    <glyph glyph-name="lacute" unicode="&#x13a;" horiz-adv-x="603" 
d="M91 0q-30 0 -30 32l-2 736q0 32 32 32h69q23 0 27.5 -12t4.5 -27v-628h332q27 0 33 -6t6 -33v-54q0 -15 -4.5 -27.5t-27.5 -12.5h-440zM104 864q-22 0 -27 9t3 23l48 88q18 25 55 25h68q18 0 25 -8.5t-2 -22.5l-69 -87q-15 -16 -28 -21.5t-26 -5.5h-47z" />
    <glyph glyph-name="uni013B" unicode="&#x13b;" horiz-adv-x="603" 
d="M91 0q-30 0 -30 32l-2 736q0 32 32 32h69q23 0 27.5 -12t4.5 -27v-628h332q27 0 33 -6t6 -33v-54q0 -15 -4.5 -27.5t-27.5 -12.5h-440zM383 -145q0 -6 -1.5 -9.5t-2.5 -5.5l-36 -76q-4 -9 -9.5 -11.5t-14.5 -2.5h-43q-14 0 -14.5 6t0.5 11l18 58h-8q-14 0 -23 9.5
t-9 20.5v65q0 11 9 20t23 9h77q14 0 24 -9t10 -20v-65z" />
    <glyph glyph-name="uni013C" unicode="&#x13c;" horiz-adv-x="603" 
d="M91 0q-30 0 -30 32l-2 736q0 32 32 32h69q23 0 27.5 -12t4.5 -27v-628h332q27 0 33 -6t6 -33v-54q0 -15 -4.5 -27.5t-27.5 -12.5h-440zM380 -145q0 -6 -1.5 -9.5t-2.5 -5.5l-36 -76q-4 -9 -9.5 -11.5t-14.5 -2.5h-43q-14 0 -14.5 6t0.5 11l18 58h-8q-14 0 -23 9.5
t-9 20.5v65q0 11 9 20t23 9h77q14 0 24 -9t10 -20v-65z" />
    <glyph glyph-name="Lcaron" unicode="&#x13d;" horiz-adv-x="603" 
d="M91 0q-30 0 -30 32l-2 736q0 32 32 32h69q23 0 27.5 -12t4.5 -27v-628h332q27 0 33 -6t6 -33v-54q0 -15 -4.5 -27.5t-27.5 -12.5h-440zM301 515q-12 0 -22 9.5t-10 23.5v220q0 14 10 23t22 9h61q12 0 22 -9t10 -23v-220q0 -14 -10 -23.5t-22 -9.5h-61z" />
    <glyph glyph-name="lcaron" unicode="&#x13e;" horiz-adv-x="603" 
d="M91 0q-30 0 -30 32l-2 736q0 32 32 32h69q23 0 27.5 -12t4.5 -27v-628h332q27 0 33 -6t6 -33v-54q0 -15 -4.5 -27.5t-27.5 -12.5h-440zM301 515q-12 0 -22 9.5t-10 23.5v220q0 14 10 23t22 9h61q12 0 22 -9t10 -23v-220q0 -14 -10 -23.5t-22 -9.5h-61z" />
    <glyph glyph-name="Ldot" unicode="&#x13f;" horiz-adv-x="603" 
d="M91 0q-30 0 -30 32l-2 736q0 32 32 32h69q23 0 27.5 -12t4.5 -27v-628h332q27 0 33 -6t6 -33v-54q0 -15 -4.5 -27.5t-27.5 -12.5h-440zM392 348q0 -12 -9.5 -22t-23.5 -10h-68q-14 0 -23 10t-9 22v74q0 12 9 22t23 10h68q14 0 23.5 -10t9.5 -22v-74z" />
    <glyph glyph-name="ldot" unicode="&#x140;" horiz-adv-x="603" 
d="M91 0q-30 0 -30 32l-2 736q0 32 32 32h69q23 0 27.5 -12t4.5 -27v-628h332q27 0 33 -6t6 -33v-54q0 -15 -4.5 -27.5t-27.5 -12.5h-440zM392 348q0 -12 -9.5 -22t-23.5 -10h-68q-14 0 -23 10t-9 22v74q0 12 9 22t23 10h68q14 0 23.5 -10t9.5 -22v-74z" />
    <glyph glyph-name="Nacute" unicode="&#x143;" horiz-adv-x="732" 
d="M669 32q0 -12 -9.5 -22t-23.5 -10h-68q-19 0 -28 15l-87.5 130.5l-85 126l-85.5 126.5l-89 132v-498q0 -12 -9.5 -22t-23.5 -10h-68q-14 0 -22.5 10t-8.5 22l-2 736q0 12 9 22t23 10h74q18 0 27 -16v1l343 -516v499q0 12 9.5 22t23.5 10h68q14 0 23.5 -10t9.5 -22v-736z
M361 863q-13 0 -26 5.5t-28 21.5l-69 87q-9 14 -2 22.5t25 8.5h71q37 0 55 -25l48 -88q7 -14 2.5 -23t-26.5 -9h-50z" />
    <glyph glyph-name="nacute" unicode="&#x144;" horiz-adv-x="732" 
d="M669 32q0 -12 -9.5 -22t-23.5 -10h-68q-19 0 -28 15l-87.5 130.5l-85 126l-85.5 126.5l-89 132v-498q0 -12 -9.5 -22t-23.5 -10h-68q-14 0 -22.5 10t-8.5 22l-2 736q0 12 9 22t23 10h74q18 0 27 -16v1l343 -516v499q0 12 9.5 22t23.5 10h68q14 0 23.5 -10t9.5 -22v-736z
M361 863q-13 0 -26 5.5t-28 21.5l-69 87q-9 14 -2 22.5t25 8.5h71q37 0 55 -25l48 -88q7 -14 2.5 -23t-26.5 -9h-50z" />
    <glyph glyph-name="uni0145" unicode="&#x145;" horiz-adv-x="732" 
d="M669 32q0 -12 -9.5 -22t-23.5 -10h-68q-19 0 -28 15l-87.5 130.5l-85 126l-85.5 126.5l-89 132v-498q0 -12 -9.5 -22t-23.5 -10h-68q-14 0 -22.5 10t-8.5 22l-2 736q0 12 9 22t23 10h74q18 0 27 -16v1l343 -516v499q0 12 9.5 22t23.5 10h68q14 0 23.5 -10t9.5 -22v-736z
M450 -145q0 -6 -1.5 -9.5t-2.5 -5.5l-36 -76q-4 -9 -9.5 -11.5t-14.5 -2.5h-43q-14 0 -14.5 6t0.5 11l18 58h-8q-14 0 -23 9.5t-9 20.5v65q0 11 9 20t23 9h77q14 0 24 -9t10 -20v-65z" />
    <glyph glyph-name="uni0146" unicode="&#x146;" horiz-adv-x="732" 
d="M669 32q0 -12 -9.5 -22t-23.5 -10h-68q-19 0 -28 15l-87.5 130.5l-85 126l-85.5 126.5l-89 132v-498q0 -12 -9.5 -22t-23.5 -10h-68q-14 0 -22.5 10t-8.5 22l-2 736q0 12 9 22t23 10h74q18 0 27 -16v1l343 -516v499q0 12 9.5 22t23.5 10h68q14 0 23.5 -10t9.5 -22v-736z
M448 -145q0 -6 -1.5 -9.5t-2.5 -5.5l-36 -76q-4 -9 -9.5 -11.5t-14.5 -2.5h-43q-14 0 -14.5 6t0.5 11l18 58h-8q-14 0 -23 9.5t-9 20.5v65q0 11 9 20t23 9h77q14 0 24 -9t10 -20v-65z" />
    <glyph glyph-name="Ncaron" unicode="&#x147;" horiz-adv-x="732" 
d="M669 32q0 -12 -9.5 -22t-23.5 -10h-68q-19 0 -28 15l-87.5 130.5l-85 126l-85.5 126.5l-89 132v-498q0 -12 -9.5 -22t-23.5 -10h-68q-14 0 -22.5 10t-8.5 22l-2 736q0 12 9 22t23 10h74q18 0 27 -16v1l343 -516v499q0 12 9.5 22t23.5 10h68q14 0 23.5 -10t9.5 -22v-736z
M271 1016q18 0 30 -5.5t29 -20.5l37 -34l38 34q17 15 29 20.5t30 5.5h65q21 0 26 -11t-11 -26l-94 -87q-13 -15 -27 -21t-29 -6h-52q-22 0 -34.5 7.5t-25.5 19.5l-93 87q-17 15 -11.5 26t26.5 11h67z" />
    <glyph glyph-name="ncaron" unicode="&#x148;" horiz-adv-x="732" 
d="M669 32q0 -12 -9.5 -22t-23.5 -10h-68q-19 0 -28 15l-87.5 130.5l-85 126l-85.5 126.5l-89 132v-498q0 -12 -9.5 -22t-23.5 -10h-68q-14 0 -22.5 10t-8.5 22l-2 736q0 12 9 22t23 10h74q18 0 27 -16v1l343 -516v499q0 12 9.5 22t23.5 10h68q14 0 23.5 -10t9.5 -22v-736z
M271 1016q18 0 30 -5.5t29 -20.5l37 -34l38 34q17 15 29 20.5t30 5.5h65q21 0 26 -11t-11 -26l-94 -87q-13 -15 -27 -21t-29 -6h-52q-22 0 -34.5 7.5t-25.5 19.5l-93 87q-17 15 -11.5 26t26.5 11h67z" />
    <glyph glyph-name="napostrophe" unicode="&#x149;" horiz-adv-x="900" 
d="M846 32q0 -12 -9.5 -22t-23.5 -10h-68q-19 0 -28 15l-87.5 130.5l-85 126l-85.5 126.5l-89 132v-498q0 -12 -9.5 -22t-23.5 -10h-68q-14 0 -22.5 10t-8.5 22l-2 736q0 12 9 22t23 10h74q18 0 27 -16v1l343 -516v499q0 12 9.5 22t23.5 10h68q14 0 23.5 -10t9.5 -22v-736z
M90 519q-12 0 -22 9.5t-10 23.5v220q0 14 10 23t22 9h61q12 0 22 -9t10 -23v-220q0 -14 -10 -23.5t-22 -9.5h-61z" />
    <glyph glyph-name="Omacron" unicode="&#x14c;" horiz-adv-x="795" 
d="M745 323q0 -69 -27.5 -129.5t-75 -105.5t-111 -71t-135.5 -26t-135.5 26t-111.5 71t-75.5 105.5t-27.5 129.5v157q0 69 28 129.5t75.5 105t111.5 70.5t136 26t135.5 -26t111 -70.5t74.5 -105t27 -129.5v-157zM610 480q0 42 -17 79t-46 65t-68 44t-83 16t-83.5 -16.5
t-68.5 -44t-46 -64.5t-17 -79v-157q0 -42 17 -79t46 -65t68.5 -44t83.5 -16t83 16t68 44t46 65t17 79v157zM592 895q0 -12 -9.5 -22t-23.5 -10h-323q-14 0 -22 10t-10 22v63q0 12 9 22t23 10h323q14 0 23.5 -10t9.5 -22v-63z" />
    <glyph glyph-name="omacron" unicode="&#x14d;" horiz-adv-x="795" 
d="M745 323q0 -69 -27.5 -129.5t-75 -105.5t-111 -71t-135.5 -26t-135.5 26t-111.5 71t-75.5 105.5t-27.5 129.5v157q0 69 28 129.5t75.5 105t111.5 70.5t136 26t135.5 -26t111 -70.5t74.5 -105t27 -129.5v-157zM610 480q0 42 -17 79t-46 65t-68 44t-83 16t-83.5 -16.5
t-68.5 -44t-46 -64.5t-17 -79v-157q0 -42 17 -79t46 -65t68.5 -44t83.5 -16t83 16t68 44t46 65t17 79v157zM592 895q0 -12 -9.5 -22t-23.5 -10h-323q-14 0 -22 10t-10 22v63q0 12 9 22t23 10h323q14 0 23.5 -10t9.5 -22v-63z" />
    <glyph glyph-name="Obreve" unicode="&#x14e;" horiz-adv-x="795" 
d="M530 1015q17 0 26 -10t9 -22v-5v-14.5t-2 -14.5q-4 -21 -16.5 -37.5t-30.5 -28t-40 -17t-46 -5.5h-30l-36 1q-24 0 -46 5.5t-39.5 17t-30 27.5t-16.5 37q-2 8 -2 14.5v14.5v5q0 12 9 22t26 10h32q15 0 25.5 -9.5t10.5 -22.5v-5q0 -12 2 -18q4 -8 12.5 -13t17.5 -5h65
q9 0 17.5 5t12.5 13q3 7 3 18v5q0 13 10 22.5t25 9.5h32zM610 480q0 42 -17 79t-46 65t-68 44t-83 16t-83.5 -16.5t-68.5 -44t-46 -64.5t-17 -79v-157q0 -42 17 -79t46 -65t68.5 -44t83.5 -16t83 16t68 44t46 65t17 79v157zM745 323q0 -69 -27.5 -129.5t-75 -105.5t-111 -71
t-135.5 -26t-135.5 26t-111.5 71t-75.5 105.5t-27.5 129.5v157q0 69 28 129.5t75.5 105t111.5 70.5t136 26t135.5 -26t111 -70.5t74.5 -105t27 -129.5v-157z" />
    <glyph glyph-name="obreve" unicode="&#x14f;" horiz-adv-x="795" 
d="M530 1015q17 0 26 -10t9 -22v-5v-14.5t-2 -14.5q-4 -21 -16.5 -37.5t-30.5 -28t-40 -17t-46 -5.5h-30l-36 1q-24 0 -46 5.5t-39.5 17t-30 27.5t-16.5 37q-2 8 -2 14.5v14.5v5q0 12 9 22t26 10h32q15 0 25.5 -9.5t10.5 -22.5v-5q0 -12 2 -18q4 -8 12.5 -13t17.5 -5h65
q9 0 17.5 5t12.5 13q3 7 3 18v5q0 13 10 22.5t25 9.5h32zM610 480q0 42 -17 79t-46 65t-68 44t-83 16t-83.5 -16.5t-68.5 -44t-46 -64.5t-17 -79v-157q0 -42 17 -79t46 -65t68.5 -44t83.5 -16t83 16t68 44t46 65t17 79v157zM745 323q0 -69 -27.5 -129.5t-75 -105.5t-111 -71
t-135.5 -26t-135.5 26t-111.5 71t-75.5 105.5t-27.5 129.5v157q0 69 28 129.5t75.5 105t111.5 70.5t136 26t135.5 -26t111 -70.5t74.5 -105t27 -129.5v-157z" />
    <glyph glyph-name="Ohungarumlaut" unicode="&#x150;" horiz-adv-x="795" 
d="M745 323q0 -69 -27.5 -129.5t-75 -105.5t-111 -71t-135.5 -26t-135.5 26t-111.5 71t-75.5 105.5t-27.5 129.5v157q0 69 28 129.5t75.5 105t111.5 70.5t136 26t135.5 -26t111 -70.5t74.5 -105t27 -129.5v-157zM610 480q0 42 -17 79t-46 65t-68 44t-83 16t-83.5 -16.5
t-68.5 -44t-46 -64.5t-17 -79v-157q0 -42 17 -79t46 -65t68.5 -44t83.5 -16t83 16t68 44t46 65t17 79v157zM278 862q-22 0 -27 9t3 23l48 88q18 25 55 25h68q18 0 25 -8.5t-2 -22.5l-69 -87q-15 -16 -28 -21.5t-26 -5.5h-47zM471 862q-22 0 -27 9t3 23l48 88q18 25 55 25h68
q18 0 25 -8.5t-2 -22.5l-69 -87q-15 -16 -28 -21.5t-26 -5.5h-47z" />
    <glyph glyph-name="ohungarumlaut" unicode="&#x151;" horiz-adv-x="795" 
d="M745 323q0 -69 -27.5 -129.5t-75 -105.5t-111 -71t-135.5 -26t-135.5 26t-111.5 71t-75.5 105.5t-27.5 129.5v157q0 69 28 129.5t75.5 105t111.5 70.5t136 26t135.5 -26t111 -70.5t74.5 -105t27 -129.5v-157zM610 480q0 42 -17 79t-46 65t-68 44t-83 16t-83.5 -16.5
t-68.5 -44t-46 -64.5t-17 -79v-157q0 -42 17 -79t46 -65t68.5 -44t83.5 -16t83 16t68 44t46 65t17 79v157zM278 862q-22 0 -27 9t3 23l48 88q18 25 55 25h68q18 0 25 -8.5t-2 -22.5l-69 -87q-15 -16 -28 -21.5t-26 -5.5h-47zM471 862q-22 0 -27 9t3 23l48 88q18 25 55 25h68
q18 0 25 -8.5t-2 -22.5l-69 -87q-15 -16 -28 -21.5t-26 -5.5h-47z" />
    <glyph glyph-name="Racute" unicode="&#x154;" horiz-adv-x="699" 
d="M194 667v-218l46.5 23l56 28.5l58.5 31t53 30t41.5 27t22.5 20.5v-1q6 9 6 21q0 16 -11 27t-28 11h-245zM447 800q34 0 64.5 -14t53.5 -37t37 -54t14 -65q0 -57 -27.5 -93.5t-70.5 -65.5l31 -82l30 -82l49 -132.5l51 -133.5q8 -20 -1.5 -30.5t-29.5 -10.5h-76
q-16 0 -22 7.5t-10 17.5l-144 381l-100 -53l-102 -54v-260q0 -15 -4.5 -27t-27.5 -12h-71q-14 0 -22.5 10t-8.5 22l-2 736q0 12 9.5 22t23.5 10h356zM277 866q-22 0 -27 9t3 23l48 88q18 25 55 25h68q18 0 25 -8.5t-2 -22.5l-69 -87q-15 -16 -28 -21.5t-26 -5.5h-47z" />
    <glyph glyph-name="racute" unicode="&#x155;" horiz-adv-x="699" 
d="M194 667v-218l46.5 23l56 28.5l58.5 31t53 30t41.5 27t22.5 20.5v-1q6 9 6 21q0 16 -11 27t-28 11h-245zM447 800q34 0 64.5 -14t53.5 -37t37 -54t14 -65q0 -57 -27.5 -93.5t-70.5 -65.5l31 -82l30 -82l49 -132.5l51 -133.5q8 -20 -1.5 -30.5t-29.5 -10.5h-76
q-16 0 -22 7.5t-10 17.5l-144 381l-100 -53l-102 -54v-260q0 -15 -4.5 -27t-27.5 -12h-71q-14 0 -22.5 10t-8.5 22l-2 736q0 12 9.5 22t23.5 10h356zM277 866q-22 0 -27 9t3 23l48 88q18 25 55 25h68q18 0 25 -8.5t-2 -22.5l-69 -87q-15 -16 -28 -21.5t-26 -5.5h-47z" />
    <glyph glyph-name="uni0156" unicode="&#x156;" horiz-adv-x="699" 
d="M194 667v-218l46.5 23l56 28.5l58.5 31t53 30t41.5 27t22.5 20.5v-1q6 9 6 21q0 16 -11 27t-28 11h-245zM447 800q34 0 64.5 -14t53.5 -37t37 -54t14 -65q0 -57 -27.5 -93.5t-70.5 -65.5l31 -82l30 -82l49 -132.5l51 -133.5q8 -20 -1.5 -30.5t-29.5 -10.5h-76
q-16 0 -22 7.5t-10 17.5l-144 381l-100 -53l-102 -54v-260q0 -15 -4.5 -27t-27.5 -12h-71q-14 0 -22.5 10t-8.5 22l-2 736q0 12 9.5 22t23.5 10h356zM443 -145q0 -6 -1.5 -9.5t-2.5 -5.5l-36 -76q-4 -9 -9.5 -11.5t-14.5 -2.5h-43q-14 0 -14.5 6t0.5 11l18 58h-8
q-14 0 -23 9.5t-9 20.5v65q0 11 9 20t23 9h77q14 0 24 -9t10 -20v-65z" />
    <glyph glyph-name="uni0157" unicode="&#x157;" horiz-adv-x="699" 
d="M194 667v-218l46.5 23l56 28.5l58.5 31t53 30t41.5 27t22.5 20.5v-1q6 9 6 21q0 16 -11 27t-28 11h-245zM447 800q34 0 64.5 -14t53.5 -37t37 -54t14 -65q0 -57 -27.5 -93.5t-70.5 -65.5l31 -82l30 -82l49 -132.5l51 -133.5q8 -20 -1.5 -30.5t-29.5 -10.5h-76
q-16 0 -22 7.5t-10 17.5l-144 381l-100 -53l-102 -54v-260q0 -15 -4.5 -27t-27.5 -12h-71q-14 0 -22.5 10t-8.5 22l-2 736q0 12 9.5 22t23.5 10h356zM444 -145q0 -6 -1.5 -9.5t-2.5 -5.5l-36 -76q-4 -9 -9.5 -11.5t-14.5 -2.5h-43q-14 0 -14.5 6t0.5 11l18 58h-8
q-14 0 -23 9.5t-9 20.5v65q0 11 9 20t23 9h77q14 0 24 -9t10 -20v-65z" />
    <glyph glyph-name="Rcaron" unicode="&#x158;" horiz-adv-x="699" 
d="M194 667v-218l46.5 23l56 28.5l58.5 31t53 30t41.5 27t22.5 20.5v-1q6 9 6 21q0 16 -11 27t-28 11h-245zM447 800q34 0 64.5 -14t53.5 -37t37 -54t14 -65q0 -57 -27.5 -93.5t-70.5 -65.5l31 -82l30 -82l49 -132.5l51 -133.5q8 -20 -1.5 -30.5t-29.5 -10.5h-76
q-16 0 -22 7.5t-10 17.5l-144 381l-100 -53l-102 -54v-260q0 -15 -4.5 -27t-27.5 -12h-71q-14 0 -22.5 10t-8.5 22l-2 736q0 12 9.5 22t23.5 10h356zM237 1016q18 0 30 -5.5t29 -20.5l37 -34l38 34q17 15 29 20.5t30 5.5h65q21 0 26 -11t-11 -26l-94 -87q-13 -15 -27 -21
t-29 -6h-52q-22 0 -34.5 7.5t-25.5 19.5l-93 87q-17 15 -11.5 26t26.5 11h67z" />
    <glyph glyph-name="rcaron" unicode="&#x159;" horiz-adv-x="699" 
d="M194 667v-218l46.5 23l56 28.5l58.5 31t53 30t41.5 27t22.5 20.5v-1q6 9 6 21q0 16 -11 27t-28 11h-245zM447 800q34 0 64.5 -14t53.5 -37t37 -54t14 -65q0 -57 -27.5 -93.5t-70.5 -65.5l31 -82l30 -82l49 -132.5l51 -133.5q8 -20 -1.5 -30.5t-29.5 -10.5h-76
q-16 0 -22 7.5t-10 17.5l-144 381l-100 -53l-102 -54v-260q0 -15 -4.5 -27t-27.5 -12h-71q-14 0 -22.5 10t-8.5 22l-2 736q0 12 9.5 22t23.5 10h356zM237 1016q18 0 30 -5.5t29 -20.5l37 -34l38 34q17 15 29 20.5t30 5.5h65q21 0 26 -11t-11 -26l-94 -87q-13 -15 -27 -21
t-29 -6h-52q-22 0 -34.5 7.5t-25.5 19.5l-93 87q-17 15 -11.5 26t26.5 11h67z" />
    <glyph glyph-name="Sacute" unicode="&#x15a;" horiz-adv-x="668" 
d="M623 248q0 -29 -5.5 -58t-15.5 -55.5t-24 -49t-31 -37.5q-34 -30 -80.5 -43.5t-100.5 -13.5h-76q-66 0 -120.5 30.5t-86.5 82.5q-21 35 -27 65q-6 31 -7 47.5t-1 33.5v-2q0 15 4 27t27 12h68q24 0 30 -24q3 -10 3 -15v-17q0 -4 0.5 -10.5t1.5 -16.5q8 -37 38.5 -61
t69.5 -24h76q45 0 79.5 23t41.5 63q1 5 1.5 10t0.5 10t0.5 12.5t-1 15.5t-5 16t-9.5 14q-21 18 -64 28l-97 23q-48 11 -95.5 25t-85.5 36.5t-61.5 56.5t-23.5 84v14q0 16 0.5 32.5t5.5 36.5l-1 -1q8 42 30 77t54 60.5t71.5 40t82.5 14.5h76q45 0 86.5 -15.5t75.5 -42.5
t53 -75.5t17 -106.5q-1 -15 -5 -27t-27 -12h-66q-14 0 -22.5 10t-9.5 22q-2 64 -28 90.5t-74 26.5h-76q-19 0 -37 -6.5t-32.5 -18.5t-25 -28t-14.5 -35v1q-2 -13 -2.5 -33t18.5 -39q20 -20 43 -26l115 -32l77 -21.5t51 -15.5q20 -7 37.5 -15.5t32.5 -18.5q31 -21 50.5 -57
t19.5 -87zM301 864q-22 0 -27 9t3 23l48 88q18 25 55 25h68q18 0 25 -8.5t-2 -22.5l-69 -87q-15 -16 -28 -21.5t-26 -5.5h-47z" />
    <glyph glyph-name="sacute" unicode="&#x15b;" horiz-adv-x="668" 
d="M623 248q0 -29 -5.5 -58t-15.5 -55.5t-24 -49t-31 -37.5q-34 -30 -80.5 -43.5t-100.5 -13.5h-76q-66 0 -120.5 30.5t-86.5 82.5q-21 35 -27 65q-6 31 -7 47.5t-1 33.5v-2q0 15 4 27t27 12h68q24 0 30 -24q3 -10 3 -15v-17q0 -4 0.5 -10.5t1.5 -16.5q8 -37 38.5 -61
t69.5 -24h76q45 0 79.5 23t41.5 63q1 5 1.5 10t0.5 10t0.5 12.5t-1 15.5t-5 16t-9.5 14q-21 18 -64 28l-97 23q-48 11 -95.5 25t-85.5 36.5t-61.5 56.5t-23.5 84v14q0 16 0.5 32.5t5.5 36.5l-1 -1q8 42 30 77t54 60.5t71.5 40t82.5 14.5h76q45 0 86.5 -15.5t75.5 -42.5
t53 -75.5t17 -106.5q-1 -15 -5 -27t-27 -12h-66q-14 0 -22.5 10t-9.5 22q-2 64 -28 90.5t-74 26.5h-76q-19 0 -37 -6.5t-32.5 -18.5t-25 -28t-14.5 -35v1q-2 -13 -2.5 -33t18.5 -39q20 -20 43 -26l115 -32l77 -21.5t51 -15.5q20 -7 37.5 -15.5t32.5 -18.5q31 -21 50.5 -57
t19.5 -87zM301 864q-22 0 -27 9t3 23l48 88q18 25 55 25h68q18 0 25 -8.5t-2 -22.5l-69 -87q-15 -16 -28 -21.5t-26 -5.5h-47z" />
    <glyph glyph-name="Scircumflex" unicode="&#x15c;" horiz-adv-x="668" 
d="M623 248q0 -29 -5.5 -58t-15.5 -55.5t-24 -49t-31 -37.5q-34 -30 -80.5 -43.5t-100.5 -13.5h-76q-66 0 -120.5 30.5t-86.5 82.5q-21 35 -27 65q-6 31 -7 47.5t-1 33.5v-2q0 15 4 27t27 12h68q24 0 30 -24q3 -10 3 -15v-17q0 -4 0.5 -10.5t1.5 -16.5q8 -37 38.5 -61
t69.5 -24h76q45 0 79.5 23t41.5 63q1 5 1.5 10t0.5 10t0.5 12.5t-1 15.5t-5 16t-9.5 14q-21 18 -64 28l-97 23q-48 11 -95.5 25t-85.5 36.5t-61.5 56.5t-23.5 84v14q0 16 0.5 32.5t5.5 36.5l-1 -1q8 42 30 77t54 60.5t71.5 40t82.5 14.5h76q45 0 86.5 -15.5t75.5 -42.5
t53 -75.5t17 -106.5q-1 -15 -5 -27t-27 -12h-66q-14 0 -22.5 10t-9.5 22q-2 64 -28 90.5t-74 26.5h-76q-19 0 -37 -6.5t-32.5 -18.5t-25 -28t-14.5 -35v1q-2 -13 -2.5 -33t18.5 -39q20 -20 43 -26l115 -32l77 -21.5t51 -15.5q20 -7 37.5 -15.5t32.5 -18.5q31 -21 50.5 -57
t19.5 -87zM430 861q-18 0 -30.5 5.5t-28.5 20.5l-37 34l-38 -34q-17 -15 -29 -20.5t-30 -5.5h-65q-21 0 -26.5 11t11.5 26l94 87q13 15 27 21t29 6h52q22 0 34 -7.5t26 -19.5l93 -87q16 -15 11 -26t-26 -11h-67z" />
    <glyph glyph-name="scircumflex" unicode="&#x15d;" horiz-adv-x="668" 
d="M623 248q0 -29 -5.5 -58t-15.5 -55.5t-24 -49t-31 -37.5q-34 -30 -80.5 -43.5t-100.5 -13.5h-76q-66 0 -120.5 30.5t-86.5 82.5q-21 35 -27 65q-6 31 -7 47.5t-1 33.5v-2q0 15 4 27t27 12h68q24 0 30 -24q3 -10 3 -15v-17q0 -4 0.5 -10.5t1.5 -16.5q8 -37 38.5 -61
t69.5 -24h76q45 0 79.5 23t41.5 63q1 5 1.5 10t0.5 10t0.5 12.5t-1 15.5t-5 16t-9.5 14q-21 18 -64 28l-97 23q-48 11 -95.5 25t-85.5 36.5t-61.5 56.5t-23.5 84v14q0 16 0.5 32.5t5.5 36.5l-1 -1q8 42 30 77t54 60.5t71.5 40t82.5 14.5h76q45 0 86.5 -15.5t75.5 -42.5
t53 -75.5t17 -106.5q-1 -15 -5 -27t-27 -12h-66q-14 0 -22.5 10t-9.5 22q-2 64 -28 90.5t-74 26.5h-76q-19 0 -37 -6.5t-32.5 -18.5t-25 -28t-14.5 -35v1q-2 -13 -2.5 -33t18.5 -39q20 -20 43 -26l115 -32l77 -21.5t51 -15.5q20 -7 37.5 -15.5t32.5 -18.5q31 -21 50.5 -57
t19.5 -87zM430 861q-18 0 -30.5 5.5t-28.5 20.5l-37 34l-38 -34q-17 -15 -29 -20.5t-30 -5.5h-65q-21 0 -26.5 11t11.5 26l94 87q13 15 27 21t29 6h52q22 0 34 -7.5t26 -19.5l93 -87q16 -15 11 -26t-26 -11h-67z" />
    <glyph glyph-name="Scedilla" unicode="&#x15e;" horiz-adv-x="668" 
d="M278 -9q-63 3 -114 33.5t-81 79.5q-21 35 -27 65t-7 46t-1 33q0 15 4 27t27 12h68q24 0 30 -24q3 -10 3 -15v-17q0 -4 0.5 -10.5t1.5 -16.5q8 -37 38.5 -61t69.5 -24h76q45 0 79.5 23t41.5 63q1 5 1.5 10t0.5 10t0.5 12.5t-1 15.5t-5 16t-9.5 14q-21 18 -64 28l-97 23
q-48 11 -95.5 25t-85.5 36.5t-61.5 56.5t-23.5 84v14q0 16 0.5 32.5t5.5 36.5l-1 -1q8 42 30 77t54 60.5t71.5 40t82.5 14.5h76q45 0 86.5 -15.5t75.5 -42.5t53 -75.5t17 -106.5q-1 -15 -5 -27t-27 -12h-66q-14 0 -22.5 10t-9.5 22q-2 64 -28 90.5t-74 26.5h-76
q-19 0 -37 -6.5t-32.5 -18.5t-25 -28t-14.5 -35v1q-2 -13 -2.5 -33t18.5 -39q20 -20 43 -26l115 -32l77 -21.5t51 -15.5q20 -7 37.5 -15.5t32.5 -18.5q31 -21 50.5 -57t19.5 -87q0 -29 -5.5 -58t-15.5 -55.5t-24 -49t-31 -37.5q-32 -29 -76 -42t-95 -15l-14 -37l10 -2t10 -3
q35 -11 56.5 -39t21.5 -70q0 -27 -10.5 -51.5t-28.5 -43t-41.5 -29t-50.5 -10.5h-48q-29 0 -53 11.5t-42 30.5q-11 14 -18 28q-6 12 -4.5 23t12.5 17l44 25q11 6 21.5 0.5t16.5 -16.5q5 -8 14.5 -14.5t21.5 -6.5h19q19 0 30 9.5t11 26.5q0 16 -11 27.5t-30 11.5h-47
q-14 0 -18.5 9t0.5 24z" />
    <glyph glyph-name="uni0162" unicode="&#x162;" horiz-adv-x="640" 
d="M387 671v-632q0 -13 -3 -24t-18 -14v-1l-18 -46l10 -2t10 -3q35 -11 56.5 -39t21.5 -70q0 -27 -10.5 -51.5t-28.5 -43t-41.5 -29t-50.5 -10.5h-48q-29 0 -53 11.5t-42 30.5q-11 14 -18 28q-6 12 -4.5 23t12.5 17l44 25q11 6 21.5 0.5t16.5 -16.5q5 -8 14.5 -14.5
t21.5 -6.5h19q19 0 30 9.5t11 26.5q0 16 -11 27.5t-30 11.5h-47q-14 0 -18.5 9t0.5 24l34 91q-11 5 -12.5 15t-1.5 21v632h-194q-26 0 -33 7.5t-7 31.5v51q0 15 4.5 27t27.5 12h533q23 0 28 -12t5 -27v-51q0 -24 -6.5 -31.5t-32.5 -7.5h-192z" />
    <glyph glyph-name="uni0163" unicode="&#x163;" horiz-adv-x="640" 
d="M387 671v-632q0 -13 -3 -24t-18 -14v-1l-18 -46l10 -2t10 -3q35 -11 56.5 -39t21.5 -70q0 -27 -10.5 -51.5t-28.5 -43t-41.5 -29t-50.5 -10.5h-48q-29 0 -53 11.5t-42 30.5q-11 14 -18 28q-6 12 -4.5 23t12.5 17l44 25q11 6 21.5 0.5t16.5 -16.5q5 -8 14.5 -14.5
t21.5 -6.5h19q19 0 30 9.5t11 26.5q0 16 -11 27.5t-30 11.5h-47q-14 0 -18.5 9t0.5 24l34 91q-11 5 -12.5 15t-1.5 21v632h-194q-26 0 -33 7.5t-7 31.5v51q0 15 4.5 27t27.5 12h533q23 0 28 -12t5 -27v-51q0 -24 -6.5 -31.5t-32.5 -7.5h-192z" />
    <glyph glyph-name="Tcaron" unicode="&#x164;" horiz-adv-x="640" 
d="M387 671v-632q0 -15 -4.5 -27t-27.5 -12h-69q-23 0 -27.5 12t-4.5 27v632h-194q-26 0 -33 7.5t-7 31.5v51q0 15 4.5 27t27.5 12h533q23 0 28 -12t5 -27v-51q0 -24 -6.5 -31.5t-32.5 -7.5h-192zM225 1016q18 0 30 -5.5t29 -20.5l37 -34l38 34q17 15 29 20.5t30 5.5h65
q21 0 26 -11t-11 -26l-94 -87q-13 -15 -27 -21t-29 -6h-52q-22 0 -34.5 7.5t-25.5 19.5l-93 87q-17 15 -11.5 26t26.5 11h67z" />
    <glyph glyph-name="tcaron" unicode="&#x165;" horiz-adv-x="640" 
d="M387 671v-632q0 -15 -4.5 -27t-27.5 -12h-69q-23 0 -27.5 12t-4.5 27v632h-194q-26 0 -33 7.5t-7 31.5v51q0 15 4.5 27t27.5 12h533q23 0 28 -12t5 -27v-51q0 -24 -6.5 -31.5t-32.5 -7.5h-192zM225 1016q18 0 30 -5.5t29 -20.5l37 -34l38 34q17 15 29 20.5t30 5.5h65
q21 0 26 -11t-11 -26l-94 -87q-13 -15 -27 -21t-29 -6h-52q-22 0 -34.5 7.5t-25.5 19.5l-93 87q-17 15 -11.5 26t26.5 11h67z" />
    <glyph glyph-name="Tbar" unicode="&#x166;" horiz-adv-x="640" 
d="M594 399q0 -12 -9.5 -22t-23.5 -10h-174v-328q0 -15 -4.5 -27t-27.5 -12h-69q-23 0 -27.5 12t-4.5 27v328h-176q-14 0 -23 10t-9 22v63q0 12 9 22t23 10h176v177h-194q-26 0 -33 7.5t-7 31.5v51q0 15 4.5 27t27.5 12h533q23 0 28 -12t5 -27v-51q0 -24 -6.5 -31.5
t-32.5 -7.5h-192v-177h174q14 0 23.5 -10t9.5 -22v-63z" />
    <glyph glyph-name="tbar" unicode="&#x167;" horiz-adv-x="640" 
d="M594 399q0 -12 -9.5 -22t-23.5 -10h-174v-328q0 -15 -4.5 -27t-27.5 -12h-69q-23 0 -27.5 12t-4.5 27v328h-176q-14 0 -23 10t-9 22v63q0 12 9 22t23 10h176v177h-194q-26 0 -33 7.5t-7 31.5v51q0 15 4.5 27t27.5 12h533q23 0 28 -12t5 -27v-51q0 -24 -6.5 -31.5
t-32.5 -7.5h-192v-177h174q14 0 23.5 -10t9.5 -22v-63z" />
    <glyph glyph-name="Utilde" unicode="&#x168;" horiz-adv-x="700" 
d="M637 254q0 -53 -20.5 -99t-56 -80.5t-82.5 -54.5t-99 -20h-77q-50 0 -94 18.5t-77 51t-52.5 76.5t-19.5 95v527q0 32 32 32h67q23 0 27.5 -12t4.5 -27v-520q0 -23 9 -43t24.5 -35t35.5 -23.5t43 -8.5h77q26 0 49 9.5t40 26.5t27 39t10 48v507q0 15 5 27t28 12h66
q33 0 33 -32v-514zM201 880q-11 5 -15 14q-9 8 0 29l22 54q5 11 16.5 15.5t26.5 -1.5q26 -10 46.5 -11t38 2.5t34 9t35.5 7t41 -2.5t51 -19q12 -5 17 -14q10 -7 0 -28l-25 -54q-7 -14 -20 -15t-23 4q-20 13 -39 15.5t-37.5 0t-37 -8.5t-39 -9t-43.5 -1.5t-49 13.5z" />
    <glyph glyph-name="utilde" unicode="&#x169;" horiz-adv-x="700" 
d="M637 254q0 -53 -20.5 -99t-56 -80.5t-82.5 -54.5t-99 -20h-77q-50 0 -94 18.5t-77 51t-52.5 76.5t-19.5 95v527q0 32 32 32h67q23 0 27.5 -12t4.5 -27v-520q0 -23 9 -43t24.5 -35t35.5 -23.5t43 -8.5h77q26 0 49 9.5t40 26.5t27 39t10 48v507q0 15 5 27t28 12h66
q33 0 33 -32v-514zM201 880q-11 5 -15 14q-9 8 0 29l22 54q5 11 16.5 15.5t26.5 -1.5q26 -10 46.5 -11t38 2.5t34 9t35.5 7t41 -2.5t51 -19q12 -5 17 -14q10 -7 0 -28l-25 -54q-7 -14 -20 -15t-23 4q-20 13 -39 15.5t-37.5 0t-37 -8.5t-39 -9t-43.5 -1.5t-49 13.5z" />
    <glyph glyph-name="Umacron" unicode="&#x16a;" horiz-adv-x="700" 
d="M637 254q0 -53 -20.5 -99t-56 -80.5t-82.5 -54.5t-99 -20h-77q-50 0 -94 18.5t-77 51t-52.5 76.5t-19.5 95v527q0 32 32 32h67q23 0 27.5 -12t4.5 -27v-520q0 -23 9 -43t24.5 -35t35.5 -23.5t43 -8.5h77q26 0 49 9.5t40 26.5t27 39t10 48v507q0 15 5 27t28 12h66
q33 0 33 -32v-514zM544 895q0 -12 -9.5 -22t-23.5 -10h-323q-14 0 -22 10t-10 22v63q0 12 9 22t23 10h323q14 0 23.5 -10t9.5 -22v-63z" />
    <glyph glyph-name="umacron" unicode="&#x16b;" horiz-adv-x="700" 
d="M637 254q0 -53 -20.5 -99t-56 -80.5t-82.5 -54.5t-99 -20h-77q-50 0 -94 18.5t-77 51t-52.5 76.5t-19.5 95v527q0 32 32 32h67q23 0 27.5 -12t4.5 -27v-520q0 -23 9 -43t24.5 -35t35.5 -23.5t43 -8.5h77q26 0 49 9.5t40 26.5t27 39t10 48v507q0 15 5 27t28 12h66
q33 0 33 -32v-514zM544 895q0 -12 -9.5 -22t-23.5 -10h-323q-14 0 -22 10t-10 22v63q0 12 9 22t23 10h323q14 0 23.5 -10t9.5 -22v-63z" />
    <glyph glyph-name="Ubreve" unicode="&#x16c;" horiz-adv-x="700" 
d="M483 1015q17 0 26 -10t9 -22v-5v-14.5t-2 -14.5q-4 -21 -16.5 -37.5t-30.5 -28t-40 -17t-46 -5.5h-31l-35 1q-48 1 -86 22.5t-46 64.5q-2 8 -2.5 14.5t-0.5 14.5v5q0 12 9 22t26 10h32q16 0 26 -9.5t10 -22.5v-5q0 -7 0.5 -10.5t2.5 -7.5q4 -8 12 -13t17 -5h66
q9 0 17.5 5t12.5 13q2 6 2 18v5q0 13 10 22.5t26 9.5h32zM637 254q0 -53 -20.5 -99t-56 -80.5t-82.5 -54.5t-99 -20h-77q-50 0 -94 18.5t-77 51t-52.5 76.5t-19.5 95v527q0 32 32 32h67q23 0 27.5 -12t4.5 -27v-520q0 -23 9 -43t24.5 -35t35.5 -23.5t43 -8.5h77q26 0 49 9.5
t40 26.5t27 39t10 48v507q0 15 5 27t28 12h66q33 0 33 -32v-514z" />
    <glyph glyph-name="ubreve" unicode="&#x16d;" horiz-adv-x="700" 
d="M483 1015q17 0 26 -10t9 -22v-5v-14.5t-2 -14.5q-4 -21 -16.5 -37.5t-30.5 -28t-40 -17t-46 -5.5h-31l-35 1q-48 1 -86 22.5t-46 64.5q-2 8 -2.5 14.5t-0.5 14.5v5q0 12 9 22t26 10h32q16 0 26 -9.5t10 -22.5v-5q0 -7 0.5 -10.5t2.5 -7.5q4 -8 12 -13t17 -5h66
q9 0 17.5 5t12.5 13q2 6 2 18v5q0 13 10 22.5t26 9.5h32zM637 254q0 -53 -20.5 -99t-56 -80.5t-82.5 -54.5t-99 -20h-77q-50 0 -94 18.5t-77 51t-52.5 76.5t-19.5 95v527q0 32 32 32h67q23 0 27.5 -12t4.5 -27v-520q0 -23 9 -43t24.5 -35t35.5 -23.5t43 -8.5h77q26 0 49 9.5
t40 26.5t27 39t10 48v507q0 15 5 27t28 12h66q33 0 33 -32v-514z" />
    <glyph glyph-name="Uring" unicode="&#x16e;" horiz-adv-x="700" 
d="M637 254q0 -53 -20.5 -99t-56 -80.5t-82.5 -54.5t-99 -20h-77q-50 0 -94 18.5t-77 51t-52.5 76.5t-19.5 95v527q0 32 32 32h67q23 0 27.5 -12t4.5 -27v-520q0 -23 9 -43t24.5 -35t35.5 -23.5t43 -8.5h77q26 0 49 9.5t40 26.5t27 39t10 48v507q0 15 5 27t28 12h66
q33 0 33 -32v-514zM328 791q-23 0 -42.5 9t-33.5 24.5t-22.5 36.5t-8.5 44t8.5 44t22.5 36.5t33.5 24.5t42.5 9h41q22 0 42 -9t35 -25t24 -36.5t9 -43.5q0 -24 -9 -45t-24 -36t-35 -24t-42 -9h-41zM356 869q14 0 24.5 11t12.5 25q-2 16 -12.5 26t-24.5 10h-16
q-14 0 -24.5 -10t-8.5 -26q-2 -14 8.5 -25t24.5 -11h16z" />
    <glyph glyph-name="uring" unicode="&#x16f;" horiz-adv-x="700" 
d="M637 254q0 -53 -20.5 -99t-56 -80.5t-82.5 -54.5t-99 -20h-77q-50 0 -94 18.5t-77 51t-52.5 76.5t-19.5 95v527q0 32 32 32h67q23 0 27.5 -12t4.5 -27v-520q0 -23 9 -43t24.5 -35t35.5 -23.5t43 -8.5h77q26 0 49 9.5t40 26.5t27 39t10 48v507q0 15 5 27t28 12h66
q33 0 33 -32v-514zM328 791q-23 0 -42.5 9t-33.5 24.5t-22.5 36.5t-8.5 44t8.5 44t22.5 36.5t33.5 24.5t42.5 9h41q22 0 42 -9t35 -25t24 -36.5t9 -43.5q0 -24 -9 -45t-24 -36t-35 -24t-42 -9h-41zM356 869q14 0 24.5 11t12.5 25q-2 16 -12.5 26t-24.5 10h-16
q-14 0 -24.5 -10t-8.5 -26q-2 -14 8.5 -25t24.5 -11h16z" />
    <glyph glyph-name="Uhungarumlaut" unicode="&#x170;" horiz-adv-x="700" 
d="M637 254q0 -53 -20.5 -99t-56 -80.5t-82.5 -54.5t-99 -20h-77q-50 0 -94 18.5t-77 51t-52.5 76.5t-19.5 95v527q0 32 32 32h67q23 0 27.5 -12t4.5 -27v-520q0 -23 9 -43t24.5 -35t35.5 -23.5t43 -8.5h77q26 0 49 9.5t40 26.5t27 39t10 48v507q0 15 5 27t28 12h66
q33 0 33 -32v-514zM221 862q-22 0 -27 9t3 23l48 88q18 25 55 25h68q18 0 25 -8.5t-2 -22.5l-69 -87q-15 -16 -28 -21.5t-26 -5.5h-47zM414 862q-22 0 -27 9t3 23l48 88q18 25 55 25h68q18 0 25 -8.5t-2 -22.5l-69 -87q-15 -16 -28 -21.5t-26 -5.5h-47z" />
    <glyph glyph-name="uhungarumlaut" unicode="&#x171;" horiz-adv-x="700" 
d="M637 254q0 -53 -20.5 -99t-56 -80.5t-82.5 -54.5t-99 -20h-77q-50 0 -94 18.5t-77 51t-52.5 76.5t-19.5 95v527q0 32 32 32h67q23 0 27.5 -12t4.5 -27v-520q0 -23 9 -43t24.5 -35t35.5 -23.5t43 -8.5h77q26 0 49 9.5t40 26.5t27 39t10 48v507q0 15 5 27t28 12h66
q33 0 33 -32v-514zM221 862q-22 0 -27 9t3 23l48 88q18 25 55 25h68q18 0 25 -8.5t-2 -22.5l-69 -87q-15 -16 -28 -21.5t-26 -5.5h-47zM414 862q-22 0 -27 9t3 23l48 88q18 25 55 25h68q18 0 25 -8.5t-2 -22.5l-69 -87q-15 -16 -28 -21.5t-26 -5.5h-47z" />
    <glyph glyph-name="Uogonek" unicode="&#x172;" horiz-adv-x="700" 
d="M637 254q0 -48 -17.5 -91t-48 -77t-71.5 -56t-87 -28l-71 -63q-14 -13 -23 -23t-9 -26q0 -17 11 -26.5t30 -9.5h19q12 0 21.5 1.5t14.5 9.5q6 11 16.5 16.5t21.5 -0.5l44 -25q11 -6 12.5 -17t-4.5 -23q-7 -14 -18 -28q-18 -19 -42 -25.5t-53 -6.5h-48q-27 0 -50.5 10.5
t-41.5 29t-28.5 43t-10.5 51.5q0 21 2.5 36.5t9 28t18 23t28.5 21.5q1 0 2 1l3 2q-44 6 -81.5 27t-66 52.5t-44.5 72.5t-16 87v527q0 32 32 32h67q23 0 27.5 -12t4.5 -27v-520q0 -23 9 -43t24.5 -35t35.5 -23.5t43 -8.5h77q26 0 49 9.5t40 26.5t27 39t10 48v507q0 15 5 27
t28 12h66q33 0 33 -32v-514z" />
    <glyph glyph-name="uogonek" unicode="&#x173;" horiz-adv-x="700" 
d="M637 254q0 -48 -17.5 -91t-48 -77t-71.5 -56t-87 -28l-71 -63q-14 -13 -23 -23t-9 -26q0 -17 11 -26.5t30 -9.5h19q12 0 21.5 1.5t14.5 9.5q6 11 16.5 16.5t21.5 -0.5l44 -25q11 -6 12.5 -17t-4.5 -23q-7 -14 -18 -28q-18 -19 -42 -25.5t-53 -6.5h-48q-27 0 -50.5 10.5
t-41.5 29t-28.5 43t-10.5 51.5q0 21 2.5 36.5t9 28t18 23t28.5 21.5q1 0 2 1l3 2q-44 6 -81.5 27t-66 52.5t-44.5 72.5t-16 87v527q0 32 32 32h67q23 0 27.5 -12t4.5 -27v-520q0 -23 9 -43t24.5 -35t35.5 -23.5t43 -8.5h77q26 0 49 9.5t40 26.5t27 39t10 48v507q0 15 5 27
t28 12h66q33 0 33 -32v-514z" />
    <glyph glyph-name="Wcircumflex" unicode="&#x174;" horiz-adv-x="965" 
d="M116 799q11 0 21.5 -3t15.5 -22l130 -533l69 265.5l68 266.5l-1 -3q5 29 33 29h48q26 0 32 -26l137 -532l131 533q5 19 14.5 22t21.5 3h56q6 0 14 -1t14.5 -5t10.5 -10.5t2 -17.5l-3 -16q-17 -90 -39 -181.5l-46 -183.5l-48.5 -183.5t-45.5 -179.5q-4 -9 -7.5 -15
t-23.5 -6h-98q-17 0 -23 6.5t-8 15.5q-18 66 -34.5 133.5l-33.5 133.5l-48 188l-114 -454q-4 -10 -8.5 -16.5t-21.5 -6.5h-99q-19 0 -23 6t-9 18l-179 725q-1 3 -1.5 7t-0.5 10q0 25 13 29t28 4h56zM578 861q-18 0 -30 5.5t-29 20.5l-37 34l-38 -34q-17 -15 -29 -20.5
t-30 -5.5h-65q-21 0 -26 11t11 26l94 87q13 15 27 21t29 6h52q22 0 34.5 -7.5t25.5 -19.5l93 -87q17 -15 11.5 -26t-26.5 -11h-67z" />
    <glyph glyph-name="wcircumflex" unicode="&#x175;" horiz-adv-x="965" 
d="M116 799q11 0 21.5 -3t15.5 -22l130 -533l69 265.5l68 266.5l-1 -3q5 29 33 29h48q26 0 32 -26l137 -532l131 533q5 19 14.5 22t21.5 3h56q6 0 14 -1t14.5 -5t10.5 -10.5t2 -17.5l-3 -16q-17 -90 -39 -181.5l-46 -183.5l-48.5 -183.5t-45.5 -179.5q-4 -9 -7.5 -15
t-23.5 -6h-98q-17 0 -23 6.5t-8 15.5q-18 66 -34.5 133.5l-33.5 133.5l-48 188l-114 -454q-4 -10 -8.5 -16.5t-21.5 -6.5h-99q-19 0 -23 6t-9 18l-179 725q-1 3 -1.5 7t-0.5 10q0 25 13 29t28 4h56zM578 861q-18 0 -30 5.5t-29 20.5l-37 34l-38 -34q-17 -15 -29 -20.5
t-30 -5.5h-65q-21 0 -26 11t11 26l94 87q13 15 27 21t29 6h52q22 0 34.5 -7.5t25.5 -19.5l93 -87q17 -15 11.5 -26t-26.5 -11h-67z" />
    <glyph glyph-name="Ycircumflex" unicode="&#x176;" horiz-adv-x="696" 
d="M535 787q10 13 27 13h90q32 0 32 -32q0 -8 -4 -15t-8 -12q0 -1 -0.5 -1t-0.5 -1l-1 -1l-257 -367v-332q0 -15 -4 -27t-29 -12h-68q-23 0 -27.5 12t-4.5 27v334l-264 377q-3 5 -3.5 9t-0.5 10q0 31 31 31h89q18 0 29 -15l187 -277l125 190.5t64 90.5zM444 861
q-18 0 -30.5 5.5t-28.5 20.5l-37 34l-38 -34q-17 -15 -29 -20.5t-30 -5.5h-65q-21 0 -26.5 11t11.5 26l94 87q13 15 27 21t29 6h52q22 0 34 -7.5t26 -19.5l93 -87q16 -15 11 -26t-26 -11h-67z" />
    <glyph glyph-name="ycircumflex" unicode="&#x177;" horiz-adv-x="696" 
d="M535 787q10 13 27 13h90q32 0 32 -32q0 -8 -4 -15t-8 -12q0 -1 -0.5 -1t-0.5 -1l-1 -1l-257 -367v-332q0 -15 -4 -27t-29 -12h-68q-23 0 -27.5 12t-4.5 27v334l-264 377q-3 5 -3.5 9t-0.5 10q0 31 31 31h89q18 0 29 -15l187 -277l125 190.5t64 90.5zM444 861
q-18 0 -30.5 5.5t-28.5 20.5l-37 34l-38 -34q-17 -15 -29 -20.5t-30 -5.5h-65q-21 0 -26.5 11t11.5 26l94 87q13 15 27 21t29 6h52q22 0 34 -7.5t26 -19.5l93 -87q16 -15 11 -26t-26 -11h-67z" />
    <glyph glyph-name="Zacute" unicode="&#x179;" horiz-adv-x="654" 
d="M53 0q-23 0 -28 12.5t-5 27.5v43q0 8 2.5 14t6.5 11l409 557h-357q-26 0 -33 7t-7 33v56q0 15 4 27t30 12h509q14 0 23 -10t9 -22v-63q0 -5 -1.5 -11t-6.5 -11l-397 -548h379q26 0 32.5 -7t6.5 -33v-55q0 -15 -5 -27.5t-28 -12.5h-543zM284 864q-22 0 -27 9t3 23l48 88
q18 25 55 25h68q18 0 25 -8.5t-2 -22.5l-69 -87q-15 -16 -28 -21.5t-26 -5.5h-47z" />
    <glyph glyph-name="zacute" unicode="&#x17a;" horiz-adv-x="654" 
d="M53 0q-23 0 -28 12.5t-5 27.5v43q0 8 2.5 14t6.5 11l409 557h-357q-26 0 -33 7t-7 33v56q0 15 4 27t30 12h509q14 0 23 -10t9 -22v-63q0 -5 -1.5 -11t-6.5 -11l-397 -548h379q26 0 32.5 -7t6.5 -33v-55q0 -15 -5 -27.5t-28 -12.5h-543zM284 864q-22 0 -27 9t3 23l48 88
q18 25 55 25h68q18 0 25 -8.5t-2 -22.5l-69 -87q-15 -16 -28 -21.5t-26 -5.5h-47z" />
    <glyph glyph-name="Zdotaccent" unicode="&#x17b;" horiz-adv-x="654" 
d="M53 0q-23 0 -28 12.5t-5 27.5v43q0 8 2.5 14t6.5 11l409 557h-357q-26 0 -33 7t-7 33v56q0 15 4 27t30 12h509q14 0 23 -10t9 -22v-63q0 -5 -1.5 -11t-6.5 -11l-397 -548h379q26 0 32.5 -7t6.5 -33v-55q0 -15 -5 -27.5t-28 -12.5h-543zM394 893q0 -12 -9.5 -22t-23.5 -10
h-68q-14 0 -23 10t-9 22v74q0 12 9 22t23 10h68q14 0 23.5 -10t9.5 -22v-74z" />
    <glyph glyph-name="zdotaccent" unicode="&#x17c;" horiz-adv-x="654" 
d="M53 0q-23 0 -28 12.5t-5 27.5v43q0 8 2.5 14t6.5 11l409 557h-357q-26 0 -33 7t-7 33v56q0 15 4 27t30 12h509q14 0 23 -10t9 -22v-63q0 -5 -1.5 -11t-6.5 -11l-397 -548h379q26 0 32.5 -7t6.5 -33v-55q0 -15 -5 -27.5t-28 -12.5h-543zM394 893q0 -12 -9.5 -22t-23.5 -10
h-68q-14 0 -23 10t-9 22v74q0 12 9 22t23 10h68q14 0 23.5 -10t9.5 -22v-74z" />
    <glyph glyph-name="longs" unicode="&#x17f;" horiz-adv-x="1000" 
 />
    <glyph glyph-name="uni0218" unicode="&#x218;" horiz-adv-x="668" 
d="M623 248q0 -29 -5.5 -58t-15.5 -55.5t-24 -49t-31 -37.5q-34 -30 -80.5 -43.5t-100.5 -13.5h-76q-66 0 -121 30.5t-87 82.5q-22 32 -28 65q-6 31 -6.5 47.5t-0.5 33.5v-2q0 15 4.5 27t27.5 12h68q24 0 30 -24q3 -10 3 -15v-17q0 -4 0.5 -10.5t1.5 -16.5q8 -37 38.5 -61
t69.5 -24h76q45 0 79.5 23t41.5 63q1 5 1.5 10t0.5 10t0.5 12.5t-1 15.5t-5 16t-9.5 14q-21 18 -64 28l-97 23q-48 11 -95.5 25t-85.5 36.5t-61.5 56.5t-23.5 84v14q0 16 0.5 32.5t5.5 36.5l-1 -1q8 42 30 77t54 60.5t71.5 40t82.5 14.5h76q45 0 86.5 -15.5t75.5 -42.5
t53 -75.5t17 -106.5q-1 -15 -5 -27t-27 -12h-66q-14 0 -22.5 10t-9.5 22q-2 64 -28 90.5t-74 26.5h-76q-19 0 -37 -6.5t-32.5 -18.5t-25 -28t-14.5 -35v1q-2 -13 -2.5 -33t18.5 -39q20 -20 43 -26l115 -32l77 -21.5t51 -15.5q20 -7 37.5 -15.5t32.5 -18.5q31 -21 50.5 -57
t19.5 -87zM392 -137q3 -4 -3 -13l-36 -86q-5 -10 -10 -12.5t-14 -2.5h-42q-14 0 -15 6.5t1 11.5l16 64h-8q-14 0 -23 10t-9 22v74q0 12 9 22t23 10h78q14 0 23.5 -10t9.5 -22v-74z" />
    <glyph glyph-name="uni0219" unicode="&#x219;" horiz-adv-x="668" 
d="M623 248q0 -29 -5.5 -58t-15.5 -55.5t-24 -49t-31 -37.5q-34 -30 -80.5 -43.5t-100.5 -13.5h-76q-66 0 -121 30.5t-87 82.5q-22 32 -28 65q-6 31 -6.5 47.5t-0.5 33.5v-2q0 15 4.5 27t27.5 12h68q24 0 30 -24q3 -10 3 -15v-17q0 -4 0.5 -10.5t1.5 -16.5q8 -37 38.5 -61
t69.5 -24h76q45 0 79.5 23t41.5 63q1 5 1.5 10t0.5 10t0.5 12.5t-1 15.5t-5 16t-9.5 14q-21 18 -64 28l-97 23q-48 11 -95.5 25t-85.5 36.5t-61.5 56.5t-23.5 84v14q0 16 0.5 32.5t5.5 36.5l-1 -1q8 42 30 77t54 60.5t71.5 40t82.5 14.5h76q45 0 86.5 -15.5t75.5 -42.5
t53 -75.5t17 -106.5q-1 -15 -5 -27t-27 -12h-66q-14 0 -22.5 10t-9.5 22q-2 64 -28 90.5t-74 26.5h-76q-19 0 -37 -6.5t-32.5 -18.5t-25 -28t-14.5 -35v1q-2 -13 -2.5 -33t18.5 -39q20 -20 43 -26l115 -32l77 -21.5t51 -15.5q20 -7 37.5 -15.5t32.5 -18.5q31 -21 50.5 -57
t19.5 -87zM392 -137q3 -4 -3 -13l-36 -86q-5 -10 -10 -12.5t-14 -2.5h-42q-14 0 -15 6.5t1 11.5l16 64h-8q-14 0 -23 10t-9 22v74q0 12 9 22t23 10h78q14 0 23.5 -10t9.5 -22v-74z" />
    <glyph glyph-name="uni021A" unicode="&#x21a;" horiz-adv-x="640" 
d="M387 671v-632q0 -15 -4.5 -27t-27.5 -12h-69q-23 0 -27.5 12t-4.5 27v632h-194q-26 0 -33 7.5t-7 31.5v51q0 15 4.5 27t27.5 12h533q23 0 28 -12t5 -27v-51q0 -24 -6.5 -31.5t-32.5 -7.5h-192zM392 -137q3 -4 -3 -13l-36 -86q-5 -10 -10 -12.5t-14 -2.5h-42
q-14 0 -15 6.5t1 11.5l16 64h-8q-14 0 -23 10t-9 22v74q0 12 9 22t23 10h78q14 0 23.5 -10t9.5 -22v-74z" />
    <glyph glyph-name="uni021B" unicode="&#x21b;" horiz-adv-x="640" 
d="M387 671v-632q0 -15 -4.5 -27t-27.5 -12h-69q-23 0 -27.5 12t-4.5 27v632h-194q-26 0 -33 7.5t-7 31.5v51q0 15 4.5 27t27.5 12h533q23 0 28 -12t5 -27v-51q0 -24 -6.5 -31.5t-32.5 -7.5h-192zM392 -137q3 -4 -3 -13l-36 -86q-5 -10 -10 -12.5t-14 -2.5h-42
q-14 0 -15 6.5t1 11.5l16 64h-8q-14 0 -23 10t-9 22v74q0 12 9 22t23 10h78q14 0 23.5 -10t9.5 -22v-74z" />
    <glyph glyph-name="uni0237" unicode="&#x237;" horiz-adv-x="681" 
d="M619 263q0 -54 -20.5 -102t-56 -83.5t-83 -56.5t-101.5 -21h-78q-44 0 -84.5 15t-72.5 42t-54 63.5t-29 79.5q-3 17 -4 32.5t-1 32.5v11q0 14 8.5 24t22.5 10h68q14 0 23.5 -10t9.5 -24v-11q0 -17 1 -31t8 -30q13 -31 42 -51t62 -20h78q27 0 50 10.5t40.5 28t27.5 41
t10 50.5v477q-1 9 -1 19.5t3 19.5t10 15t21 6h68q14 0 23 -10t9 -22v-505z" />
    <glyph glyph-name="Wgrave" unicode="&#x1e80;" horiz-adv-x="965" 
d="M116 799q11 0 21.5 -3t15.5 -22l130 -533l69 265.5l68 266.5l-1 -3q5 29 33 29h48q26 0 32 -26l137 -532l131 533q5 19 14.5 22t21.5 3h56q6 0 14 -1t14.5 -5t10.5 -10.5t2 -17.5l-3 -16q-17 -90 -39 -181.5l-46 -183.5l-48.5 -183.5t-45.5 -179.5q-4 -9 -7.5 -15
t-23.5 -6h-98q-17 0 -23 6.5t-8 15.5q-18 66 -34.5 133.5l-33.5 133.5l-48 188l-114 -454q-4 -10 -8.5 -16.5t-21.5 -6.5h-99q-19 0 -23 6t-9 18l-179 725q-1 3 -1.5 7t-0.5 10q0 25 13 29t28 4h56zM457 863q-13 0 -26 5.5t-28 21.5l-69 87q-9 14 -2 22.5t25 8.5h71
q37 0 55 -25l48 -88q8 -14 3 -23t-27 -9h-50z" />
    <glyph glyph-name="wgrave" unicode="&#x1e81;" horiz-adv-x="965" 
d="M116 799q11 0 21.5 -3t15.5 -22l130 -533l69 265.5l68 266.5l-1 -3q5 29 33 29h48q26 0 32 -26l137 -532l131 533q5 19 14.5 22t21.5 3h56q6 0 14 -1t14.5 -5t10.5 -10.5t2 -17.5l-3 -16q-17 -90 -39 -181.5l-46 -183.5l-48.5 -183.5t-45.5 -179.5q-4 -9 -7.5 -15
t-23.5 -6h-98q-17 0 -23 6.5t-8 15.5q-18 66 -34.5 133.5l-33.5 133.5l-48 188l-114 -454q-4 -10 -8.5 -16.5t-21.5 -6.5h-99q-19 0 -23 6t-9 18l-179 725q-1 3 -1.5 7t-0.5 10q0 25 13 29t28 4h56zM457 863q-13 0 -26 5.5t-28 21.5l-69 87q-9 14 -2 22.5t25 8.5h71
q37 0 55 -25l48 -88q8 -14 3 -23t-27 -9h-50z" />
    <glyph glyph-name="Wacute" unicode="&#x1e82;" horiz-adv-x="965" 
d="M116 799q11 0 21.5 -3t15.5 -22l130 -533l69 265.5l68 266.5l-1 -3q5 29 33 29h48q26 0 32 -26l137 -532l131 533q5 19 14.5 22t21.5 3h56q6 0 14 -1t14.5 -5t10.5 -10.5t2 -17.5l-3 -16q-17 -90 -39 -181.5l-46 -183.5l-48.5 -183.5t-45.5 -179.5q-4 -9 -7.5 -15
t-23.5 -6h-98q-17 0 -23 6.5t-8 15.5q-18 66 -34.5 133.5l-33.5 133.5l-48 188l-114 -454q-4 -10 -8.5 -16.5t-21.5 -6.5h-99q-19 0 -23 6t-9 18l-179 725q-1 3 -1.5 7t-0.5 10q0 25 13 29t28 4h56zM450 864q-22 0 -27 9t3 23l48 88q18 25 55 25h68q18 0 25 -8.5t-2 -22.5
l-69 -87q-15 -16 -28 -21.5t-26 -5.5h-47z" />
    <glyph glyph-name="wacute" unicode="&#x1e83;" horiz-adv-x="965" 
d="M116 799q11 0 21.5 -3t15.5 -22l130 -533l69 265.5l68 266.5l-1 -3q5 29 33 29h48q26 0 32 -26l137 -532l131 533q5 19 14.5 22t21.5 3h56q6 0 14 -1t14.5 -5t10.5 -10.5t2 -17.5l-3 -16q-17 -90 -39 -181.5l-46 -183.5l-48.5 -183.5t-45.5 -179.5q-4 -9 -7.5 -15
t-23.5 -6h-98q-17 0 -23 6.5t-8 15.5q-18 66 -34.5 133.5l-33.5 133.5l-48 188l-114 -454q-4 -10 -8.5 -16.5t-21.5 -6.5h-99q-19 0 -23 6t-9 18l-179 725q-1 3 -1.5 7t-0.5 10q0 25 13 29t28 4h56zM450 864q-22 0 -27 9t3 23l48 88q18 25 55 25h68q18 0 25 -8.5t-2 -22.5
l-69 -87q-15 -16 -28 -21.5t-26 -5.5h-47z" />
    <glyph glyph-name="Wdieresis" unicode="&#x1e84;" horiz-adv-x="965" 
d="M116 799q11 0 21.5 -3t15.5 -22l130 -533l69 265.5l68 266.5l-1 -3q5 29 33 29h48q26 0 32 -26l137 -532l131 533q5 19 14.5 22t21.5 3h56q6 0 14 -1t14.5 -5t10.5 -10.5t2 -17.5l-3 -16q-17 -90 -39 -181.5l-46 -183.5l-48.5 -183.5t-45.5 -179.5q-4 -9 -7.5 -15
t-23.5 -6h-98q-17 0 -23 6.5t-8 15.5q-18 66 -34.5 133.5l-33.5 133.5l-48 188l-114 -454q-4 -10 -8.5 -16.5t-21.5 -6.5h-99q-19 0 -23 6t-9 18l-179 725q-1 3 -1.5 7t-0.5 10q0 25 13 29t28 4h56zM432 895q0 -12 -9 -21.5t-22 -9.5h-65q-14 0 -22.5 9.5t-8.5 21.5v70
q0 12 8.5 21.5t22.5 9.5h65q13 0 22 -9.5t9 -21.5v-70zM660 895q0 -12 -9 -21.5t-23 -9.5h-65q-13 0 -21.5 9.5t-8.5 21.5v70q0 12 8.5 21.5t21.5 9.5h65q14 0 23 -9.5t9 -21.5v-70z" />
    <glyph glyph-name="wdieresis" unicode="&#x1e85;" horiz-adv-x="965" 
d="M116 799q11 0 21.5 -3t15.5 -22l130 -533l69 265.5l68 266.5l-1 -3q5 29 33 29h48q26 0 32 -26l137 -532l131 533q5 19 14.5 22t21.5 3h56q6 0 14 -1t14.5 -5t10.5 -10.5t2 -17.5l-3 -16q-17 -90 -39 -181.5l-46 -183.5l-48.5 -183.5t-45.5 -179.5q-4 -9 -7.5 -15
t-23.5 -6h-98q-17 0 -23 6.5t-8 15.5q-18 66 -34.5 133.5l-33.5 133.5l-48 188l-114 -454q-4 -10 -8.5 -16.5t-21.5 -6.5h-99q-19 0 -23 6t-9 18l-179 725q-1 3 -1.5 7t-0.5 10q0 25 13 29t28 4h56zM432 895q0 -12 -9 -21.5t-22 -9.5h-65q-14 0 -22.5 9.5t-8.5 21.5v70
q0 12 8.5 21.5t22.5 9.5h65q13 0 22 -9.5t9 -21.5v-70zM660 895q0 -12 -9 -21.5t-23 -9.5h-65q-13 0 -21.5 9.5t-8.5 21.5v70q0 12 8.5 21.5t21.5 9.5h65q14 0 23 -9.5t9 -21.5v-70z" />
    <glyph glyph-name="Euro" unicode="&#x20ac;" horiz-adv-x="755" 
d="M418 813q61 0 114.5 -20t95.5 -56t71 -85.5t41 -107.5q0 -1 -0.5 -5t-0.5 -5q-3 -10 -10 -19.5t-21 -9.5h-67q-13 0 -19.5 6t-11.5 16l-15 42t-20 36q-27 37 -68 57.5t-89 20.5q-57 0 -104 -30.5t-71 -78.5h231q14 0 23.5 -10t9.5 -22v-63q0 -12 -9.5 -22t-23.5 -10h-251
v-93h251q14 0 23.5 -10t9.5 -22v-63q0 -12 -9.5 -22t-23.5 -10h-231q24 -49 70.5 -79.5t104.5 -30.5q48 0 89 21t70 59q15 20 22.5 40.5t13.5 45.5l-1 -2q4 27 31 27h67q14 0 23 -10t9 -22q0 -15 -4 -31.5t-9 -30.5q-17 -48 -48.5 -89t-73 -71.5t-90 -47.5t-99.5 -17
q-56 0 -107 18t-92 49.5t-71 75t-44 95.5h-63q-13 0 -21.5 10t-8.5 22v63q0 12 8 22t22 10h52v93h-52q-14 0 -23 10t-9 22v63q0 12 9 22t23 10h64q14 51 44 95t71 76t91.5 50t106.5 18z" />
    <glyph glyph-name="scedilla" unicode="&#x15f;" horiz-adv-x="668" 
d="M278 -9q-63 3 -114 33.5t-81 79.5q-21 35 -27 65t-7 46t-1 33q0 15 4 27t27 12h68q24 0 30 -24q3 -10 3 -15v-17q0 -4 0.5 -10.5t1.5 -16.5q8 -37 38.5 -61t69.5 -24h76q45 0 79.5 23t41.5 63q1 5 1.5 10t0.5 10t0.5 12.5t-1 15.5t-5 16t-9.5 14q-21 18 -64 28l-97 23
q-48 11 -95.5 25t-85.5 36.5t-61.5 56.5t-23.5 84v14q0 16 0.5 32.5t5.5 36.5l-1 -1q8 42 30 77t54 60.5t71.5 40t82.5 14.5h76q45 0 86.5 -15.5t75.5 -42.5t53 -75.5t17 -106.5q-1 -15 -5 -27t-27 -12h-66q-14 0 -22.5 10t-9.5 22q-2 64 -28 90.5t-74 26.5h-76
q-19 0 -37 -6.5t-32.5 -18.5t-25 -28t-14.5 -35v1q-2 -13 -2.5 -33t18.5 -39q20 -20 43 -26l115 -32l77 -21.5t51 -15.5q20 -7 37.5 -15.5t32.5 -18.5q31 -21 50.5 -57t19.5 -87q0 -29 -5.5 -58t-15.5 -55.5t-24 -49t-31 -37.5q-32 -29 -76 -42t-95 -15l-14 -37l10 -2t10 -3
q35 -11 56.5 -39t21.5 -70q0 -27 -10.5 -51.5t-28.5 -43t-41.5 -29t-50.5 -10.5h-48q-29 0 -53 11.5t-42 30.5q-11 14 -18 28q-6 12 -4.5 23t12.5 17l44 25q11 6 21.5 0.5t16.5 -16.5q5 -8 14.5 -14.5t21.5 -6.5h19q19 0 30 9.5t11 26.5q0 16 -11 27.5t-30 11.5h-47
q-14 0 -18.5 9t0.5 24z" />
    <glyph glyph-name="quotedbl" unicode="&#x22;" horiz-adv-x="421" 
d="M83 519q-12 0 -22 9.5t-10 23.5v220q0 14 10 23t22 9h61q12 0 22 -9t10 -23v-220q0 -14 -10 -23.5t-22 -9.5h-61zM279 519q-12 0 -22 9.5t-10 23.5v220q0 14 10 23t22 9h61q12 0 22 -9t10 -23v-220q0 -14 -10 -23.5t-22 -9.5h-61z" />
    <glyph glyph-name="exclam" unicode="!" 
d="M192 243q0 -12 -9.5 -22t-23.5 -10h-68q-14 0 -23 10t-9 22v525q0 12 9 22t23 10h68q14 0 23.5 -10t9.5 -22v-525zM192 32q0 -12 -9.5 -22t-23.5 -10h-68q-14 0 -22 10t-8 22l-1 74q0 12 8.5 22t22.5 10h68q14 0 23.5 -10t9.5 -22v-74z" />
  </font>
</defs>
</svg>
